<?xml version="1.0" standalone="no"?>
<!DOCTYPE svg PUBLIC "-//W3C//DTD SVG 1.1//EN" "http://www.w3.org/Graphics/SVG/1.1/DTD/svg11.dtd" >
<svg xmlns="http://www.w3.org/2000/svg" xmlns:xlink="http://www.w3.org/1999/xlink" version="1.1">
<metadata></metadata>
<defs>
<font id="univia_proregular" horiz-adv-x="1388" >
<font-face units-per-em="2048" ascent="1638" descent="-410" />
<missing-glyph horiz-adv-x="462" />
<glyph unicode="&#xfb01;" horiz-adv-x="1230" d="M43 991v96q0 31 31 31h145v203q0 63 20 110t52 72q32 26 76 37q74 21 157 21q67 0 160 -19q27 -6 27 -33v-90q0 -30 -31 -30h-92q-102 0 -137 -20.5t-35 -90.5v-160h643q31 0 31 -31v-1056q0 -31 -31 -31h-135q-31 0 -31 31v930h-477v-930q0 -31 -31 -31h-135 q-31 0 -31 31v930h-145q-31 0 -31 30zM870 1448q0 119 121 119t121 -119q0 -121 -121 -121t-121 121z" />
<glyph unicode="&#xfb02;" horiz-adv-x="1208" d="M43 991v96q0 31 31 31h145v203q0 240 389 240q88 0 428 -23q31 -3 31 -31v-1476q0 -31 -31 -31h-135q-31 0 -31 31v1353l-249 5q-111 0 -158 -22.5t-47 -88.5v-160h260q32 0 26 -33l-16 -98q-6 -26 -33 -26h-237v-930q0 -31 -31 -31h-135q-31 0 -31 31v930h-145 q-31 0 -31 30z" />
<glyph unicode="&#xfb03;" horiz-adv-x="1968" d="M43 991v96q0 31 31 31h145v203q0 63 20 110t52 72q32 26 76 37q74 21 157 21t176 -19q29 -6 29 -33v-90q0 -30 -33 -30h-108q-102 0 -137 -20.5t-35 -90.5v-160h540v203q0 63 20 110t52 72q32 26 76 37q73 21 158 21q66 0 163 -19q27 -6 27 -33v-90q0 -30 -31 -30h-96 q-102 0 -137 -20.5t-35 -90.5v-160h643q31 0 31 -31v-1056q0 -31 -31 -31h-135q-31 0 -31 31v930h-477v-930q0 -31 -31 -31h-135q-31 0 -31 31v930h-540v-930q0 -31 -31 -31h-135q-31 0 -31 31v930h-145q-31 0 -31 30zM1608 1448q0 119 121 119q120 0 120 -119 q0 -121 -120 -121q-121 0 -121 121z" />
<glyph unicode="&#xfb04;" horiz-adv-x="1945" d="M43 991v96q0 31 31 31h145v203q0 63 20 110t52 72q32 26 76 37q74 21 157 21q120 0 217 -19q27 -6 27 -33v-90q0 -30 -31 -30h-149q-102 0 -137 -20.5t-35 -90.5v-160h540v203q0 240 387 240q91 0 431 -23q30 -3 30 -31v-1476q0 -31 -30 -31h-136q-30 0 -30 31v1353 l-250 5q-111 0 -158 -22.5t-47 -88.5v-160h258q33 0 27 -33l-17 -98q-6 -26 -35 -26h-233v-930q0 -31 -31 -31h-135q-31 0 -31 31v930h-540v-930q0 -31 -31 -31h-135q-31 0 -31 31v930h-145q-31 0 -31 30z" />
<glyph horiz-adv-x="0" />
<glyph horiz-adv-x="682" />
<glyph unicode=" "  horiz-adv-x="462" />
<glyph unicode="&#x09;" horiz-adv-x="462" />
<glyph unicode="&#xa0;" horiz-adv-x="462" />
<glyph unicode="!" horiz-adv-x="534" d="M147 111q0 116 123 116q119 0 119 -116q0 -121 -119 -121q-123 0 -123 121zM168 788v730q0 32 31 32h137q31 0 31 -32v-730q0 -27 -2 -43l-33 -303q-3 -30 -31 -30h-68q-24 0 -30 30l-33 303q-2 16 -2 43z" />
<glyph unicode="&#x22;" horiz-adv-x="827" d="M115 1321v197q0 32 30 32h138q30 0 30 -32v-197q0 -27 -2 -43l-32 -303q-3 -31 -31 -31h-66q-27 0 -30 31l-33 303q0 8 -2 24t-2 19zM512 1321v197q0 32 31 32h137q31 0 31 -32v-197q0 -27 -2 -43l-33 -303q-6 -31 -31 -31h-67q-28 0 -31 31l-33 303q-2 16 -2 43z" />
<glyph unicode="#" horiz-adv-x="1380" d="M98 397v111q0 31 31 31h197v471h-197q-31 0 -31 30v111q0 31 31 31h197v338q0 30 30 30h127q31 0 31 -30v-338h328v338q0 30 30 30h127q31 0 31 -30v-338h219q31 0 31 -31v-111q0 -30 -31 -30h-219v-471h219q31 0 31 -31v-111q0 -30 -31 -30h-219v-336q0 -31 -31 -31 h-127q-30 0 -30 31v336h-328v-336q0 -31 -31 -31h-127q-30 0 -30 31v336h-197q-31 0 -31 30zM514 539h328v471h-328v-471z" />
<glyph unicode="$" horiz-adv-x="1241" d="M94 106v127q0 15 19 15h608q118 0 173.5 33.5t55.5 111.5v39q0 76 -33.5 121t-121.5 76l-486 178q-106 37 -149 113.5t-43 201.5v45q0 165 106 237t324 83v158q0 30 31 30h79q31 0 31 -30v-156q143 -3 377 -27q14 0 14 -14v-129q0 -12 -16 -12h-498q-130 0 -185.5 -33.5 t-55.5 -116.5v-33q0 -71 32 -111t121 -75l447 -166q130 -50 182.5 -126t52.5 -197v-62q0 -186 -141 -258q-119 -57 -330 -66v-153q0 -31 -31 -31h-79q-31 0 -31 31v153q-190 3 -436 27q-17 3 -17 16z" />
<glyph unicode="%" horiz-adv-x="1900" d="M70 1143q0 238 77 327t289 89t289 -89q78 -90 78 -327q0 -238 -78 -328q-76 -88 -289 -88t-289 88q-77 89 -77 328zM256 1143q0 -146 38.5 -200t141.5 -54q104 0 143 54t39 200q0 143 -39 197.5t-143 54.5q-102 0 -141 -54.5t-39 -197.5zM475 31l780 1489q18 30 50 30h90 q30 0 12 -30l-780 -1489q-15 -31 -47 -31h-91q-29 0 -14 31zM1100 406q0 239 76 327t288 88q213 0 289 -88q78 -90 78 -327q0 -238 -78 -328q-76 -88 -289 -88q-212 0 -288 88t-76 328zM1284 406q0 -146 38.5 -200t141.5 -54q105 0 144 54t39 200t-39 199.5t-144 53.5 q-103 0 -141.5 -53.5t-38.5 -199.5z" />
<glyph unicode="&#x26;" horiz-adv-x="1343" d="M127 408v34q0 273 174 334q-174 55 -174 336v41q0 241 117 324q119 84 399 84q120 0 240 -19q32 -3 32 -26v-115q0 -23 -30 -23h-240q-178 0 -246 -41q-65 -41 -65 -182v-33q0 -147 51 -204q53 -56 209 -56h598q31 0 31 -31v-79q0 -25 -31 -31l-141 -29v-422 q0 -68 25 -89t106 -21h71q33 0 33 -29v-96q0 -27 -29 -33q-47 -12 -124 -12q-60 0 -78 2q-31 2 -70.5 17t-66.5 42q-137 -61 -302 -61q-263 0 -378 86q-111 89 -111 332zM334 410q0 -128 71 -183t222 -55q120 0 233 43v473h-270q-156 0 -205 -55q-48 -54 -51 -201v-22z" />
<glyph unicode="'" horiz-adv-x="432" d="M117 1321v197q0 32 30 32h138q30 0 30 -32v-197q0 -27 -2 -43l-32 -303q-3 -31 -31 -31h-68q-27 0 -30 31l-33 303q-2 16 -2 43z" />
<glyph unicode="(" horiz-adv-x="675" d="M106 494v194q0 139 5 277q7 90 39 200q33 115 100 221q64 100 196 273q12 12 27 12h152q10 0 10 -10v-23q0 -2 -4 -14q-100 -137 -142 -197q-77 -113 -147 -290q-21 -54 -29 -131q-9 -83 -12 -140v-178v-180q3 -50 12 -137q8 -80 29 -133l55 -127q35 -75 84.5 -149 t149.5 -210q4 -12 4 -14v-23q0 -10 -10 -10h-152q-15 0 -27 12q-57 74 -145 193q-85 120 -154 293q-19 57 -28 141q-11 113 -13 150z" />
<glyph unicode=")" horiz-adv-x="675" d="M39 -262q0 2 4 14q92 127 139 197q70 100 150 289q19 50 28 133q11 104 11 137q2 35 2 180t-2 178q0 34 -11 138q-9 89 -26 133q-20 51 -58 129q-35 75 -84.5 149t-148.5 209q-4 12 -4 14v23q0 10 10 10h152q14 0 26 -12q142 -186 195 -273q64 -97 100 -221 q36 -123 39 -200q6 -83 6 -277q0 -155 -2 -194q0 -48 -10 -150q-9 -85 -31 -141q-19 -56 -57 -133q-35 -75 -86 -148t-154 -205q-12 -12 -26 -12h-152q-10 0 -10 10v23z" />
<glyph unicode="*" horiz-adv-x="870" d="M78 1303l22 69q9 32 41 19l236 -91l-10 261q-3 30 28 30h78q32 0 29 -30l-13 -261l240 93q33 9 39 -19l25 -69q9 -31 -21 -37l-246 -74l164 -199q21 -24 -4 -43l-59 -43q-25 -18 -43 6l-146 213l-149 -213q-18 -24 -43 -6l-56 41q-28 18 -6 43l160 201l-246 72 q-29 6 -20 37z" />
<glyph unicode="+" horiz-adv-x="1120" d="M74 563v121q0 31 30 31h365v360q0 31 31 31h123q30 0 30 -31v-360h363q31 0 31 -31v-121q0 -31 -31 -31h-363v-360q0 -31 -30 -31h-123q-31 0 -31 31v360h-365q-30 0 -30 31z" />
<glyph unicode="," horiz-adv-x="495" d="M14 -258l142 483q6 19 26 19h185q20 0 20 -21v-28q0 -10 -10 -27l-281 -469q-13 -19 -28 -10l-48 24q-15 9 -6 29z" />
<glyph unicode="-" horiz-adv-x="890" d="M133 502v121q0 30 33 30h559q31 0 31 -30v-121q0 -31 -31 -31h-559q-33 0 -33 31z" />
<glyph unicode="." horiz-adv-x="454" d="M106 111q0 116 121 116t121 -116q0 -121 -121 -121t-121 121z" />
<glyph unicode="/" horiz-adv-x="958" d="M55 -35l711 1620q15 35 47 35h80q26 0 14 -35l-706 -1620q-15 -35 -47 -35h-84q-33 0 -15 35z" />
<glyph unicode="0" horiz-adv-x="1370" d="M119 772q0 242 24.5 385t85.5 234q64 94 170 132t285 38q117 1 202 -15t149.5 -55t104.5 -96t65.5 -149t35 -204t10.5 -270q0 -458 -114 -622q-115 -160 -453 -160q-178 0 -284.5 37t-170.5 129q-61 92 -85.5 233.5t-24.5 382.5zM328 772q0 -350 71 -477 q71 -123 285 -123q217 0 287 123q71 127 71 477q0 354 -73 479q-71 127 -285 127t-285 -127t-71 -479z" />
<glyph unicode="1" horiz-adv-x="915" d="M70 1409v94q0 26 30 35q71 23 166 23q111 0 209 -33q125 -42 125 -207v-1139h248q33 0 33 -30v-121q0 -31 -33 -31h-717q-33 0 -33 31v121q0 30 31 30h266v1086q0 67 -36 89.5t-142 22.5h-115q-32 -3 -32 29z" />
<glyph unicode="2" horiz-adv-x="1224" d="M78 57v183q0 130 55 209q54 80 205 163l485 269q76 43 76 192v125q0 104 -80.5 142t-255.5 38h-385q-14 0 -14 15v116q0 17 16 23q271 29 389 29q107 0 174 -6.5t136 -28.5q227 -60 227 -316v-145q0 -134 -37.5 -213t-144.5 -133l-469 -256q-84 -44 -116 -89.5 t-32 -119.5v-72h793q14 0 14 -12v-158q0 -12 -12 -12h-971q-53 0 -53 57z" />
<glyph unicode="3" horiz-adv-x="1198" d="M102 23v131q0 18 31 18h311q261 0 340 49q80 50 80 199v10q-3 147 -51 201q-48 57 -211 57h-393q-25 0 -25 23v127q0 24 25 24h391q160 0 213 56q51 54 51 204v27q0 145 -86 186q-82 43 -350 43h-295q-31 0 -31 19v125q0 17 31 20q162 19 301 19q378 0 508 -80 q129 -77 129 -328v-41q0 -278 -172 -336q172 -61 172 -334v-34q0 -254 -129 -336q-125 -82 -508 -82q-127 0 -301 16q-31 6 -31 17z" />
<glyph unicode="4" horiz-adv-x="1329" d="M59 424v68q0 20 15 69l282 969q9 20 37 20h146q31 0 22 -37l-274 -940h495v416q0 27 23 37l149 57q37 15 37 -20v-490h260q33 0 33 -28v-123q0 -31 -33 -31h-260v-360q0 -31 -30 -31h-148q-31 0 -31 31v360h-692q-31 0 -31 33z" />
<glyph unicode="5" horiz-adv-x="1253" d="M123 27v125q0 20 31 20h381q243 0 325 55q84 60 84 222v18q-3 168 -86 227q-83 62 -323 62h-379q-33 0 -33 22v127l37 615q3 30 33 30h901q30 0 30 -30v-121q0 -31 -30 -31h-734l-30 -438q81 8 190 8q370 0 500 -92q128 -88 131 -361v-47q-3 -271 -133 -358 q-134 -90 -506 -90q-205 0 -358 12q-31 3 -31 25z" />
<glyph unicode="6" horiz-adv-x="1243" d="M90 444v41q0 146 47 252l402 793q11 20 36 20h166q39 0 21 -37l-299 -600q74 23 180 23q279 0 406 -107t127 -344v-43q0 -240 -128 -346t-413 -106q-287 0 -416 105.5t-129 348.5zM299 461q0 -155 78 -222t258 -67q178 0 255 66.5t77 220.5v8q0 155 -77 222t-255 67 q-180 0 -258 -67t-78 -222v-6z" />
<glyph unicode="7" horiz-adv-x="1159" d="M41 1397v123q0 30 33 30h1013q31 0 31 -30v-90q0 -26 -14 -48l-690 -1362q-11 -20 -37 -20h-168q-39 0 -21 37l674 1331h-788q-33 0 -33 29z" />
<glyph unicode="8" horiz-adv-x="1296" d="M104 420q0 107 63 207.5t175 167.5q-195 103 -195 335q0 220 119 325.5t369 105.5h31q247 0 367 -104.5t120 -319.5q0 -134 -47 -222t-148 -149q120 -56 175 -139.5t55 -216.5q0 -213 -129.5 -316.5t-394.5 -103.5h-35q-270 0 -397.5 104.5t-127.5 325.5zM311 420 q0 -248 318 -248h33q317 0 317 234q0 111 -68 159q-57 47 -143 70l-244 80q-115 -60 -164 -130.5t-49 -164.5zM356 1151q0 -98 50.5 -155.5t156.5 -98.5l203 -63q178 102 178 294q0 250 -280 250h-29q-279 0 -279 -227z" />
<glyph unicode="9" horiz-adv-x="1243" d="M68 1065v43q0 240 128.5 346.5t413.5 106.5t414 -106t129 -349v-41q0 -149 -47 -252l-401 -793q-11 -20 -37 -20h-166q-39 0 -21 37l299 598q-70 -21 -178 -21q-282 0 -408 106t-126 345zM276 1083q0 -155 77 -221.5t257 -66.5t257 66t77 220v6q0 156 -77 223.5 t-257 67.5t-257 -67t-77 -221v-7z" />
<glyph unicode=":" horiz-adv-x="509" d="M135 111q0 116 123 116q119 0 119 -116q0 -121 -119 -121q-123 0 -123 121zM135 1012q0 118 123 118q119 0 119 -118q0 -119 -119 -119q-123 0 -123 119z" />
<glyph unicode=";" horiz-adv-x="557" d="M39 -258l141 483q6 19 27 19h184q21 0 21 -21v-28q0 -9 -11 -27l-280 -469q-13 -20 -29 -10l-47 24q-15 9 -6 29zM170 1012q0 118 123 118q121 0 121 -118q0 -119 -121 -119q-123 0 -123 119z" />
<glyph unicode="&#x3c;" horiz-adv-x="1079" d="M68 698v133q0 23 24 35l821 383q2 2 15 2h18q12 0 12 -12v-145q0 -23 -24 -35l-641 -293l641 -295q24 -12 24 -35v-143q0 -12 -12 -12h-18q-13 0 -15 2l-821 381q-24 12 -24 34z" />
<glyph unicode="=" horiz-adv-x="1339" d="M139 342v121q0 31 31 31h999q31 0 31 -31v-121q0 -31 -31 -31h-999q-31 0 -31 31zM139 834v120q0 31 31 31h999q31 0 31 -31v-120q0 -31 -31 -31h-999q-31 0 -31 31z" />
<glyph unicode="&#x3e;" horiz-adv-x="1079" d="M121 293v143q0 23 24 35l641 295l-641 293q-24 12 -24 35v145q0 12 12 12h21q10 0 14 -2l821 -383q23 -13 23 -35v-133q0 -21 -23 -34l-821 -381q-4 -2 -14 -2h-21q-12 0 -12 12z" />
<glyph unicode="?" horiz-adv-x="1064" d="M57 1409v96q0 32 33 35q144 21 367 21q112 0 175.5 -6t131.5 -27q108 -30 161.5 -106.5t57.5 -221.5v-119q0 -163 -49 -239q-46 -76 -176 -135l-209 -101q-69 -35 -86 -55q-20 -24 -23 -72l-4 -51q0 -16 -16 -16h-139q-16 0 -19 16l-8 125q-5 64 14.5 96.5t89.5 69.5 l299 145q68 33 93.5 78.5t25.5 140.5v109q0 100 -59 145q-21 18 -72 27q-66 14 -188 14h-369q-31 0 -31 31zM225 111q0 116 121 116t121 -116q0 -121 -121 -121t-121 121z" />
<glyph unicode="@" horiz-adv-x="2142" d="M102 563q0 510 240.5 747.5t757.5 237.5q473 0 703.5 -197t230.5 -622q0 -341 -154 -483q-152 -140 -459 -140l-401 3q-180 3 -256 55t-76 209v24q0 136 73.5 194t231.5 58h277v115q0 83 -51.5 119.5t-171.5 36.5h-259q-14 0 -19 5t-5 19v72q0 23 22 26q131 23 244 23 q215 0 309.5 -63.5t94.5 -206.5v-586q118 0 200 22.5t150 75.5q141 113 141 416q0 727 -829 727q-450 0 -666.5 -218.5t-216.5 -674.5q9 -480 213 -672q68 -66 133 -103.5t154 -62.5q81 -23 141 -31.5t158 -15.5q28 0 28 -30v-39q0 -29 -28 -29q-464 0 -687 244.5 t-223 744.5zM852 375q0 -77 38.5 -101t141.5 -24h238v266h-266q-100 0 -127 -24q-25 -25 -25 -105v-12z" />
<glyph unicode="A" d="M43 33l363 1288q48 161 92 199q50 41 192 41q158 0 205 -41q48 -40 92 -199l350 -1288q4 -20 -0.5 -26.5t-23.5 -6.5h-160q-12 0 -17.5 6.5t-9.5 26.5l-127 452h-616l-129 -452q-4 -20 -9.5 -26.5t-17.5 -6.5h-159q-19 0 -24 6.5t-1 26.5zM434 666h518l-159 606 q-21 74 -37 90q-15 18 -66 18q-42 0 -55.5 -17t-32.5 -91z" />
<glyph unicode="B" horiz-adv-x="1404" d="M168 35v1481q0 18 6 23t25 7q202 15 526 15q273 0 403 -95q132 -94 132 -336q0 -303 -181 -346v-6q219 -41 219 -368q0 -245 -124 -332q-122 -88 -386 -88q-400 0 -589 14q-19 2 -25 7.5t-6 23.5zM375 172h418q166 0 232.5 51.5t66.5 194.5q0 155 -69.5 213.5 t-225.5 58.5h-422v-518zM375 856h252q190 0 280 18q82 21 109 69.5t35 166.5q0 162 -80 215q-77 53 -264 53h-332v-522z" />
<glyph unicode="C" horiz-adv-x="1226" d="M117 774q0 242 27.5 385t97.5 234q70 94 185 131t312 37q237 0 381 -21q33 -3 33 -35v-96q0 -31 -31 -31h-383q-261 0 -338 -121t-77 -483q0 -360 77 -481t338 -121h383q31 0 31 -31v-96q0 -31 -33 -37q-132 -18 -381 -18q-196 0 -311 37t-186 129q-70 91 -97.5 233.5 t-27.5 384.5z" />
<glyph unicode="D" horiz-adv-x="1509" d="M168 33v1483q0 18 6 23t25 7q202 15 563 15q345 0 489 -185q148 -183 148 -600q0 -418 -148 -604q-144 -182 -489 -182q-374 0 -563 14q-19 2 -25 7t-6 22zM375 172h387q235 0 330 139q98 140 98 465q0 320 -105 461t-352 141h-358v-1206z" />
<glyph unicode="E" horiz-adv-x="1288" d="M168 31v1489q0 30 31 30h958q31 0 31 -30v-121q0 -31 -31 -31h-782v-526h712q31 0 31 -31v-119q0 -30 -31 -30h-712v-480h782q31 0 31 -30v-121q0 -31 -31 -31h-958q-31 0 -31 31z" />
<glyph unicode="F" horiz-adv-x="1224" d="M168 31v1489q0 30 31 30h952q31 0 31 -30v-121q0 -31 -31 -31h-776v-526h704q31 0 31 -31v-119q0 -30 -31 -30h-704v-631q0 -31 -31 -31h-145q-31 0 -31 31z" />
<glyph unicode="G" horiz-adv-x="1355" d="M117 772q0 245 27.5 387.5t97.5 233.5q70 94 185 131t312 37q250 0 394 -21q32 -3 32 -35v-96q0 -31 -30 -31h-396q-140 0 -218 -28t-124 -101q-43 -72 -58 -177.5t-15 -299.5q0 -360 77 -481q76 -119 338 -119h312v561q0 33 30 33h136q30 0 30 -33v-610q0 -26 -6 -41 q-28 -67 -205 -82l-143 -8q-39 -2 -154 -2q-290 0 -434 100q-106 82 -146 237.5t-42 444.5z" />
<glyph unicode="H" horiz-adv-x="1583" d="M168 31v1487q0 32 31 32h145q31 0 31 -32v-639h833v639q0 32 31 32h145q31 0 31 -32v-1487q0 -31 -31 -31h-145q-31 0 -31 31v665h-833v-665q0 -31 -31 -31h-145q-31 0 -31 31z" />
<glyph unicode="I" horiz-adv-x="542" d="M168 31v1487q0 32 31 32h145q31 0 31 -32v-1487q0 -31 -31 -31h-145q-31 0 -31 31z" />
<glyph unicode="J" horiz-adv-x="1171" d="M35 45v96q0 31 31 31h307q271 0 354 121q82 118 82 455v24v596h-510q-31 0 -31 31v121q0 30 31 30h688q31 0 31 -30v-748q0 -240 -29 -382.5t-102 -233.5q-72 -92 -192 -129t-322 -37q-175 0 -307 18q-31 6 -31 37z" />
<glyph unicode="K" horiz-adv-x="1271" d="M168 31v1489q0 30 31 30h147q31 0 31 -30v-643l600 653q14 20 43 20h166q31 0 31 -14q0 -9 -13 -25l-608 -680l653 -776q19 -19 10 -37t-45 -18h-159q-32 0 -45 23l-633 761v-753q0 -31 -31 -31h-147q-31 0 -31 31z" />
<glyph unicode="L" horiz-adv-x="1179" d="M168 31v1489q0 30 31 30h145q31 0 31 -30v-1338h743q31 0 31 -30v-121q0 -31 -31 -31h-919q-31 0 -31 31z" />
<glyph unicode="M" horiz-adv-x="1935" d="M113 31l131 1487q3 32 30 32h160q34 0 49 -15.5t35 -64.5l449 -1163l448 1163q20 49 35 64.5t49 15.5h160q28 0 31 -30l133 -1489q3 -31 -31 -31h-147q-28 0 -31 31l-94 1163l-443 -1118q-9 -25 -37 -25h-145q-30 0 -39 25l-442 1118l-95 -1163q-3 -31 -30 -31h-146 q-33 0 -30 31z" />
<glyph unicode="N" horiz-adv-x="1579" d="M168 31v1487q0 32 31 32h139q53 -1 72.5 -11.5t44.5 -47.5l749 -1129v1156q0 32 31 32h145q31 0 31 -32v-1487q0 -31 -31 -31h-125q-47 0 -71 37l-809 1218v-1224q0 -31 -31 -31h-145q-31 0 -31 31z" />
<glyph unicode="O" horiz-adv-x="1482" d="M117 772q0 460 127 625q126 164 497 164q372 0 498 -164q127 -165 127 -625q0 -242 -27.5 -383.5t-99.5 -232.5q-70 -92 -185.5 -129t-312.5 -37q-196 0 -311.5 37t-187.5 129q-70 91 -97.5 232.5t-27.5 383.5zM326 772q0 -360 77 -481q76 -119 338 -119t338 119 q78 122 78 481q0 196 -15.5 300.5t-60.5 176.5q-43 73 -121.5 101t-218.5 28t-218 -28t-124 -101q-43 -72 -58 -177.5t-15 -299.5z" />
<glyph unicode="P" horiz-adv-x="1327" d="M168 31v1485q0 18 6 23t25 7q202 15 436 15q191 0 297.5 -19.5t179.5 -73.5q76 -54 106.5 -148.5t30.5 -258.5q0 -163 -31 -256.5t-102 -147.5q-46 -32 -119 -49q-122 -28 -362 -28h-260v-549q0 -19 -6 -25t-25 -6h-145q-19 0 -25 6t-6 25zM375 756h241q101 0 132 2 q135 4 178 24q65 28 90 90q24 59 24 176v9q0 206 -82 264q-77 57 -342 57h-241v-622z" />
<glyph unicode="Q" horiz-adv-x="1480" d="M117 772q0 463 125 625q126 164 499 164q154 0 258 -24.5t177 -78.5q106 -83 146 -240.5t42 -445.5q0 -420 -104 -588q-102 -169 -394 -190l74 -250q9 -33 -31 -33h-137q-34 0 -43 33l-74 248q-318 15 -428 180t-110 600zM324 772q0 -278 45 -412q34 -104 121.5 -146 t250.5 -42q203 0 297 76q70 64 93.5 180t25.5 344q0 280 -45 414q-34 106 -121.5 149t-249.5 43q-261 0 -340 -123q-77 -121 -77 -483z" />
<glyph unicode="R" horiz-adv-x="1353" d="M168 31v1485q0 18 6 23t25 7q202 15 436 15q191 0 297.5 -19.5t179.5 -73.5q76 -54 106.5 -148.5t30.5 -258.5q0 -244 -75 -344q-73 -101 -261 -125l347 -551q12 -17 5 -29t-30 -12h-131q-31 0 -47.5 9.5t-34.5 35.5l-338 535h-309v-549q0 -19 -6 -25t-25 -6h-145 q-19 0 -25 6t-6 25zM375 756h241q101 0 132 2q135 4 178 24q65 28 90 90q24 59 24 176v9q0 206 -82 264q-77 57 -342 57h-241v-622z" />
<glyph unicode="S" horiz-adv-x="1236" d="M90 51v92q0 29 29 29h561q138 0 202 42t64 138v39q0 87 -33 136t-122 85l-486 197q-106 41 -149 125.5t-43 222.5v49q0 173 102 258q43 37 119 60q117 37 315 37q141 0 398 -31q28 -3 28 -27v-94q0 -31 -26 -31h-461q-269 0 -269 -182v-35q0 -81 32.5 -127t121.5 -82 l447 -184q130 -54 182.5 -137.5t52.5 -218.5v-66q0 -174 -106 -260q-46 -40 -119 -61q-127 -35 -316 -35q-247 0 -499 28q-25 6 -25 33z" />
<glyph unicode="T" horiz-adv-x="1255" d="M29 1399v121q0 30 30 30h1137q31 0 31 -30v-121q0 -31 -31 -31h-465v-1337q0 -31 -31 -31h-145q-31 0 -31 31v1337h-465q-30 0 -30 31z" />
<glyph unicode="U" horiz-adv-x="1529" d="M156 772v748q0 30 30 30h146q30 0 30 -30v-748q0 -245 35 -373q35 -124 118.5 -175.5t248.5 -51.5q242 0 321 119q82 119 82 481v748q0 30 31 30h145q31 0 31 -30v-748q0 -250 -26.5 -393t-96.5 -232t-180.5 -123t-306.5 -34q-152 0 -251 22t-173 72q-73 49 -113 143 q-71 181 -71 545z" />
<glyph unicode="V" horiz-adv-x="1366" d="M51 1518q-6 32 27 32h160q18 0 26 -32l340 -1239q20 -74 32.5 -92.5t43.5 -18.5q41 0 55 18.5t33 92.5l326 1239q8 32 26 32h160q33 0 27 -32l-342 -1289q-28 -107 -56 -159q-24 -44 -73 -62t-156 -18q-142 0 -184 39q-44 41 -86 200z" />
<glyph unicode="W" horiz-adv-x="2232" d="M66 1518q-6 32 24 32h162q19 0 27 -32l260 -1229q13 -67 28 -88t47 -21q41 0 56 18.5t32 90.5l293 1165q9 33 37 33h164q26 0 35 -33l293 -1165q19 -73 33 -91t55 -18q33 0 48 20.5t28 88.5l260 1229q8 32 26 32h162q33 0 27 -32l-279 -1289q-35 -159 -80 -198 q-47 -41 -186 -41q-156 0 -201 39q-42 39 -82 200l-221 928l-221 -928q-25 -108 -53 -159q-24 -44 -74 -62t-158 -18q-141 0 -188 41q-42 37 -78 198z" />
<glyph unicode="X" horiz-adv-x="1316" d="M27 45l510 762l-469 698q-14 23 -9 34t31 11h158q36 0 55 -32l354 -535l355 535q19 32 55 32h158q26 0 31 -11t-9 -34l-467 -698l510 -762q11 -16 11 -27q0 -18 -33 -18h-158q-35 0 -55 33l-398 596l-393 -596q-23 -33 -55 -33h-160q-33 0 -33 18q0 11 11 27z" />
<glyph unicode="Y" horiz-adv-x="1351" d="M16 1505q-8 15 -8 25q0 20 31 20h160q36 0 55 -32l422 -822l424 822q14 32 55 32h158q30 0 30 -20q0 -10 -8 -25l-555 -1034v-440q0 -31 -30 -31h-148q-31 0 -31 31v440z" />
<glyph unicode="Z" horiz-adv-x="1339" d="M63 131q0 21 15 39l907 1198h-864q-33 0 -33 29l-2 123q0 30 33 30h1106q30 0 30 -30v-103q0 -19 -14 -39l-905 -1196h905q33 0 33 -30v-121q0 -31 -33 -31h-1145q-30 0 -30 31z" />
<glyph unicode="[" horiz-adv-x="804" d="M174 -268v1908q0 31 31 31h510q30 0 30 -31v-104q0 -31 -30 -31h-346v-1638h346q30 0 30 -31v-104q0 -31 -30 -31h-510q-31 0 -31 31z" />
<glyph unicode="\" horiz-adv-x="958" d="M51 1585q-12 35 17 35h79q34 0 46 -35l712 -1620q15 -35 -16 -35h-84q-30 0 -45 35z" />
<glyph unicode="]" horiz-adv-x="804" d="M59 -164q0 31 31 31h346v1638h-346q-31 0 -31 31v104q0 31 31 31h510q31 0 31 -31v-1908q0 -31 -31 -31h-510q-31 0 -31 31v104z" />
<glyph unicode="^" horiz-adv-x="1032" d="M80 801l340 682q9 22 37 22h118q28 0 37 -22l342 -682q15 -37 -22 -37h-148q-25 0 -34 22l-236 486l-233 -486q-9 -22 -37 -22h-142q-43 0 -22 37z" />
<glyph unicode="_" horiz-adv-x="1126" d="M0 -125q0 31 31 31h1065q30 0 30 -31v-68q0 -30 -30 -30h-1065q-31 0 -31 30v68z" />
<glyph unicode="`" horiz-adv-x="872" d="M246 1520v14q0 20 20 20h183q18 0 24 -12l150 -248q9 -15 -7 -28l-41 -27q-14 -11 -28 0l-291 256q-10 10 -10 25z" />
<glyph unicode="a" horiz-adv-x="1093" d="M72 319q0 173 86.5 244.5t275.5 71.5l330 2v137q0 97 -62 140.5t-204 43.5h-308q-19 0 -24.5 6t-5.5 25v84q0 17 5 22.5t23 10.5q144 24 310 24q240 0 351.5 -77t111.5 -244v-717q0 -43 -39 -57q-116 -45 -455 -45q-216 0 -305 65q-90 69 -90 264zM266 324 q0 -97 51.5 -131.5t184.5 -34.5q168 0 262 24v295h-326q-90 0 -131 -35t-41 -118z" />
<glyph unicode="b" horiz-adv-x="1183" d="M141 57v1461q0 30 31 30h135q31 0 31 -30v-402q104 14 272 14q288 0 377 -114q90 -116 90 -459q0 -342 -92 -457q-88 -110 -385 -110q-205 0 -426 35q-33 3 -33 32zM338 178q141 -16 264 -16q183 0 232 76t49 321q0 251 -49 324q-49 75 -234 75h-262v-780z" />
<glyph unicode="c" horiz-adv-x="995" d="M109 559q0 189 18 289.5t70 165.5q54 67 140.5 91.5t246.5 24.5q176 0 311 -18q29 -3 29 -35v-88q0 -31 -31 -31h-309q-181 0 -230 -75q-49 -76 -49 -324q0 -245 49 -321t230 -76h309q31 0 31 -31v-88q0 -32 -29 -35q-135 -18 -311 -18q-159 0 -246 24t-141 90 q-52 65 -70 165.5t-18 289.5z" />
<glyph unicode="d" horiz-adv-x="1185" d="M109 557q0 343 90 459q89 114 376 114q172 0 273 -14v402q0 30 31 30h135q30 0 30 -30v-1461q0 -29 -32 -32q-221 -35 -426 -35q-232 0 -340 67q-80 59 -107.5 170t-29.5 330zM305 559q0 -244 47 -321q49 -76 234 -76q121 0 262 16v780h-260q-185 0 -234 -75 q-49 -73 -49 -324z" />
<glyph unicode="e" horiz-adv-x="1114" d="M106 559q0 342 91 459q87 112 376 112q274 0 363 -108q91 -111 94 -432v-60q0 -33 -15 -45t-59 -12h-651q3 -189 55 -250t218 -61h335q31 0 31 -31v-90q0 -30 -29 -33q-135 -18 -342 -18q-288 0 -376 110q-91 117 -91 459zM303 633h531q-3 195 -54 262q-48 63 -207 63 q-162 0 -215 -65q-52 -64 -55 -260z" />
<glyph unicode="f" horiz-adv-x="733" d="M43 991v96q0 31 31 31h145v203q0 63 20 110t52 72q32 26 76 37q74 21 157 21q84 0 181 -19q26 -6 26 -33v-90q0 -30 -31 -30h-112q-102 0 -137 -20.5t-35 -90.5v-160h262q33 0 27 -33l-17 -98q-6 -26 -33 -26h-239v-930q0 -31 -31 -31h-135q-31 0 -31 31v930h-145 q-31 0 -31 30z" />
<glyph unicode="g" horiz-adv-x="1181" d="M106 563q0 185 19.5 286.5t73.5 166.5q54 66 141 90t246 24q260 0 424 -34q32 -3 32 -35v-959q0 -165 -19 -255.5t-71 -151.5q-53 -62 -141.5 -86.5t-241.5 -24.5q-151 0 -297 19q-26 3 -26 32v89q0 30 28 30h291q171 0 226 49t55 191v12q-109 -16 -271 -16 q-291 0 -378 112q-91 117 -91 461zM303 561q0 -247 49 -323q52 -76 236 -76q152 0 258 14v782h-262q-183 0 -232 -75q-49 -73 -49 -322z" />
<glyph unicode="h" horiz-adv-x="1206" d="M141 31v1487q0 30 31 30h135q31 0 31 -30v-398q113 10 260 10q157 0 231 -14q83 -13 142 -63q59 -48 80.5 -138.5t21.5 -263.5v-620q0 -31 -31 -31h-135q-30 0 -30 31v604q0 126 -11.5 187.5t-46.5 90.5q-34 31 -72.5 39.5t-128.5 8.5h-280v-930q0 -31 -31 -31h-135 q-31 0 -31 31z" />
<glyph unicode="i" horiz-adv-x="479" d="M119 1448q0 119 121 119q120 0 120 -119q0 -121 -120 -121q-121 0 -121 121zM141 31v1059q0 30 31 30h135q31 0 31 -30v-1059q0 -31 -31 -31h-135q-31 0 -31 31z" />
<glyph unicode="j" horiz-adv-x="485" d="M-23 -270q0 28 33 28h47q61 0 75.5 14t14.5 74v1244q0 30 31 30h135q31 0 31 -30v-1332q-1 -47 -15 -80.5t-33.5 -51t-53 -27t-59 -11.5t-64.5 -2q-80 0 -113 8q-29 6 -29 33v103zM123 1448q0 119 123 119q121 0 121 -119q0 -121 -121 -121q-123 0 -123 121z" />
<glyph unicode="k" horiz-adv-x="1034" d="M141 33v1483q0 32 31 32h135q31 0 31 -32v-793l336 377q14 20 43 20h170q26 0 30.5 -11t-12.5 -28l-362 -401l481 -625q19 -19 10 -37t-45 -18h-143q-25 0 -45 23l-463 610v-600q0 -33 -31 -33h-135q-31 0 -31 33z" />
<glyph unicode="l" horiz-adv-x="479" d="M141 31v1489q0 30 31 30h135q31 0 31 -30v-1489q0 -31 -31 -31h-135q-31 0 -31 31z" />
<glyph unicode="m" horiz-adv-x="1779" d="M139 31v1034q0 27 31 33q157 32 342 32q209 0 340 -61q180 64 330 64h29q121 0 198 -15q86 -17 139 -63q54 -49 77.5 -142.5t23.5 -253.5l-4 -628q0 -31 -31 -31h-131q-31 0 -31 31v604q0 162 -33 248q-16 39 -51 53q-34 16 -66 20.5t-104 4.5q-132 0 -240 -19 q33 -88 33 -291l-4 -620q0 -31 -26 -31h-136q-30 0 -30 31v616q0 120 -11.5 179.5t-46.5 88.5q-33 29 -69 36t-127 7h-205v-927q0 -31 -31 -31h-135q-31 0 -31 31z" />
<glyph unicode="n" horiz-adv-x="1204" d="M139 31v1034q0 13 4 20t9.5 9t17.5 4q157 32 426 32q157 0 231 -14q83 -13 142 -63q59 -48 80.5 -138.5t21.5 -263.5v-620q0 -31 -35 -31h-131q-31 0 -31 31v604q0 164 -32 248q-15 36 -51 51q-35 16 -67.5 20t-107.5 4h-280v-927q0 -31 -31 -31h-135q-31 0 -31 31z" />
<glyph unicode="o" horiz-adv-x="1165" d="M106 559q0 175 19 283q39 218 217 264q88 24 242 24q152 0 241 -24q179 -46 215 -264q19 -108 19 -283q0 -174 -19 -285q-17 -103 -72 -170t-143 -92q-93 -22 -241 -22q-151 0 -244 22q-176 50 -215 262q-19 111 -19 285zM303 559q0 -245 49 -321t232 -76q180 0 229 76 t49 321q0 248 -49 324q-49 75 -229 75q-183 0 -232 -75q-49 -76 -49 -324z" />
<glyph unicode="p" horiz-adv-x="1181" d="M139 -375v1436q0 29 33 35q214 34 424 34q297 0 387 -112q92 -115 92 -457q0 -343 -90 -459q-87 -112 -379 -112q-162 0 -270 12v-377q0 -31 -31 -31h-135q-31 0 -31 31zM336 178q141 -16 258 -16q183 0 233 74q52 76 52 323t-50 324q-49 75 -231 75h-262v-780z" />
<glyph unicode="q" horiz-adv-x="1179" d="M106 563q0 342 93 455q90 112 385 112q210 0 424 -34q32 -6 32 -35v-1436q0 -31 -30 -31h-136q-30 0 -30 31v375q-98 -10 -271 -10q-289 0 -376 112q-91 117 -91 461zM303 561q0 -247 49 -323t234 -76q152 0 258 14v782h-262q-183 0 -232 -75q-47 -74 -47 -322z" />
<glyph unicode="r" horiz-adv-x="749" d="M137 31v860q0 62 22.5 110.5t55.5 73.5q38 26 82 37q66 18 164 18q161 0 229 -22q31 -9 31 -35v-86q0 -32 -33 -29h-178q-106 0 -142 -22.5t-36 -91.5v-813q0 -31 -31 -31h-133q-31 0 -31 31z" />
<glyph unicode="s" horiz-adv-x="989" d="M86 39v90q0 31 31 31h379q127 0 171 20.5t44 85.5v25q0 48 -26 78t-93 59l-291 111q-197 77 -197 292v43q0 162 127 213q109 43 289 43q161 0 314 -18q28 -3 28 -33v-88q0 -30 -31 -30h-380q-150 0 -150 -107v-27q0 -96 127 -143l272 -109q121 -47 163 -112.5t42 -175.5 v-23q0 -163 -96 -219q-94 -55 -317 -55q-219 0 -375 18q-31 3 -31 31z" />
<glyph unicode="t" horiz-adv-x="700" d="M51 991v96q0 31 31 31h115v246q0 27 26 33l135 33q35 9 35 -27v-285h215q33 0 33 -31v-96q0 -30 -33 -30h-215v-689q0 -68 25.5 -89t107.5 -21h99q32 0 32 -29v-98q0 -27 -30 -33q-49 -12 -115 -12t-96 2.5t-78 13.5q-69 18 -102 66.5t-39 150.5v738h-115q-31 0 -31 30z " />
<glyph unicode="u" horiz-adv-x="1206" d="M133 471v619q0 30 35 30h131q31 0 31 -30v-605q0 -125 11 -186t44 -92q35 -29 73.5 -37t129.5 -8h280v928q0 30 31 30h135q31 0 31 -30v-1037q0 -9 -1.5 -14.5t-7 -8.5t-9 -4t-13.5 -3q-165 -33 -426 -33q-152 0 -231 12q-82 15 -141 66q-60 49 -81.5 140t-21.5 263z" />
<glyph unicode="v" horiz-adv-x="1114" d="M53 1087q-2 20 3 26.5t22 6.5h151q12 0 16.5 -6t10.5 -27l221 -813q20 -72 32.5 -90t43.5 -18q41 0 55 17.5t33 90.5l213 813q4 20 9.5 26.5t17.5 6.5h149q19 0 24 -6.5t1 -26.5l-230 -858q-19 -74 -22 -82q-21 -83 -43 -102q-1 -1 -7.5 -8t-10 -10l-10.5 -9t-13 -9 t-14.5 -6t-16.5 -3q-55 -10 -135 -10q-74 0 -112 8.5t-68 30.5q-17 17 -29 45q-8 17 -14.5 33.5t-10 28.5t-11.5 41t-15 52z" />
<glyph unicode="w" horiz-adv-x="1712" d="M66 1087q-2 21 2.5 27t21.5 6h150q15 0 24 -33l168 -841q12 -51 22 -64.5t33 -13.5q26 0 35 12t21 66l198 809q8 32 29 32h172q21 0 29 -32l198 -809q12 -54 21 -66t35 -12q23 0 33 13.5t22 64.5l168 841q4 20 9.5 26.5t17.5 6.5h147q17 0 22 -6.5t3 -26.5l-181 -866 q-36 -155 -73 -192q-39 -39 -166 -39q-131 0 -166 35q-35 38 -72 196l-133 574l-133 -574q-37 -158 -72 -196q-35 -35 -166 -35q-124 0 -166 39q-37 37 -73 192z" />
<glyph unicode="x" horiz-adv-x="1087" d="M23.5 10q-4.5 10 5.5 27l397 557l-350 489q-8 9 -9 17.5t5 14t18 5.5h168q21 0 33 -18l252 -352l250 352q12 18 34 18h166q18 0 23 -12t-6 -25l-353 -489l398 -557q10 -17 5.5 -27t-22.5 -10h-168q-21 0 -30 18l-297 420l-299 -420q-9 -18 -31 -18h-166q-19 0 -23.5 10z " />
<glyph unicode="y" horiz-adv-x="1208" d="M131 549v541q0 30 31 30h133q31 0 31 -30v-529q0 -247 49 -323q52 -76 237 -76q152 0 258 14v914q0 30 31 30h135q31 0 31 -30v-988q0 -165 -19 -255.5t-71 -151.5q-53 -62 -141.5 -86.5t-241.5 -24.5q-163 0 -309 19q-29 3 -29 32v89q0 30 31 30h303q170 0 225 49 t55 191v12q-109 -16 -270 -16q-288 0 -379 110q-90 116 -90 449z" />
<glyph unicode="z" horiz-adv-x="1050" d="M63 31v57q0 22 15 37l598 823h-553q-33 0 -33 31v111q0 30 33 30h809q33 0 33 -30v-50q0 -17 -13 -36l-604 -832h604q33 0 33 -31v-110q0 -31 -33 -31h-856q-33 0 -33 31z" />
<glyph unicode="{" horiz-adv-x="684" d="M59 655v66q0 27 17 37l160 96q21 15 18 37l-57 545q-13 135 55 194.5t231 59.5q39 0 97 -9q30 -3 30 -32v-107q0 -31 -30 -31h-80q-58 0 -81.5 -21.5t-17.5 -70.5l56 -532q6 -47 -5.5 -70t-48.5 -51l-135 -74v-8l135 -74q37 -28 48.5 -51t5.5 -70l-56 -532 q-6 -49 17.5 -70.5t81.5 -21.5h80q30 0 30 -31v-106q0 -30 -30 -33q-52 -8 -97 -8q-163 0 -231 59.5t-55 194.5l57 544q3 22 -18 37l-160 96q-17 10 -17 37z" />
<glyph unicode="|" horiz-adv-x="542" d="M174 -147v1761q0 31 31 31h133q31 0 31 -31v-1761q0 -31 -31 -31h-133q-31 0 -31 31z" />
<glyph unicode="}" horiz-adv-x="684" d="M74 -166q0 31 30 31h82q56 0 79.5 21.5t19.5 70.5l-58 532q-6 47 5.5 70t48.5 51l135 74v8l-135 74q-37 28 -48.5 51t-5.5 70l58 532q4 49 -19.5 70.5t-79.5 21.5h-82q-30 0 -30 31v107q0 29 30 32q58 9 97 9q163 0 231 -59.5t55 -194.5l-57 -545q-3 -21 19 -37l159 -96 q17 -10 17 -37v-66q0 -27 -17 -37l-159 -96q-22 -16 -19 -37l57 -544q13 -135 -55 -194.5t-231 -59.5q-45 0 -97 8q-30 3 -30 33v106z" />
<glyph unicode="~" horiz-adv-x="1253" d="M113 688q30 95 106.5 153t179.5 58q52 3 119.5 -27t121 -67t112.5 -67t98 -27q116 0 162 98q15 27 39 12l82 -53q19 -13 10 -37q-30 -94 -106.5 -152.5t-180.5 -58.5q-44 -2 -95.5 17.5t-98 48t-91.5 57.5t-89.5 48.5t-78.5 17.5q-113 0 -159 -99q-15 -27 -39 -12l-82 53 q-19 13 -10 37z" />
<glyph unicode="&#xa1;" horiz-adv-x="514" d="M137 1010q0 120 123 120q119 0 119 -120q0 -117 -119 -117q-123 0 -123 117zM158 356q0 27 2 41l33 305q6 31 30 31h68q28 0 31 -31l32 -305q2 -14 2 -41v-731q0 -31 -30 -31h-138q-30 0 -30 31v731z" />
<glyph unicode="&#xa2;" horiz-adv-x="1034" d="M113 559q0 338 82 451q82 114 352 120l24 136q3 30 35 30h78q30 0 27 -30l-25 -138q119 -3 213 -16q29 -3 29 -35v-88q0 -31 -31 -31h-309q-181 0 -230 -75q-49 -76 -49 -324q0 -245 49 -321t230 -76h309q31 0 31 -31v-88q0 -32 -29 -35q-135 -18 -311 -18h-58l-24 -135 q-3 -31 -35 -31h-78q-29 0 -26 31l26 149q-166 29 -225 150q-55 119 -55 405z" />
<glyph unicode="&#xa3;" horiz-adv-x="1273" d="M63 31l21 121q6 30 35 30h141v369h-110q-31 0 -31 31v96q0 31 31 31h110v393q0 270 131 358q134 90 510 90q81 0 221 -10q31 -6 31 -27v-124q0 -21 -31 -21h-245q-246 0 -326 -57q-82 -55 -82 -219v-383h506q31 0 31 -31v-96q0 -31 -31 -31h-506v-369h705q30 0 30 -30 v-121q0 -31 -30 -31h-1084q-33 0 -27 31z" />
<glyph unicode="&#xa4;" horiz-adv-x="1122" d="M125 336l100 98q-59 89 -59 232q0 142 59 231l-100 98q-21 24 2 43l53 56q24 21 45 0l103 -101q97 54 233 54q131 0 236 -54l100 101q21 21 45 0l53 -56q23 -19 2 -43l-100 -98q61 -94 61 -231q0 -138 -61 -232l100 -98q21 -24 -2 -43l-53 -55q-24 -21 -45 0l-100 100 q-103 -53 -236 -53q-138 0 -233 53l-103 -100q-21 -21 -45 0l-53 55q-23 19 -2 43zM356 666q0 -103 54 -160q55 -55 151 -55q98 0 150 55q55 55 55 160q0 104 -55 159q-53 56 -150 56q-95 0 -151 -56q-54 -57 -54 -159z" />
<glyph unicode="&#xa5;" horiz-adv-x="1433" d="M57 1505q-23 45 23 45h158q38 0 55 -32l424 -762l422 762q17 32 55 32h160q45 0 22 -45l-512 -895h275q30 0 30 -30v-72q0 -31 -30 -31h-318v-162h318q30 0 30 -30v-72q0 -31 -30 -31h-318v-151q0 -31 -30 -31h-148q-31 0 -31 31v151h-315q-31 0 -31 31v72q0 30 31 30 h315v162h-315q-31 0 -31 31v72q0 30 31 30h274z" />
<glyph unicode="&#xa6;" horiz-adv-x="540" d="M172 -147v731q0 30 31 30h135q31 0 31 -30v-731q0 -31 -31 -31h-135q-31 0 -31 31zM172 885v729q0 31 31 31h135q31 0 31 -31v-729q0 -31 -31 -31h-135q-31 0 -31 31z" />
<glyph unicode="&#xa7;" horiz-adv-x="927" d="M113 733v584q0 163 123 213q61 24 123.5 32.5t160.5 8.5q69 0 166 -17q29 -6 29 -30v-88q0 -29 -31 -29h-233q-152 0 -152 -111v-159l319 -125q197 -77 197 -291v-578q0 -164 -125 -213q-61 -24 -123.5 -32.5t-160.5 -8.5q-82 0 -166 19q-27 6 -27 31v86q0 28 29 28h235 q152 0 152 111v153l-320 125q-196 76 -196 291zM299 729q0 -99 127 -149l203 -80v223q0 96 -129 149l-201 80v-223z" />
<glyph unicode="&#xa8;" horiz-adv-x="1126" d="M246 1393q0 120 127 120q125 0 125 -120q0 -125 -125 -125q-127 0 -127 125zM629 1393q0 120 125 120q127 0 127 -120q0 -125 -127 -125q-125 0 -125 125z" />
<glyph unicode="&#xa9;" horiz-adv-x="1769" d="M106 768q0 402 189 594q187 190 590 190t590 -190q188 -191 188 -594t-188 -594q-187 -190 -590 -190t-590 190q-189 192 -189 594zM223 768q0 -341 160 -506q162 -162 502 -162q341 0 499 162q162 162 162 506t-160.5 506t-500.5 162q-343 0 -502.5 -161t-159.5 -507z M561 756q0 236 68 319q69 84 262 84q142 0 201 -16q24 -6 24 -29v-86q0 -14 -14 -14h-211q-96 0 -131 -53q-31 -54 -31 -205q0 -149 31 -203q35 -53 131 -53h211q14 0 14 -15v-88q0 -22 -24 -28q-87 -17 -201 -17q-193 0 -262 84q-68 86 -68 320z" />
<glyph unicode="&#xaa;" horiz-adv-x="817" d="M119 1059v22q0 105 56 151t181 46h176v49q0 105 -141 105h-203q-12 0 -12 14v84q0 11 14 14q100 17 201 17q153 0 220 -50.5t67 -160.5v-426q0 -26 -27 -35q-112 -23 -264 -23q-150 0 -209 40t-59 153zM141 657v60q0 31 31 31h455q30 0 30 -31v-60q0 -30 -30 -30h-455 q-31 0 -31 30zM266 1075q0 -51 25 -69.5t94 -18.5q89 0 147 10v162h-159q-60 0 -83.5 -18t-23.5 -60v-6z" />
<glyph unicode="&#xab;" horiz-adv-x="1044" d="M80 520v78q0 21 14 41l228 297q15 18 36 18h134q30 0 30 -30v-15q0 -23 -14 -37l-252 -313l252 -311q14 -14 14 -37v-14q0 -31 -30 -31h-134q-21 0 -36 18l-228 297q-14 14 -14 39zM489 520v78q0 20 15 41l227 297q15 18 37 18h133q31 0 31 -30v-15q0 -23 -14 -37 l-252 -313l252 -311q14 -14 14 -37v-14q0 -31 -31 -31h-133q-22 0 -37 18l-227 297q-15 15 -15 39z" />
<glyph unicode="&#xac;" horiz-adv-x="1247" d="M96 797v123q0 30 31 30h946q31 0 31 -30v-488q0 -31 -31 -31h-125q-30 0 -30 31v334h-791q-31 0 -31 31z" />
<glyph unicode="&#xad;" horiz-adv-x="890" d="M133 502v121q0 30 33 30h559q31 0 31 -30v-121q0 -31 -31 -31h-559q-33 0 -33 31z" />
<glyph unicode="&#xae;" horiz-adv-x="1769" d="M106 768q0 402 189 594q187 190 590 190t590 -190q188 -191 188 -594t-188 -594q-187 -190 -590 -190t-590 190q-189 192 -189 594zM223 768q0 -341 160 -506q162 -162 502 -162q341 0 499 162q162 162 162 506t-160.5 506t-500.5 162q-343 0 -502.5 -161t-159.5 -507z M604 379v764q0 12 12 12q130 10 283 10q171 0 235 -56t64 -208q0 -115 -35 -168.5t-123 -70.5l177 -281q6 -6 2.5 -11t-11.5 -5h-145q-24 0 -33 18l-172 268h-86v-272q0 -14 -12 -14h-142q-14 0 -14 14zM772 776h109q87 0 116 23.5t29 95.5q0 74 -29.5 99.5t-115.5 25.5 h-109v-244z" />
<glyph unicode="&#xaf;" horiz-adv-x="1081" d="M246 1331v84q0 31 30 31h529q31 0 31 -31v-84q0 -31 -31 -31h-529q-30 0 -30 31z" />
<glyph unicode="&#xb0;" horiz-adv-x="731" d="M92 1296q0 265 275 265q272 0 272 -265q0 -262 -272 -262q-275 0 -275 262zM227 1296q0 -137 140 -137q137 0 137 137q0 138 -137 138q-140 0 -140 -138z" />
<glyph unicode="&#xb1;" horiz-adv-x="1230" d="M129 229v107q0 31 31 31h911q31 0 31 -31v-107q0 -30 -31 -30h-911q-31 0 -31 30zM131 840v112q0 31 31 31h362v291q0 31 31 31h123q31 0 31 -31v-291h360q31 0 31 -31v-112q0 -31 -31 -31h-360v-291q0 -31 -31 -31h-123q-31 0 -31 31v291h-362q-31 0 -31 31z" />
<glyph unicode="&#xb2;" horiz-adv-x="714" d="M63 1061v90q0 60 24.5 93.5t100.5 86.5l224 156q35 24 47 50t12 71v20q0 61 -37.5 84t-130.5 23h-201q-12 0 -12 14v82q0 17 23 24q93 17 206 17q153 0 230.5 -45t77.5 -156v-92q0 -72 -21.5 -114t-91.5 -91l-186 -121q-78 -54 -78 -75v-11h385q8 0 8 -8v-123q0 -6 -8 -6 h-543q-29 0 -29 31z" />
<glyph unicode="&#xb3;" horiz-adv-x="718" d="M76 1067v80q0 12 12 12h219q95 0 133.5 21t38.5 80v24q1 58 -39 80t-135 22h-164q-12 0 -12 15v94q0 12 12 12h164q94 0 134 22.5t40 80.5v26q0 58 -38.5 78.5t-133.5 20.5h-219q-12 0 -12 12v82q0 21 22 24q90 19 238 19q299 0 299 -203v-61q0 -136 -137 -160 q137 -21 137 -162v-61q0 -111 -76.5 -156t-222.5 -45q-116 0 -238 16q-22 3 -22 27z" />
<glyph unicode="&#xb4;" horiz-adv-x="872" d="M250 1294l149 248q6 12 25 12h182q21 0 21 -20v-14q0 -14 -11 -25l-290 -256q-15 -12 -29 0l-41 27q-15 12 -6 28z" />
<glyph unicode="&#xb5;" horiz-adv-x="1214" d="M141 -242v1332q0 30 35 30h131q31 0 31 -30v-605q0 -125 11 -186t44 -92q35 -29 73.5 -37t129.5 -8h281v928q0 30 30 30h135q31 0 31 -30v-1037q0 -9 -1.5 -14.5t-7 -8.5t-9 -4t-13.5 -3q-165 -33 -426 -33q-196 0 -278 28v-260q0 -30 -31 -30h-135q-31 0 -31 30z" />
<glyph unicode="&#xb6;" horiz-adv-x="1423" d="M74 1057v47q3 271 119 362q121 95 448 95q198 0 313 -37t185 -131q70 -91 96.5 -233t26.5 -386v-774h-179v788q0 308 -65 441t-240 160v-781h-133q-327 -6 -448 86q-120 94 -123 363z" />
<glyph unicode="&#xb7;" horiz-adv-x="483" d="M121 561q0 119 123 119q118 0 118 -119t-118 -119q-123 0 -123 119z" />
<glyph unicode="&#xb8;" horiz-adv-x="827" d="M246 -217q0 31 30 31h74q59 0 76.5 11t17.5 52t-16 119q-9 35 27 35h61q26 0 35 -27q31 -118 31 -188q0 -86 -44.5 -121t-144.5 -35q-80 0 -123 16q-24 9 -24 37v70z" />
<glyph unicode="&#xb9;" horiz-adv-x="557" d="M63 1757v86q0 16 15 19q75 10 108 10q93 0 139 -32.5t46 -115.5v-557h131q14 0 14 -14v-111q0 -12 -14 -12h-414q-14 0 -14 14v109q0 14 14 14h133v519q0 59 -69 59h-74q-15 0 -15 12z" />
<glyph unicode="&#xba;" horiz-adv-x="845" d="M125 1214q0 206 59 277q58 70 238 70q182 0 240 -70q59 -71 59 -277q0 -209 -59 -280q-59 -68 -240 -68q-182 0 -240 70q-57 69 -57 278zM164 657v60q0 31 31 31h454q31 0 31 -31v-60q0 -30 -31 -30h-454q-31 0 -31 30zM270 1214q0 -126 29 -176q30 -43 123 -43 q96 0 123 43q28 45 28 176q0 133 -28 175q-27 43 -123 43q-93 0 -123 -43q-29 -47 -29 -175z" />
<glyph unicode="&#xbb;" horiz-adv-x="1042" d="M113 197v14q0 23 14 37l250 311l-250 313q-14 14 -14 37v15q0 30 30 30h133q22 0 37 -18l228 -297q14 -22 14 -41v-78q0 -19 -14 -39l-228 -297q-15 -18 -37 -18h-133q-30 0 -30 31zM520 197v14q0 22 15 37l251 311l-251 313q-15 15 -15 37v15q0 30 31 30h133 q22 0 37 -18l229 -297q13 -23 13 -41v-78q0 -20 -13 -39l-229 -297q-15 -18 -37 -18h-133q-31 0 -31 31z" />
<glyph unicode="&#xbc;" horiz-adv-x="1759" d="M84 1442v86q0 15 14 18q75 10 109 10q93 0 138.5 -32t45.5 -115v-557h131q15 0 15 -14v-111q0 -12 -15 -12h-413q-15 0 -15 14v109q0 14 15 14h135v518q0 60 -72 60h-74q-14 0 -14 12zM395 -35l709 1620q15 35 47 35h63q27 0 15 -35l-707 -1620q-18 -35 -47 -35h-65 q-33 0 -15 35zM1038 225v82q0 14 9 35l139 483q7 11 16 11h129q17 0 8 -15l-135 -473h213v187q0 11 10 14l129 43q15 3 15 -12v-232h123q14 0 14 -12v-111q0 -12 -14 -12h-123v-199q0 -14 -12 -14h-132q-10 0 -10 14v199h-366q-13 0 -13 12z" />
<glyph unicode="&#xbd;" horiz-adv-x="1728" d="M74 1442v86q0 15 12 18q75 10 109 10q93 0 138.5 -32t45.5 -115v-557h131q14 0 14 -14v-111q0 -12 -14 -12h-414q-12 0 -12 14v109q0 14 12 14h135v518q0 60 -69 60h-76q-12 0 -12 12zM395 -35l709 1620q15 35 47 35h63q27 0 15 -35l-707 -1620q-18 -35 -47 -35h-65 q-33 0 -15 35zM1077 31v90q0 60 24.5 93.5t100.5 86.5l223 156q35 24 47.5 50t12.5 71v20q0 61 -37.5 84t-130.5 23h-201q-12 0 -12 14v82q0 18 22 24q94 17 207 17q152 0 229.5 -45t77.5 -156v-92q0 -72 -21 -114.5t-91 -90.5l-187 -121q-79 -55 -79 -76v-10h387q8 0 8 -8 v-123q0 -6 -8 -6h-543q-29 0 -29 31z" />
<glyph unicode="&#xbe;" horiz-adv-x="1853" d="M92 752v79q0 13 10 13h222q95 0 133.5 20.5t38.5 79.5v25q1 58 -39 80t-135 22h-164q-15 0 -15 14v95q0 12 15 12h164q94 0 134 22t40 80v27q0 58 -38.5 78t-133.5 20h-222q-10 0 -10 13v81q0 22 21 25q86 18 239 18q299 0 299 -202v-62q0 -135 -137 -159 q137 -21 137 -162v-62q0 -111 -76.5 -155.5t-222.5 -44.5q-117 0 -239 16q-21 3 -21 27zM504 -35l708 1620q15 35 48 35h63q26 0 14 -35l-704 -1620q-18 -35 -47 -35h-68q-29 0 -14 35zM1135 225v82q0 22 8 35l139 483q4 11 14 11h131q15 0 9 -15l-136 -473h211v187 q0 11 13 14l129 43q14 3 14 -12v-232h121q14 0 14 -12v-111q0 -12 -14 -12h-121v-199q0 -14 -12 -14h-131q-13 0 -13 14v199h-366q-10 0 -10 12z" />
<glyph unicode="&#xbf;" horiz-adv-x="1048" d="M72 -23v86q0 163 47 240q50 77 178 135l209 101q66 30 84.5 52.5t23.5 74.5l4 51q3 16 17 16h139q19 0 19 -16l10 -125q5 -62 -16 -95t-89 -71l-301 -145q-67 -33 -91.5 -78t-24.5 -142v-75q0 -90 57 -138t135 -64.5t211 -16.5h283q30 0 30 -31v-96q0 -31 -30 -37 q-162 -19 -285 -19q-137 0 -236 17t-188 57q-91 38 -138.5 119.5t-47.5 199.5zM588 1010q0 120 123 120q120 0 120 -120q0 -117 -120 -117q-123 0 -123 117z" />
<glyph unicode="&#xc0;" d="M43 33l363 1288q48 161 92 199q50 41 192 41q158 0 205 -41q48 -40 92 -199l350 -1288q4 -20 -0.5 -26.5t-23.5 -6.5h-160q-12 0 -17.5 6.5t-9.5 26.5l-127 452h-616l-129 -452q-4 -20 -9.5 -26.5t-17.5 -6.5h-159q-19 0 -24 6.5t-1 26.5zM414 1929v15q0 20 20 20h180 q19 0 25 -12l149 -248q10 -16 -6 -29l-41 -26q-14 -11 -28 0l-289 256q-10 10 -10 24zM434 666h518l-159 606q-21 74 -37 90q-15 18 -66 18q-42 0 -55.5 -17t-32.5 -91z" />
<glyph unicode="&#xc1;" d="M43 33l363 1288q48 161 92 199q50 41 192 41q158 0 205 -41q48 -40 92 -199l350 -1288q4 -20 -0.5 -26.5t-23.5 -6.5h-160q-12 0 -17.5 6.5t-9.5 26.5l-127 452h-616l-129 -452q-4 -20 -9.5 -26.5t-17.5 -6.5h-159q-19 0 -24 6.5t-1 26.5zM434 666h518l-159 606 q-21 74 -37 90q-15 18 -66 18q-42 0 -55.5 -17t-32.5 -91zM616 1704l150 248q6 12 25 12h182q20 0 20 -20v-15q0 -14 -10 -24l-291 -256q-14 -11 -28 0l-41 26q-16 13 -7 29z" />
<glyph unicode="&#xc2;" d="M43 33l363 1288q48 161 92 199q50 41 192 41q158 0 205 -41q48 -40 92 -199l350 -1288q4 -20 -0.5 -26.5t-23.5 -6.5h-160q-12 0 -17.5 6.5t-9.5 26.5l-127 452h-616l-129 -452q-4 -20 -9.5 -26.5t-17.5 -6.5h-159q-19 0 -24 6.5t-1 26.5zM430 1702l182 248q8 14 35 14 h86q27 0 35 -14l182 -248q12 -15 -8 -29l-35 -24q-15 -12 -30 0l-187 149l-186 -149q-15 -12 -31 0l-35 24q-20 14 -8 29zM434 666h518l-159 606q-21 74 -37 90q-15 18 -66 18q-42 0 -55.5 -17t-32.5 -91z" />
<glyph unicode="&#xc3;" d="M43 33l363 1288q48 161 92 199q50 41 192 41q158 0 205 -41q48 -40 92 -199l350 -1288q4 -20 -0.5 -26.5t-23.5 -6.5h-160q-12 0 -17.5 6.5t-9.5 26.5l-127 452h-616l-129 -452q-4 -20 -9.5 -26.5t-17.5 -6.5h-159q-19 0 -24 6.5t-1 26.5zM354 1729q37 118 76 157t117 39 q49 0 145 -41q100 -41 131 -41q37 0 56.5 14.5t38.5 55.5q15 31 38 22l48 -12q31 -9 22 -47q-37 -117 -75.5 -157t-116.5 -40q-48 0 -148 41q-96 41 -129 41q-38 0 -56.5 -14t-37.5 -55q-16 -29 -39 -21l-47 12q-32 10 -23 46zM434 666h518l-159 606q-21 74 -37 90 q-15 18 -66 18q-42 0 -55.5 -17t-32.5 -91z" />
<glyph unicode="&#xc4;" d="M43 33l363 1288q48 161 92 199q50 41 192 41q158 0 205 -41q48 -40 92 -199l350 -1288q4 -20 -0.5 -26.5t-23.5 -6.5h-160q-12 0 -17.5 6.5t-9.5 26.5l-127 452h-616l-129 -452q-4 -20 -9.5 -26.5t-17.5 -6.5h-159q-19 0 -24 6.5t-1 26.5zM373 1802q0 121 127 121 q125 0 125 -121q0 -125 -125 -125q-127 0 -127 125zM434 666h518l-159 606q-21 74 -37 90q-15 18 -66 18q-42 0 -55.5 -17t-32.5 -91zM756 1802q0 121 127 121q125 0 125 -121q0 -125 -125 -125q-127 0 -127 125z" />
<glyph unicode="&#xc5;" d="M43 33l363 1288q48 161 92 199q50 41 192 41q158 0 205 -41q48 -40 92 -199l350 -1288q4 -20 -0.5 -26.5t-23.5 -6.5h-160q-12 0 -17.5 6.5t-9.5 26.5l-127 452h-616l-129 -452q-4 -20 -9.5 -26.5t-17.5 -6.5h-159q-19 0 -24 6.5t-1 26.5zM434 666h518l-159 606 q-21 74 -37 90q-15 18 -66 18q-42 0 -55.5 -17t-32.5 -91zM473 1858q0 208 217 208t217 -208q0 -209 -217 -209t-217 209zM563 1858q0 -127 127 -127t127 127t-127 127t-127 -127z" />
<glyph unicode="&#xc6;" horiz-adv-x="1982" d="M43 33l365 1288q48 161 92 199q50 41 190 41l457 -11h704q31 0 31 -30v-121q0 -31 -31 -31h-671v-526h602q30 0 30 -31v-119q0 -30 -30 -30h-602v-480h671q31 0 31 -30v-121q0 -31 -31 -31h-850q-30 0 -30 31v454h-586l-129 -452q-4 -20 -9.5 -26.5t-17.5 -6.5h-159 q-19 0 -24 6.5t-3 26.5zM434 666h537v714h-275q-46 0 -61 -18q-13 -15 -35 -96z" />
<glyph unicode="&#xc7;" horiz-adv-x="1226" d="M117 774q0 242 27.5 385t97.5 234q70 94 185 131t312 37q237 0 381 -21q33 -3 33 -35v-96q0 -31 -31 -31h-383q-261 0 -338 -121t-77 -483q0 -360 77 -481t338 -121h383q31 0 31 -31v-96q0 -31 -33 -37q-120 -18 -352 -18q27 -108 27 -174q0 -86 -44.5 -121t-144.5 -35 q-80 0 -123 16q-24 9 -24 37v70q0 31 30 31h74q59 0 76.5 11t17.5 52q0 24 -16 115q-310 18 -418 184q-106 166 -106 598z" />
<glyph unicode="&#xc8;" horiz-adv-x="1288" d="M168 31v1489q0 30 31 30h958q31 0 31 -30v-121q0 -31 -31 -31h-782v-526h712q31 0 31 -31v-119q0 -30 -31 -30h-712v-480h782q31 0 31 -30v-121q0 -31 -31 -31h-958q-31 0 -31 31zM426 1929v15q0 20 20 20h181q18 0 24 -12l150 -248q10 -16 -6 -29l-39 -26q-14 -12 -29 0 l-291 256q-10 10 -10 24z" />
<glyph unicode="&#xc9;" horiz-adv-x="1288" d="M168 31v1489q0 30 31 30h958q31 0 31 -30v-121q0 -31 -31 -31h-782v-526h712q31 0 31 -31v-119q0 -30 -31 -30h-712v-480h782q31 0 31 -30v-121q0 -31 -31 -31h-958q-31 0 -31 31zM522 1704l150 248q6 12 24 12h183q20 0 20 -20v-15q0 -14 -10 -24l-291 -256 q-14 -12 -29 0l-41 26q-16 13 -6 29z" />
<glyph unicode="&#xca;" horiz-adv-x="1288" d="M168 31v1489q0 30 31 30h958q31 0 31 -30v-121q0 -31 -31 -31h-782v-526h712q31 0 31 -31v-119q0 -30 -31 -30h-712v-480h782q31 0 31 -30v-121q0 -31 -31 -31h-958q-31 0 -31 31zM408 1702l180 248q8 14 35 14h88q24 0 32 -14l183 -248q12 -14 -6 -29l-37 -24 q-15 -12 -29 0l-188 149l-187 -149q-14 -11 -28 0l-37 24q-18 15 -6 29z" />
<glyph unicode="&#xcb;" horiz-adv-x="1288" d="M168 31v1489q0 30 31 30h958q31 0 31 -30v-121q0 -31 -31 -31h-782v-526h712q31 0 31 -31v-119q0 -30 -31 -30h-712v-480h782q31 0 31 -30v-121q0 -31 -31 -31h-958q-31 0 -31 31zM350 1802q0 121 127 121q123 0 123 -121q0 -125 -123 -125q-127 0 -127 125zM733 1802 q0 121 125 121t125 -121q0 -125 -125 -125t-125 125z" />
<glyph unicode="&#xcc;" horiz-adv-x="544" d="M-25 1929v15q0 20 21 20h182q19 0 25 -12l149 -248q10 -16 -6 -29l-41 -26q-15 -12 -29 0l-290 256q-11 11 -11 24zM168 31v1487q0 32 31 32h147q31 0 31 -32v-1487q0 -31 -31 -31h-147q-31 0 -31 31z" />
<glyph unicode="&#xcd;" horiz-adv-x="542" d="M168 31v1487q0 32 31 32h145q31 0 31 -32v-1487q0 -31 -31 -31h-145q-31 0 -31 31zM186 1704l150 248q6 12 24 12h183q20 0 20 -20v-15q0 -14 -10 -24l-291 -256q-15 -12 -29 0l-40 26q-16 13 -7 29z" />
<glyph unicode="&#xce;" horiz-adv-x="542" d="M8 1702l182 248q8 14 33 14h88q27 0 35 -14l180 -248q14 -14 -6 -29l-37 -24q-14 -11 -28 0l-187 149l-186 -149q-15 -9 -31 0l-37 24q-18 15 -6 29zM168 31v1487q0 32 31 32h145q31 0 31 -32v-1487q0 -31 -31 -31h-145q-31 0 -31 31z" />
<glyph unicode="&#xcf;" horiz-adv-x="542" d="M-49 1802q0 121 127 121q123 0 123 -121q0 -125 -123 -125q-127 0 -127 125zM168 31v1487q0 32 31 32h145q31 0 31 -32v-1487q0 -31 -31 -31h-145q-31 0 -31 31zM334 1802q0 121 125 121t125 -121q0 -125 -125 -125t-125 125z" />
<glyph unicode="&#xd0;" horiz-adv-x="1533" d="M12 731v84q0 31 31 31h150v670q0 18 5.5 23t24.5 7q199 15 563 15q346 0 490 -185q147 -182 147 -600q0 -420 -147 -604q-144 -182 -490 -182q-377 0 -563 14q-19 2 -24.5 7t-5.5 22v667h-150q-31 0 -31 31zM399 172h387q231 0 330 141q98 140 98 463q0 321 -104 461 q-105 141 -354 141h-357v-532h324q31 0 31 -31v-84q0 -31 -31 -31h-324v-528z" />
<glyph unicode="&#xd1;" horiz-adv-x="1579" d="M168 31v1487q0 32 31 32h139q53 -1 72.5 -11.5t44.5 -47.5l749 -1129v1156q0 32 31 32h145q31 0 31 -32v-1487q0 -31 -31 -31h-125q-47 0 -71 37l-809 1218v-1224q0 -31 -31 -31h-145q-31 0 -31 31zM455 1729q37 118 73 157q39 39 117 39q48 0 148 -41t131 -41 q37 0 56 14.5t38 55.5q12 31 37 22l49 -12q29 -10 20 -47q-35 -117 -73.5 -157t-116.5 -40q-48 0 -148 41q-96 41 -129 41q-38 0 -56.5 -14t-37.5 -55q-16 -29 -39 -21l-47 12q-32 9 -22 46z" />
<glyph unicode="&#xd2;" horiz-adv-x="1482" d="M117 772q0 460 127 625q126 164 497 164q372 0 498 -164q127 -165 127 -625q0 -242 -27.5 -383.5t-99.5 -232.5q-70 -92 -185.5 -129t-312.5 -37q-196 0 -311.5 37t-187.5 129q-70 91 -97.5 232.5t-27.5 383.5zM326 772q0 -360 77 -481q76 -119 338 -119t338 119 q78 122 78 481q0 196 -15.5 300.5t-60.5 176.5q-43 73 -121.5 101t-218.5 28t-218 -28t-124 -101q-43 -72 -58 -177.5t-15 -299.5zM410 1929v15q0 20 20 20h182q19 0 25 -12l149 -248q10 -16 -6 -29l-41 -26q-14 -11 -28 0l-291 256q-10 10 -10 24z" />
<glyph unicode="&#xd3;" horiz-adv-x="1482" d="M117 772q0 460 127 625q126 164 497 164q372 0 498 -164q127 -165 127 -625q0 -242 -27.5 -383.5t-99.5 -232.5q-70 -92 -185.5 -129t-312.5 -37q-196 0 -311.5 37t-187.5 129q-70 91 -97.5 232.5t-27.5 383.5zM326 772q0 -360 77 -481q76 -119 338 -119t338 119 q78 122 78 481q0 196 -15.5 300.5t-60.5 176.5q-43 73 -121.5 101t-218.5 28t-218 -28t-124 -101q-43 -72 -58 -177.5t-15 -299.5zM643 1704l150 248q6 12 24 12h182q21 0 21 -20v-15q0 -14 -10 -24l-291 -256q-15 -12 -29 0l-41 26q-16 13 -6 29z" />
<glyph unicode="&#xd4;" horiz-adv-x="1482" d="M117 772q0 460 127 625q126 164 497 164q372 0 498 -164q127 -165 127 -625q0 -242 -27.5 -383.5t-99.5 -232.5q-70 -92 -185.5 -129t-312.5 -37q-196 0 -311.5 37t-187.5 129q-70 91 -97.5 232.5t-27.5 383.5zM326 772q0 -360 77 -481q76 -119 338 -119t338 119 q78 122 78 481q0 196 -15.5 300.5t-60.5 176.5q-43 73 -121.5 101t-218.5 28t-218 -28t-124 -101q-43 -72 -58 -177.5t-15 -299.5zM483 1702l181 248q8 14 34 14h88q25 0 33 -14l182 -248q12 -14 -6 -29l-37 -24q-15 -12 -30 0l-187 149l-186 -149q-15 -9 -31 0l-35 24 q-20 15 -6 29z" />
<glyph unicode="&#xd5;" horiz-adv-x="1482" d="M117 772q0 460 127 625q126 164 497 164q372 0 498 -164q127 -165 127 -625q0 -242 -27.5 -383.5t-99.5 -232.5q-70 -92 -185.5 -129t-312.5 -37q-196 0 -311.5 37t-187.5 129q-70 91 -97.5 232.5t-27.5 383.5zM326 772q0 -360 77 -481q76 -119 338 -119t338 119 q78 122 78 481q0 196 -15.5 300.5t-60.5 176.5q-43 73 -121.5 101t-218.5 28t-218 -28t-124 -101q-43 -72 -58 -177.5t-15 -299.5zM406 1729q37 119 75 157q39 39 117 39q49 0 145 -41q100 -41 131 -41q37 0 56.5 14.5t38.5 55.5q15 31 39 22l47 -12q31 -9 22 -47 q-37 -117 -76 -157t-114 -40q-48 0 -148 41t-131 41q-38 0 -56.5 -14t-37.5 -55q-16 -29 -39 -21l-47 12q-31 12 -22 46z" />
<glyph unicode="&#xd6;" horiz-adv-x="1482" d="M117 772q0 460 127 625q126 164 497 164q372 0 498 -164q127 -165 127 -625q0 -242 -27.5 -383.5t-99.5 -232.5q-70 -92 -185.5 -129t-312.5 -37q-196 0 -311.5 37t-187.5 129q-70 91 -97.5 232.5t-27.5 383.5zM326 772q0 -360 77 -481q76 -119 338 -119t338 119 q78 122 78 481q0 196 -15.5 300.5t-60.5 176.5q-43 73 -121.5 101t-218.5 28t-218 -28t-124 -101q-43 -72 -58 -177.5t-15 -299.5zM424 1802q0 121 129 121q123 0 123 -121q0 -125 -123 -125q-129 0 -129 125zM807 1802q0 121 127 121q125 0 125 -121q0 -125 -125 -125 q-127 0 -127 125z" />
<glyph unicode="&#xd7;" horiz-adv-x="1056" d="M121 356l276 275l-272 274q-23 23 -2 45l88 86q23 22 45 0l272 -272l275 274q21 22 43 0l88 -84q22 -22 0 -45l-277 -274l277 -275q22 -22 0 -45l-88 -88q-22 -23 -45 0l-275 275l-274 -275q-22 -23 -45 0l-84 84q-23 23 -2 45z" />
<glyph unicode="&#xd8;" horiz-adv-x="1482" d="M117 772q0 460 127 625q126 164 497 164q274 0 408 -84l53 73q23 29 43 9l70 -48q24 -15 6 -43l-66 -94q111 -164 111 -602q0 -242 -27.5 -383.5t-99.5 -232.5q-70 -92 -185.5 -129t-312.5 -37q-269 0 -401 78l-61 -84q-19 -29 -41 -7l-70 48q-23 14 -8 41l71 100 q-114 170 -114 606zM326 772q0 -291 45 -410l661 945q-89 71 -291 71q-140 0 -218 -28t-124 -101q-43 -72 -58 -177.5t-15 -299.5zM457 238q91 -66 284 -66q262 0 338 119q78 122 78 481q0 289 -41 404z" />
<glyph unicode="&#xd9;" horiz-adv-x="1529" d="M156 772v748q0 30 30 30h146q30 0 30 -30v-748q0 -245 35 -373q35 -124 118.5 -175.5t248.5 -51.5q242 0 321 119q82 119 82 481v748q0 30 31 30h145q31 0 31 -30v-748q0 -250 -26.5 -393t-96.5 -232t-180.5 -123t-306.5 -34q-152 0 -251 22t-173 72q-73 49 -113 143 q-71 181 -71 545zM471 1929v15q0 20 21 20h182q18 0 24 -12l150 -248q10 -16 -6 -29l-41 -26q-15 -12 -29 0l-291 256q-10 10 -10 24z" />
<glyph unicode="&#xda;" horiz-adv-x="1529" d="M156 772v748q0 30 30 30h146q30 0 30 -30v-748q0 -245 35 -373q35 -124 118.5 -175.5t248.5 -51.5q242 0 321 119q82 119 82 481v748q0 30 31 30h145q31 0 31 -30v-748q0 -250 -26.5 -393t-96.5 -232t-180.5 -123t-306.5 -34q-152 0 -251 22t-173 72q-73 49 -113 143 q-71 181 -71 545zM668 1704l149 248q6 12 25 12h182q20 0 20 -20v-15q0 -14 -10 -24l-291 -256q-14 -11 -28 0l-41 26q-16 13 -6 29z" />
<glyph unicode="&#xdb;" horiz-adv-x="1529" d="M156 772v748q0 30 30 30h146q30 0 30 -30v-748q0 -245 35 -373q35 -124 118.5 -175.5t248.5 -51.5q242 0 321 119q82 119 82 481v748q0 30 31 30h145q31 0 31 -30v-748q0 -250 -26.5 -393t-96.5 -232t-180.5 -123t-306.5 -34q-152 0 -251 22t-173 72q-73 49 -113 143 q-71 181 -71 545zM506 1702l180 248q8 14 35 14h88q25 0 33 -14l182 -248q12 -14 -6 -29l-37 -24q-15 -9 -31 0l-186 149l-186 -149q-14 -12 -29 0l-37 24q-19 13 -6 29z" />
<glyph unicode="&#xdc;" horiz-adv-x="1529" d="M156 772v748q0 30 30 30h146q30 0 30 -30v-748q0 -245 35 -373q35 -124 118.5 -175.5t248.5 -51.5q242 0 321 119q82 119 82 481v748q0 30 31 30h145q31 0 31 -30v-748q0 -250 -26.5 -393t-96.5 -232t-180.5 -123t-306.5 -34q-152 0 -251 22t-173 72q-73 49 -113 143 q-71 181 -71 545zM446 1802q0 121 129 121q123 0 123 -121q0 -125 -123 -125q-129 0 -129 125zM831 1802q0 121 125 121t125 -121q0 -125 -125 -125t-125 125z" />
<glyph unicode="&#xdd;" horiz-adv-x="1351" d="M16 1505q-23 45 23 45h160q36 0 55 -32l422 -822l424 822q14 32 55 32h158q45 0 22 -45l-555 -1034v-440q0 -31 -30 -31h-148q-31 0 -31 31v440zM588 1704l149 248q6 12 25 12h182q21 0 21 -20v-15q0 -13 -11 -24l-290 -256q-14 -12 -29 0l-41 26q-16 13 -6 29z" />
<glyph unicode="&#xde;" horiz-adv-x="1308" d="M168 31v1489q0 30 31 30h145q31 0 31 -30v-250q135 6 243 6q191 0 297.5 -19t178.5 -73q76 -54 106.5 -149.5t30.5 -260.5q0 -164 -30.5 -258.5t-106.5 -148.5q-73 -54 -179.5 -73.5t-296.5 -19.5q-96 0 -243 5v-248q0 -31 -31 -31h-145q-31 0 -31 31zM375 455h225 q263 0 340 57q82 58 82 262t-82 262q-79 58 -340 58h-225v-639z" />
<glyph unicode="&#xdf;" horiz-adv-x="1218" d="M141 31v1036q0 286 95 389q94 105 354 105t375 -95q114 -92 114 -336q0 -306 -174 -346v-6q215 -38 215 -368q0 -246 -123 -334q-121 -86 -383 -86q-65 0 -153 8q-37 3 -27 35l33 112q6 27 33 27h123q165 0 232 52t67 194q0 155 -71 213.5t-228 58.5h-140q-30 0 -30 31 v104q0 31 32 31h138q66 0 111 11t79.5 39t51 78t16.5 126q0 161 -66 215q-65 53 -225 53q-141 0 -197 -59q-53 -59 -53 -236v-1052q0 -31 -31 -31h-137q-31 0 -31 31z" />
<glyph unicode="&#xe0;" horiz-adv-x="1093" d="M72 319q0 173 86.5 244.5t275.5 71.5l330 2v137q0 97 -62 140.5t-204 43.5h-308q-19 0 -24.5 6t-5.5 25v84q0 17 5 22.5t23 10.5q144 24 310 24q240 0 351.5 -77t111.5 -244v-717q0 -43 -39 -57q-116 -45 -455 -45q-216 0 -305 65q-90 69 -90 264zM266 324 q0 -97 51.5 -131.5t184.5 -34.5q168 0 262 24v295h-326q-90 0 -131 -35t-41 -118zM283 1520v14q0 20 20 20h180q19 0 25 -12l149 -248q9 -16 -6 -28l-41 -27q-14 -11 -28 0l-289 256q-10 10 -10 25z" />
<glyph unicode="&#xe1;" horiz-adv-x="1093" d="M72 319q0 173 86.5 244.5t275.5 71.5l330 2v137q0 97 -62 140.5t-204 43.5h-308q-19 0 -24.5 6t-5.5 25v84q0 17 5 22.5t23 10.5q144 24 310 24q240 0 351.5 -77t111.5 -244v-717q0 -43 -39 -57q-116 -45 -455 -45q-216 0 -305 65q-90 69 -90 264zM266 324 q0 -97 51.5 -131.5t184.5 -34.5q168 0 262 24v295h-326q-90 0 -131 -35t-41 -118zM383 1294l149 248q6 12 25 12h182q21 0 21 -20v-14q0 -15 -10 -25l-291 -256q-15 -12 -29 0l-41 27q-15 12 -6 28z" />
<glyph unicode="&#xe2;" horiz-adv-x="1093" d="M72 319q0 173 86.5 244.5t275.5 71.5l330 2v137q0 97 -62 140.5t-204 43.5h-308q-19 0 -24.5 6t-5.5 25v84q0 17 5 22.5t23 10.5q144 24 310 24q240 0 351.5 -77t111.5 -244v-717q0 -43 -39 -57q-116 -45 -455 -45q-216 0 -305 65q-90 69 -90 264zM266 324 q0 -97 51.5 -131.5t184.5 -34.5q168 0 262 24v295h-326q-90 0 -131 -35t-41 -118zM272 1292l183 248q8 14 32 14h88q27 0 35 -14l181 -248q13 -13 -7 -28l-36 -25q-15 -12 -29 0l-187 150l-186 -150q-16 -9 -31 0l-36 25q-18 15 -7 28z" />
<glyph unicode="&#xe3;" horiz-adv-x="1093" d="M72 319q0 173 86.5 244.5t275.5 71.5l330 2v137q0 97 -62 140.5t-204 43.5h-308q-19 0 -24.5 6t-5.5 25v84q0 17 5 22.5t23 10.5q144 24 310 24q240 0 351.5 -77t111.5 -244v-717q0 -43 -39 -57q-116 -45 -455 -45q-216 0 -305 65q-90 69 -90 264zM197 1319 q37 119 73 158q39 39 117 39q48 0 148 -41t131 -41q37 0 56 14t38 55q13 32 39 23l47 -13q28 -9 22 -47q-37 -117 -75.5 -156.5t-116.5 -39.5q-48 0 -148 41q-96 41 -129 41q-38 0 -56.5 -14t-37.5 -56q-16 -29 -39 -20l-47 12q-31 9 -22 45zM266 324q0 -97 51.5 -131.5 t184.5 -34.5q168 0 262 24v295h-326q-90 0 -131 -35t-41 -118z" />
<glyph unicode="&#xe4;" horiz-adv-x="1093" d="M72 319q0 173 86.5 244.5t275.5 71.5l330 2v137q0 97 -62 140.5t-204 43.5h-308q-19 0 -24.5 6t-5.5 25v84q0 17 5 22.5t23 10.5q144 24 310 24q240 0 351.5 -77t111.5 -244v-717q0 -43 -39 -57q-116 -45 -455 -45q-216 0 -305 65q-90 69 -90 264zM215 1393 q0 120 127 120q125 0 125 -120q0 -125 -125 -125q-127 0 -127 125zM266 324q0 -97 51.5 -131.5t184.5 -34.5q168 0 262 24v295h-326q-90 0 -131 -35t-41 -118zM598 1393q0 120 125 120q127 0 127 -120q0 -125 -127 -125q-125 0 -125 125z" />
<glyph unicode="&#xe5;" horiz-adv-x="1093" d="M72 319q0 173 86.5 244.5t275.5 71.5l330 2v137q0 97 -62 140.5t-204 43.5h-308q-19 0 -24.5 6t-5.5 25v84q0 17 5 22.5t23 10.5q144 24 310 24q240 0 351.5 -77t111.5 -244v-717q0 -43 -39 -57q-116 -45 -455 -45q-216 0 -305 65q-90 69 -90 264zM266 324 q0 -97 51.5 -131.5t184.5 -34.5q168 0 262 24v295h-326q-90 0 -131 -35t-41 -118zM315 1448q0 209 217 209q218 0 218 -209t-218 -209q-217 0 -217 209zM406 1448q0 -127 126 -127q127 0 127 127t-127 127q-126 0 -126 -127z" />
<glyph unicode="&#xe6;" horiz-adv-x="1771" d="M72 319q0 173 86.5 244.5t277.5 71.5l330 2v137q0 97 -63 140.5t-205 43.5h-305q-19 0 -25 6t-6 25v84q0 17 5 22.5t23 10.5q144 24 308 24q268 0 374 -100q97 100 359 100q273 0 362 -108q92 -112 95 -432v-60q0 -33 -14 -45t-60 -12h-651q6 -190 57 -250 q52 -61 217 -61h336q31 0 31 -31v-90q0 -30 -29 -33q-135 -18 -344 -18q-90 0 -197 22q-97 23 -149 62q-159 -84 -416 -84q-215 0 -307 65q-90 69 -90 264zM268 324q0 -97 50.5 -131.5t183.5 -34.5q199 0 307 51q-43 90 -43 268h-326q-92 0 -132 -34.5t-40 -118.5zM963 633 h528q-3 199 -53 260q-50 65 -207 65q-164 0 -215 -63q-50 -65 -53 -262z" />
<glyph unicode="&#xe7;" horiz-adv-x="995" d="M109 559q0 189 18 289.5t70 165.5q54 67 140.5 91.5t246.5 24.5q176 0 311 -18q29 -3 29 -35v-88q0 -31 -31 -31h-309q-181 0 -230 -75q-49 -76 -49 -324q0 -245 49 -321t230 -76h309q31 0 31 -31v-88q0 -32 -29 -35q-94 -15 -254 -18q29 -110 29 -174q0 -86 -44.5 -121 t-144.5 -35q-80 0 -123 16q-24 9 -24 37v70q0 31 31 31h71q59 0 77.5 11t18.5 52q0 24 -16 115q-251 9 -330 123q-77 118 -77 444z" />
<glyph unicode="&#xe8;" horiz-adv-x="1114" d="M106 559q0 342 91 459q87 112 376 112q274 0 363 -108q91 -111 94 -432v-60q0 -33 -15 -45t-59 -12h-651q3 -189 55 -250t218 -61h335q31 0 31 -31v-90q0 -30 -29 -33q-135 -18 -342 -18q-288 0 -376 110q-91 117 -91 459zM285 1520v14q0 20 20 20h182q19 0 25 -12 l150 -248q9 -15 -7 -28l-41 -27q-14 -11 -28 0l-291 256q-10 10 -10 25zM303 633h531q-3 195 -54 262q-48 63 -207 63q-162 0 -215 -65q-52 -64 -55 -260z" />
<glyph unicode="&#xe9;" horiz-adv-x="1114" d="M106 559q0 342 91 459q87 112 376 112q274 0 363 -108q91 -111 94 -432v-60q0 -33 -15 -45t-59 -12h-651q3 -189 55 -250t218 -61h335q31 0 31 -31v-90q0 -30 -29 -33q-135 -18 -342 -18q-288 0 -376 110q-91 117 -91 459zM303 633h531q-3 195 -54 262q-48 63 -207 63 q-162 0 -215 -65q-52 -64 -55 -260zM453 1294l149 248q6 12 25 12h182q20 0 20 -20v-14q0 -15 -10 -25l-291 -256q-14 -11 -28 0l-41 27q-15 12 -6 28z" />
<glyph unicode="&#xea;" horiz-adv-x="1114" d="M106 559q0 342 91 459q87 112 376 112q274 0 363 -108q91 -111 94 -432v-60q0 -33 -15 -45t-59 -12h-651q3 -189 55 -250t218 -61h335q31 0 31 -31v-90q0 -30 -29 -33q-135 -18 -342 -18q-288 0 -376 110q-91 117 -91 459zM303 633h531q-3 195 -54 262q-48 63 -207 63 q-162 0 -215 -65q-52 -64 -55 -260zM311 1292l181 248q8 14 34 14h88q25 0 33 -14l182 -248q11 -14 -6 -28l-37 -25q-15 -9 -30 0l-187 150l-186 -150q-14 -12 -29 0l-37 25q-20 14 -6 28z" />
<glyph unicode="&#xeb;" horiz-adv-x="1114" d="M106 559q0 342 91 459q87 112 376 112q274 0 363 -108q91 -111 94 -432v-60q0 -33 -15 -45t-59 -12h-651q3 -189 55 -250t218 -61h335q31 0 31 -31v-90q0 -30 -29 -33q-135 -18 -342 -18q-288 0 -376 110q-91 117 -91 459zM252 1393q0 120 129 120q123 0 123 -120 q0 -125 -123 -125q-129 0 -129 125zM303 633h531q-3 195 -54 262q-48 63 -207 63q-162 0 -215 -65q-52 -64 -55 -260zM635 1393q0 120 127 120q125 0 125 -120q0 -125 -125 -125q-127 0 -127 125z" />
<glyph unicode="&#xec;" horiz-adv-x="477" d="M-61 1520v14q0 20 20 20h180q19 0 25 -12l149 -248q9 -16 -6 -28l-39 -27q-16 -9 -28 0l-291 256q-10 10 -10 25zM141 31v1059q0 30 31 30h133q31 0 31 -30v-1059q0 -31 -31 -31h-133q-31 0 -31 31z" />
<glyph unicode="&#xed;" horiz-adv-x="479" d="M141 31v1059q0 30 31 30h135q31 0 31 -30v-1059q0 -31 -31 -31h-135q-31 0 -31 31zM162 1294l149 248q6 12 25 12h180q21 0 21 -20v-14q0 -14 -11 -25l-290 -256q-13 -10 -29 0l-39 27q-15 12 -6 28z" />
<glyph unicode="&#xee;" horiz-adv-x="479" d="M-20 1292l182 248q8 14 35 14h86q26 0 34 -14l181 -248q14 -14 -6 -28l-35 -25q-15 -9 -31 0l-186 150l-187 -150q-15 -12 -30 0l-37 25q-17 14 -6 28zM141 31v1059q0 30 31 30h135q31 0 31 -30v-1059q0 -31 -31 -31h-135q-31 0 -31 31z" />
<glyph unicode="&#xef;" horiz-adv-x="479" d="M-78 1393q0 120 127 120q123 0 123 -120q0 -125 -123 -125q-127 0 -127 125zM141 31v1059q0 30 31 30h135q31 0 31 -30v-1059q0 -31 -31 -31h-135q-31 0 -31 31zM305 1393q0 120 125 120t125 -120q0 -125 -125 -125t-125 125z" />
<glyph unicode="&#xf0;" horiz-adv-x="1159" d="M104 506q0 164 20 255.5t73 151.5t138 83.5t236 23.5q71 0 129 -6l-147 246l-178 -64q-30 -12 -39 18l-21 54q-10 29 19 39l158 57l-89 147q-10 17 -4 27t25 10h145q26 0 37 -20l60 -103l178 66q30 12 39 -18l20 -54q10 -30 -18 -39l-158 -57l274 -463q56 -89 56 -354 q0 -165 -20 -257.5t-74 -152.5q-53 -60 -139.5 -83t-243.5 -23q-154 0 -241.5 23t-141.5 83q-53 60 -73 153t-20 257zM301 506q3 -212 51 -277q52 -67 228 -67q178 0 227 67q50 64 53 277q-3 215 -53 276q-50 68 -227 68q-175 0 -228 -68q-48 -65 -51 -276z" />
<glyph unicode="&#xf1;" horiz-adv-x="1204" d="M139 31v1034q0 13 4 20t9.5 9t17.5 4q157 32 426 32q157 0 231 -14q83 -13 142 -63q59 -48 80.5 -138.5t21.5 -263.5v-620q0 -31 -35 -31h-131q-31 0 -31 31v604q0 164 -32 248q-15 36 -51 51q-35 16 -67.5 20t-107.5 4h-280v-927q0 -31 -31 -31h-135q-31 0 -31 31z M270 1319q35 118 74 157.5t117 39.5q49 0 145 -41q100 -41 131 -41q37 0 56 14t38 55q16 32 39 23l48 -13q31 -9 22 -47q-37 -116 -76 -156t-114 -40q-48 0 -148 41t-131 41q-37 0 -56 -14.5t-38 -55.5q-13 -29 -37 -20l-49 12q-29 13 -21 45z" />
<glyph unicode="&#xf2;" horiz-adv-x="1165" d="M106 559q0 175 19 283q39 218 217 264q88 24 242 24q152 0 241 -24q179 -46 215 -264q19 -108 19 -283q0 -174 -19 -285q-17 -103 -72 -170t-143 -92q-93 -22 -241 -22q-151 0 -244 22q-176 50 -215 262q-19 111 -19 285zM270 1520v14q0 20 21 20h180q19 0 25 -12 l149 -248q9 -16 -6 -28l-41 -27q-14 -12 -29 0l-288 256q-11 11 -11 25zM303 559q0 -245 49 -321t232 -76q180 0 229 76t49 321q0 248 -49 324q-49 75 -229 75q-183 0 -232 -75q-49 -76 -49 -324z" />
<glyph unicode="&#xf3;" horiz-adv-x="1165" d="M106 559q0 175 19 283q39 218 217 264q88 24 242 24q152 0 241 -24q179 -46 215 -264q19 -108 19 -283q0 -174 -19 -285q-17 -103 -72 -170t-143 -92q-93 -22 -241 -22q-151 0 -244 22q-176 50 -215 262q-19 111 -19 285zM303 559q0 -245 49 -321t232 -76q180 0 229 76 t49 321q0 248 -49 324q-49 75 -229 75q-183 0 -232 -75q-49 -76 -49 -324zM500 1294l149 248q6 12 25 12h182q21 0 21 -20v-14q0 -7 -11 -25l-291 -256q-14 -11 -28 0l-41 27q-15 12 -6 28z" />
<glyph unicode="&#xf4;" horiz-adv-x="1165" d="M106 559q0 175 19 283q39 218 217 264q88 24 242 24q152 0 241 -24q179 -46 215 -264q19 -108 19 -283q0 -174 -19 -285q-17 -103 -72 -170t-143 -92q-93 -22 -241 -22q-151 0 -244 22q-176 50 -215 262q-19 111 -19 285zM303 559q0 -245 49 -321t232 -76q180 0 229 76 t49 321q0 248 -49 324q-49 75 -229 75q-183 0 -232 -75q-49 -76 -49 -324zM324 1292l182 248q8 14 33 14h88q27 0 35 -14l180 -248q11 -14 -6 -28l-37 -25q-15 -12 -29 0l-186 150l-189 -150q-14 -11 -28 0l-37 25q-17 14 -6 28z" />
<glyph unicode="&#xf5;" horiz-adv-x="1165" d="M106 559q0 175 19 283q39 218 217 264q88 24 242 24q152 0 241 -24q179 -46 215 -264q19 -108 19 -283q0 -174 -19 -285q-17 -103 -72 -170t-143 -92q-93 -22 -241 -22q-151 0 -244 22q-176 50 -215 262q-19 111 -19 285zM248 1319q37 118 74 158q39 39 116 39 q48 0 148 -41t131 -41q37 0 56 14t36 55q16 32 39 23l47 -13q32 -10 23 -47q-37 -117 -75 -156.5t-116 -39.5q-47 0 -147 41t-131 41q-37 0 -55.5 -14.5t-37.5 -55.5q-16 -29 -39 -20l-47 12q-31 9 -22 45zM303 559q0 -245 49 -321t232 -76q180 0 229 76t49 321 q0 248 -49 324q-49 75 -229 75q-183 0 -232 -75q-49 -76 -49 -324z" />
<glyph unicode="&#xf6;" horiz-adv-x="1165" d="M106 559q0 175 19 283q39 218 217 264q88 24 242 24q152 0 241 -24q179 -46 215 -264q19 -108 19 -283q0 -174 -19 -285q-17 -103 -72 -170t-143 -92q-93 -22 -241 -22q-151 0 -244 22q-176 50 -215 262q-19 111 -19 285zM266 1393q0 120 127 120q123 0 123 -120 q0 -125 -123 -125q-127 0 -127 125zM303 559q0 -245 49 -321t232 -76q180 0 229 76t49 321q0 248 -49 324q-49 75 -229 75q-183 0 -232 -75q-49 -76 -49 -324zM649 1393q0 120 125 120t125 -120q0 -125 -125 -125t-125 125z" />
<glyph unicode="&#xf7;" horiz-adv-x="1167" d="M98 567v123q0 31 31 31h909q31 0 31 -31v-123q0 -30 -31 -30h-909q-31 0 -31 30zM463 299q0 117 123 117q121 0 121 -117q0 -121 -121 -121q-123 0 -123 121zM463 961q0 116 123 116q121 0 121 -116q0 -121 -121 -121q-123 0 -123 121z" />
<glyph unicode="&#xf8;" horiz-adv-x="1165" d="M106 559q0 186 19.5 287.5t71.5 167.5q54 67 140.5 91.5t246.5 24.5q179 0 272 -34l33 45q22 29 43 8l69 -47q25 -16 7 -43l-35 -49q86 -109 86 -451q0 -189 -18.5 -289.5t-71.5 -165.5q-54 -66 -140 -90t-245 -24q-204 0 -295 45l-39 -55q-19 -29 -41 -7l-70 47 q-27 15 -8 41l47 68q-72 116 -72 430zM303 559q0 -168 14 -231l428 608q-61 22 -161 22q-183 0 -232 -75q-49 -76 -49 -324zM399 195q56 -33 185 -33q180 0 229 76t49 321q0 188 -22 262z" />
<glyph unicode="&#xf9;" horiz-adv-x="1206" d="M133 471v619q0 30 35 30h131q31 0 31 -30v-605q0 -125 11 -186t44 -92q35 -29 73.5 -37t129.5 -8h280v928q0 30 31 30h135q31 0 31 -30v-1037q0 -9 -1.5 -14.5t-7 -8.5t-9 -4t-13.5 -3q-165 -33 -426 -33q-152 0 -231 12q-82 15 -141 66q-60 49 -81.5 140t-21.5 263z M307 1520v14q0 20 21 20h182q19 0 25 -12l149 -248q9 -16 -6 -28l-41 -27q-15 -12 -29 0l-291 256q-10 10 -10 25z" />
<glyph unicode="&#xfa;" horiz-adv-x="1206" d="M133 471v619q0 30 35 30h131q31 0 31 -30v-605q0 -125 11 -186t44 -92q35 -29 73.5 -37t129.5 -8h280v928q0 30 31 30h135q31 0 31 -30v-1037q0 -9 -1.5 -14.5t-7 -8.5t-9 -4t-13.5 -3q-165 -33 -426 -33q-152 0 -231 12q-82 15 -141 66q-60 49 -81.5 140t-21.5 263z M496 1294l149 248q6 12 25 12h182q20 0 20 -20v-14q0 -15 -10 -25l-291 -256q-14 -11 -28 0l-41 27q-15 12 -6 28z" />
<glyph unicode="&#xfb;" horiz-adv-x="1206" d="M133 471v619q0 30 35 30h131q31 0 31 -30v-605q0 -125 11 -186t44 -92q35 -29 73.5 -37t129.5 -8h280v928q0 30 31 30h135q31 0 31 -30v-1037q0 -9 -1.5 -14.5t-7 -8.5t-9 -4t-13.5 -3q-165 -33 -426 -33q-152 0 -231 12q-82 15 -141 66q-60 49 -81.5 140t-21.5 263z M340 1292l182 248q8 14 33 14h88q27 0 35 -14l180 -248q14 -14 -6 -28l-35 -25q-15 -9 -31 0l-186 150l-186 -150q-15 -12 -31 0l-37 25q-17 14 -6 28z" />
<glyph unicode="&#xfc;" horiz-adv-x="1206" d="M133 471v619q0 30 35 30h131q31 0 31 -30v-605q0 -125 11 -186t44 -92q35 -29 73.5 -37t129.5 -8h280v928q0 30 31 30h135q31 0 31 -30v-1037q0 -9 -1.5 -14.5t-7 -8.5t-9 -4t-13.5 -3q-165 -33 -426 -33q-152 0 -231 12q-82 15 -141 66q-60 49 -81.5 140t-21.5 263z M281 1393q0 120 127 120q122 0 122 -120q0 -125 -122 -125q-127 0 -127 125zM664 1393q0 120 124 120q125 0 125 -120q0 -125 -125 -125q-124 0 -124 125z" />
<glyph unicode="&#xfd;" horiz-adv-x="1208" d="M131 549v541q0 30 31 30h133q31 0 31 -30v-529q0 -247 49 -323q52 -76 237 -76q152 0 258 14v914q0 30 31 30h135q31 0 31 -30v-988q0 -165 -19 -255.5t-71 -151.5q-53 -62 -141.5 -86.5t-241.5 -24.5q-163 0 -309 19q-29 3 -29 32v89q0 30 31 30h303q170 0 225 49 t55 191v12q-109 -16 -270 -16q-288 0 -379 110q-90 116 -90 449zM514 1294l150 248q6 12 24 12h182q21 0 21 -20v-14q0 -15 -10 -25l-291 -256q-15 -12 -29 0l-41 27q-15 12 -6 28z" />
<glyph unicode="&#xfe;" horiz-adv-x="1183" d="M141 -375v1893q0 30 31 30h133q31 0 31 -30v-402q104 14 272 14q154 0 240.5 -25.5t138.5 -92.5q52 -65 71 -167t19 -288q0 -342 -92 -457q-91 -110 -387 -110q-151 0 -262 12v-377q0 -31 -31 -31h-133q-31 0 -31 31zM336 178q141 -16 264 -16q182 0 231 76q50 77 50 321 q0 250 -50 324q-49 75 -233 75h-262v-780z" />
<glyph unicode="&#xff;" horiz-adv-x="1208" d="M131 549v541q0 30 31 30h133q31 0 31 -30v-529q0 -247 49 -323q52 -76 237 -76q152 0 258 14v914q0 30 31 30h135q31 0 31 -30v-988q0 -165 -19 -255.5t-71 -151.5q-53 -62 -141.5 -86.5t-241.5 -24.5q-163 0 -309 19q-29 3 -29 32v89q0 30 31 30h303q170 0 225 49 t55 191v12q-109 -16 -270 -16q-288 0 -379 110q-90 116 -90 449zM299 1393q0 120 127 120q125 0 125 -120q0 -125 -125 -125q-127 0 -127 125zM682 1393q0 120 127 120q125 0 125 -120q0 -125 -125 -125q-127 0 -127 125z" />
<glyph unicode="&#x152;" horiz-adv-x="2142" d="M117 772q0 242 27.5 385.5t97.5 237.5t186 131t313 35l713 -11h557q31 0 31 -30v-121q0 -31 -31 -31h-778v-526h709q30 0 30 -31v-119q0 -30 -30 -30h-709v-480h778q31 0 31 -30v-121q0 -31 -31 -31h-557l-713 -10q-195 -2 -312 35t-187 129q-70 91 -97.5 233.5 t-27.5 384.5zM326 772q0 -360 77 -481q76 -119 338 -119h283v1206h-283q-140 0 -218 -28t-124 -101q-43 -72 -58 -177.5t-15 -299.5z" />
<glyph unicode="&#x153;" horiz-adv-x="1871" d="M106 559q0 186 19.5 287.5t71.5 167.5q54 67 140.5 91.5t246.5 24.5q286 0 377 -110q94 110 370 110q275 0 363 -108q91 -111 94 -432v-60q0 -33 -15 -45t-61 -12h-651q6 -190 57 -250q52 -61 217 -61h336q31 0 31 -31v-90q0 -30 -29 -33q-135 -18 -342 -18 q-276 0 -370 110q-91 -110 -377 -110q-159 0 -246 24t-141 90q-52 66 -71.5 167.5t-19.5 287.5zM303 559q0 -245 49 -321t232 -76q182 0 231 76t49 321q0 248 -49 324q-49 75 -231 75q-183 0 -232 -75q-49 -76 -49 -324zM1061 633h530q-3 197 -53 262q-48 63 -207 63 q-162 0 -215 -65q-52 -64 -55 -260z" />
<glyph unicode="&#x178;" horiz-adv-x="1351" d="M16 1505q-23 45 23 45h160q36 0 55 -32l422 -822l424 822q14 32 55 32h158q45 0 22 -45l-555 -1034v-440q0 -31 -30 -31h-148q-31 0 -31 31v440zM358 1802q0 121 127 121q125 0 125 -121q0 -125 -125 -125q-127 0 -127 125zM741 1802q0 121 127 121q125 0 125 -121 q0 -125 -125 -125q-127 0 -127 125z" />
<glyph unicode="&#x2c6;" horiz-adv-x="1019" d="M250 1292l182 248q8 14 33 14h88q27 0 35 -14l180 -248q14 -14 -6 -28l-37 -25q-14 -12 -29 0l-186 150l-186 -150q-15 -9 -31 0l-37 25q-17 14 -6 28z" />
<glyph unicode="&#x2dc;" horiz-adv-x="1167" d="M250 1319q37 118 74 158q39 39 116 39q48 0 148 -41t131 -41q37 0 56 14t38 55q13 32 39 23l47 -13q29 -10 23 -47q-37 -117 -76 -156.5t-117 -39.5q-47 0 -147 41q-96 41 -129 41q-38 0 -57 -14t-38 -56q-16 -29 -39 -20l-47 12q-31 9 -22 45z" />
<glyph unicode="&#x2000;" horiz-adv-x="1033" />
<glyph unicode="&#x2001;" horiz-adv-x="2066" />
<glyph unicode="&#x2002;" horiz-adv-x="1033" />
<glyph unicode="&#x2003;" horiz-adv-x="2066" />
<glyph unicode="&#x2004;" horiz-adv-x="688" />
<glyph unicode="&#x2005;" horiz-adv-x="516" />
<glyph unicode="&#x2006;" horiz-adv-x="344" />
<glyph unicode="&#x2007;" horiz-adv-x="344" />
<glyph unicode="&#x2008;" horiz-adv-x="258" />
<glyph unicode="&#x2009;" horiz-adv-x="413" />
<glyph unicode="&#x200a;" horiz-adv-x="114" />
<glyph unicode="&#x2010;" horiz-adv-x="890" d="M133 502v121q0 30 33 30h559q31 0 31 -30v-121q0 -31 -31 -31h-559q-33 0 -33 31z" />
<glyph unicode="&#x2011;" horiz-adv-x="890" d="M133 502v121q0 30 33 30h559q31 0 31 -30v-121q0 -31 -31 -31h-559q-33 0 -33 31z" />
<glyph unicode="&#x2012;" horiz-adv-x="890" d="M133 502v121q0 30 33 30h559q31 0 31 -30v-121q0 -31 -31 -31h-559q-33 0 -33 31z" />
<glyph unicode="&#x2013;" horiz-adv-x="1271" d="M133 502v121q0 30 33 30h940q31 0 31 -30v-121q0 -31 -31 -31h-940q-33 0 -33 31z" />
<glyph unicode="&#x2014;" horiz-adv-x="1849" d="M133 502v121q0 30 33 30h1517q31 0 31 -30v-121q0 -31 -31 -31h-1517q-33 0 -33 31z" />
<glyph unicode="&#x2018;" horiz-adv-x="524" d="M78 1014v28q0 10 10 27l281 469q13 19 28 10l47 -26q15 -9 7 -29l-142 -483q-7 -17 -26 -17h-185q-20 0 -20 21z" />
<glyph unicode="&#x2019;" horiz-adv-x="509" d="M88 1049l141 485q6 16 27 16h184q21 0 21 -20v-29q0 -9 -10 -26l-279 -469q-16 -20 -31 -11l-47 25q-15 9 -6 29z" />
<glyph unicode="&#x201a;" horiz-adv-x="495" d="M12 -258l144 483q6 19 24 19h187q20 0 20 -21v-28q0 -10 -10 -27l-281 -469q-13 -19 -28 -10l-50 24q-15 9 -6 29z" />
<glyph unicode="&#x201c;" horiz-adv-x="907" d="M78 1014v28q0 10 10 27l281 469q13 19 28 10l49 -26q15 -9 7 -29l-142 -483q-7 -17 -26 -17h-187q-20 0 -20 21zM459 1014v28q0 10 10 27l281 469q13 19 28 10l49 -26q15 -9 7 -29l-142 -483q-7 -17 -26 -17h-187q-20 0 -20 21z" />
<glyph unicode="&#x201d;" horiz-adv-x="917" d="M88 1049l141 485q6 16 27 16h184q21 0 21 -20v-29q0 -9 -10 -26l-279 -469q-16 -20 -31 -11l-47 25q-15 9 -6 29zM496 1049l141 485q6 16 27 16h184q20 0 20 -20v-29q0 -9 -10 -26l-280 -469q-14 -20 -29 -11l-47 25q-15 9 -6 29z" />
<glyph unicode="&#x201e;" horiz-adv-x="894" d="M14 -258l142 483q6 19 26 19h185q20 0 20 -21v-28q0 -10 -10 -27l-281 -469q-13 -19 -28 -10l-48 24q-15 9 -6 29zM412 -258l141 483q6 19 27 19h186q20 0 20 -21v-28q0 -10 -10 -27l-280 -469q-13 -20 -29 -10l-49 24q-15 9 -6 29z" />
<glyph unicode="&#x2022;" horiz-adv-x="1146" d="M258 594q0 133 83 206.5t232 73.5q147 0 230.5 -74.5t83.5 -205.5q0 -133 -83 -208t-231 -75q-149 0 -232 74.5t-83 208.5z" />
<glyph unicode="&#x2026;" horiz-adv-x="1226" d="M106 111q0 116 121 116t121 -116q0 -121 -121 -121t-121 121zM492 111q0 116 120 116q121 0 121 -116q0 -121 -121 -121q-120 0 -120 121zM877 111q0 116 122 116q121 0 121 -116q0 -121 -121 -121q-122 0 -122 121z" />
<glyph unicode="&#x202f;" horiz-adv-x="413" />
<glyph unicode="&#x2039;" horiz-adv-x="634" d="M80 520v78q0 21 14 41l228 297q15 18 36 18h134q30 0 30 -30v-15q0 -23 -14 -37l-252 -313l252 -311q14 -14 14 -37v-14q0 -31 -30 -31h-134q-21 0 -36 18l-228 297q-14 14 -14 39z" />
<glyph unicode="&#x203a;" horiz-adv-x="634" d="M113 197v14q0 23 14 37l252 311l-252 313q-14 14 -14 37v15q0 30 30 30h133q22 0 37 -18l230 -297q12 -21 12 -41v-78q0 -21 -12 -39l-230 -297q-15 -18 -37 -18h-133q-30 0 -30 31z" />
<glyph unicode="&#x205f;" horiz-adv-x="516" />
<glyph unicode="&#x20ac;" horiz-adv-x="1310" d="M55 623l21 69q6 31 39 31h174v51v72h-144q-30 0 -24 31l20 69q9 31 39 31h115q21 330 156 459q131 125 462 125q137 0 281 -21q40 -3 31 -43l-27 -88q-12 -31 -33 -31h-252q-221 0 -307 -86q-87 -84 -102 -315h536q34 0 25 -31l-21 -69q-6 -31 -36 -31h-510v-72v-51h477 q28 0 22 -31l-18 -69q-9 -31 -39 -31h-438q15 -241 100 -332q85 -88 311 -88h275q31 0 31 -31v-96q0 -31 -31 -37q-132 -18 -275 -18q-336 0 -469 127q-130 127 -151 475h-215q-32 0 -23 31z" />
<glyph unicode="&#x2122;" horiz-adv-x="2027" d="M55 1417v111q0 20 17 20h698q21 0 21 -20v-111q0 -16 -21 -16h-264v-780q0 -17 -17 -17h-135q-16 0 -16 17v780h-266q-17 0 -17 16zM829 623l84 907q3 18 17 18h133q45 0 63 -47l240 -633l244 633q18 47 63 47h129q17 0 17 -22l88 -903q0 -19 -19 -19h-133q-15 0 -18 19 l-56 624l-235 -598q-6 -16 -27 -16h-104q-19 0 -25 16l-235 600l-58 -626q0 -19 -16 -19h-133q-19 0 -19 19z" />
<glyph unicode="&#x25fc;" horiz-adv-x="1116" d="M0 0v1116h1116v-1116h-1116z" />
</font>
</defs>
</svg>
