<?xml version="1.0" standalone="no"?>
<!DOCTYPE svg PUBLIC "-//W3C//DTD SVG 1.1//EN" "http://www.w3.org/Graphics/SVG/1.1/DTD/svg11.dtd" >
<svg xmlns="http://www.w3.org/2000/svg" xmlns:xlink="http://www.w3.org/1999/xlink" version="1.1">
<metadata></metadata>
<defs>
<font id="univia_proultra" horiz-adv-x="1284" >
<font-face units-per-em="2048" ascent="1638" descent="-410" />
<missing-glyph horiz-adv-x="380" />
<glyph unicode="&#xfb01;" horiz-adv-x="1517" d="M31 893v244q0 30 37 30h120v127q0 199 103 267q100 69 311 69q69 0 195 -24q37 -6 37 -45v-246q0 -33 -37 -33h-142q-35 0 -48 -11t-13 -42v-62h792q31 0 31 -32v-1102q0 -33 -31 -33h-344q-30 0 -30 33v827h-418v-827q0 -33 -31 -33h-344q-31 0 -31 33v827h-120 q-37 0 -37 33zM983 1485q0 97 62 152t172 55q109 0 170 -55t61 -152q0 -98 -61 -153.5t-170 -55.5q-110 0 -172 55.5t-62 153.5z" />
<glyph unicode="&#xfb02;" horiz-adv-x="1495" d="M31 893v244q0 30 37 30h120v127q0 209 113 273q111 63 438 63q284 0 625 -33q31 -3 31 -32v-1532q0 -33 -31 -33h-344q-31 0 -31 33v1249h-334q-35 0 -48 -11t-13 -42v-62h209q19 0 23.5 -6t0.5 -26l-45 -242q-6 -33 -37 -33h-151v-827q0 -33 -31 -33h-344q-31 0 -31 33 v827h-120q-37 0 -37 33z" />
<glyph unicode="&#xfb03;" horiz-adv-x="2408" d="M31 893v244q0 30 37 30h120v127q0 199 103 267q100 69 311 69q91 0 223 -24q37 -6 37 -45v-246q0 -33 -37 -33h-170q-35 0 -48 -11t-13 -42v-62h485v127q0 199 103 267q100 69 311 69q87 0 219 -24q37 -6 37 -45v-246q0 -33 -37 -33h-166q-35 0 -48 -11t-13 -42v-62h792 q31 0 31 -32v-1102q0 -33 -31 -33h-344q-30 0 -30 33v827h-418v-827q0 -33 -31 -33h-344q-31 0 -31 33v827h-485v-827q0 -33 -31 -33h-344q-31 0 -31 33v827h-120q-37 0 -37 33zM1874 1485q0 97 61.5 152t171.5 55q109 0 170.5 -55t61.5 -152q0 -98 -61.5 -153.5 t-170.5 -55.5q-110 0 -171.5 55.5t-61.5 153.5z" />
<glyph unicode="&#xfb04;" horiz-adv-x="2385" d="M31 893v244q0 30 37 30h120v127q0 199 103 267q100 69 311 69q102 0 234 -24q36 -6 36 -45v-246q0 -33 -36 -33h-181q-35 0 -48 -11t-13 -42v-62h485v127q0 209 113 273q111 63 438 63q284 0 625 -33q31 -3 31 -32v-1532q0 -33 -31 -33h-344q-31 0 -31 33v1249h-334 q-35 0 -48 -11t-13 -42v-62h184q19 0 24 -6t1 -26l-45 -242q-6 -33 -37 -33h-127v-827q0 -33 -31 -33h-344q-31 0 -31 33v827h-485v-827q0 -33 -31 -33h-344q-31 0 -31 33v827h-120q-37 0 -37 33z" />
<glyph horiz-adv-x="0" />
<glyph horiz-adv-x="682" />
<glyph unicode=" "  horiz-adv-x="380" />
<glyph unicode="&#x09;" horiz-adv-x="380" />
<glyph unicode="&#xa0;" horiz-adv-x="380" />
<glyph unicode="!" horiz-adv-x="647" d="M90 199q0 97 62 152t172 55q109 0 170 -55t61 -152q0 -98 -61 -153.5t-170 -55.5q-110 0 -172 55.5t-62 153.5zM98 928v657q0 35 31 35h389q31 0 31 -35v-657q0 -1 -4 -37l-90 -346q-9 -35 -31 -35h-201q-21 0 -30 35l-91 346q-4 36 -4 37z" />
<glyph unicode="&#x22;" horiz-adv-x="1234" d="M68 1303v282q0 35 30 35h389q31 0 31 -35v-282q0 -1 -4 -37l-90 -346q-9 -35 -31 -35h-200q-22 0 -31 35l-90 346q-4 36 -4 37zM717 1303v282q0 35 31 35h389q30 0 30 -35v-282q0 -1 -4 -37l-90 -346q-9 -35 -31 -35h-200q-22 0 -31 35l-90 346q-4 36 -4 37z" />
<glyph unicode="#" horiz-adv-x="1540" d="M86 371v307q0 31 33 31h135v194h-135q-33 0 -33 31v307q0 31 33 31h135v315q0 33 31 33h344q30 0 30 -33v-315h199v315q0 33 31 33h344q31 0 31 -33v-315h161q33 0 33 -31v-307q0 -31 -33 -31h-161v-194h161q33 0 33 -31v-307q0 -31 -33 -31h-161v-307q0 -33 -31 -33 h-344q-31 0 -31 33v307h-199v-307q0 -33 -30 -33h-344q-31 0 -31 33v307h-135q-33 0 -33 31zM659 709h199v194h-199v-194z" />
<glyph unicode="$" horiz-adv-x="1316" d="M70 170v223q0 43 49 43h624q86 0 86 56v12q0 21 -7.5 33t-30.5 22q-46 22 -101 39l-315 98q-149 47 -219 138q-72 97 -72 296v39q0 184 115.5 277t367.5 106v127q0 33 31 33h143q31 0 31 -33v-125q170 -6 373 -47q45 -12 45 -41v-241q0 -41 -47 -41h-541 q-49 0 -66.5 -14.5t-17.5 -51.5v-8q0 -59 90 -86l326 -104q93 -32 144 -58t96 -71q90 -90 90 -291v-45q0 -343 -492 -383v-129q0 -33 -31 -33h-143q-31 0 -31 33v123q-188 6 -452 53q-45 9 -45 51z" />
<glyph unicode="%" horiz-adv-x="1959" d="M49 1204q0 259 80 342q80 86 324 86q243 0 323 -86q82 -82 82 -342q0 -258 -82 -340q-81 -84 -323 -84q-240 0 -324 84q-80 83 -80 340zM340 1204q0 -106 22.5 -141t90.5 -35q69 0 91.5 35t22.5 141q0 109 -22.5 144.5t-91.5 35.5q-68 0 -90.5 -36t-22.5 -144zM469 31 l819 1560q16 31 49 31h131q28 0 13 -31l-819 -1560q-16 -31 -48 -31h-131q-29 0 -14 31zM1102 414q0 259 80 342q80 86 323 86q244 0 324 -86q82 -82 82 -342q0 -258 -82 -340q-81 -84 -324 -84q-239 0 -323 84q-80 83 -80 340zM1393 414q0 -106 22.5 -141t89.5 -35 q69 0 92 35t23 141q0 109 -23 144.5t-92 35.5q-68 0 -90 -35.5t-22 -144.5z" />
<glyph unicode="&#x26;" horiz-adv-x="1415" d="M90 383v141q0 247 229 287q-229 40 -229 287v141q0 185 111 281q146 112 456 112q228 0 390 -43q33 -11 46 -25t13 -44v-230q0 -33 -31 -33h-356q-117 0 -158 -24.5t-41 -97.5v-25q0 -75 44 -104t155 -29h579q37 0 37 -31v-205q0 -23 -37 -32l-135 -35v-258 q0 -60 23.5 -79.5t87.5 -19.5h57q37 0 37 -32v-226q0 -36 -37 -45q-89 -24 -180 -24q-69 0 -92 2q-38 2 -86 18.5t-72 44.5q-121 -65 -313 -65q-69 0 -131.5 9t-131.5 35t-119 67.5t-83 114t-33 167.5zM520 487q0 -72 35.5 -97t130.5 -25q72 0 131 20v274h-131 q-93 0 -129.5 -29t-36.5 -104v-39z" />
<glyph unicode="'" horiz-adv-x="585" d="M68 1303v282q0 35 30 35h389q31 0 31 -35v-282q0 -1 -4 -37l-90 -346q-9 -35 -31 -35h-200q-22 0 -31 35l-90 346q-4 36 -4 37z" />
<glyph unicode="(" horiz-adv-x="780" d="M70 690q0 336 57 510q59 178 279 492q12 18 36 18h312q20 0 20 -20v-21q0 -19 -8 -27q-127 -191 -178 -280q-58 -108 -92 -219q-33 -108 -39 -199q-6 -83 -6 -256q0 -214 16 -336q15 -111 80 -250q59 -127 219 -368q8 -8 8 -27v-20q0 -21 -20 -21h-312q-20 0 -36 19 q-131 178 -185 274q-68 116 -100 229q-34 118 -43 220q-8 91 -8 282z" />
<glyph unicode=")" horiz-adv-x="780" d="M6 -293q0 19 8 27q153 231 217 368q68 145 82 250q17 129 17 336q0 174 -6 256q-6 91 -39 199q-34 111 -95 219q-46 85 -176 280q-8 8 -8 27v21q0 20 21 20h311q25 0 37 -18q219 -311 278 -492q58 -177 58 -510q0 -180 -9 -282t-43 -220q-32 -113 -100 -229 q-58 -102 -184 -274q-16 -19 -37 -19h-311q-21 0 -21 21v20z" />
<glyph unicode="*" horiz-adv-x="907" d="M49 1305l57 172q9 31 39 18l201 -82l-16 215q-3 33 30 33h185q30 0 30 -33l-20 -211l205 78q33 12 39 -18l51 -174q10 -29 -23 -39l-200 -54l137 -176q22 -22 -6 -43l-142 -96q-28 -19 -43 8l-116 176l-131 -184q-18 -28 -43 -6l-138 108q-25 19 -4 43l135 164l-206 62 q-30 6 -21 39z" />
<glyph unicode="+" horiz-adv-x="1183" d="M53 494v292q0 31 31 31h319v303q0 31 31 31h318q30 0 30 -31v-303h318q30 0 30 -31v-292q0 -31 -30 -31h-318v-301q0 -31 -30 -31h-318q-31 0 -31 31v301h-319q-31 0 -31 31z" />
<glyph unicode="," horiz-adv-x="649" d="M-45 -309l162 563q6 18 22 18h426q21 0 21 -20v-64q0 -12 -11 -30l-450 -564q-12 -15 -31 -6l-133 74q-12 9 -6 29z" />
<glyph unicode="-" horiz-adv-x="968" d="M98 494v313q0 31 33 31h707q32 0 32 -31v-313q0 -31 -32 -31h-707q-33 0 -33 31z" />
<glyph unicode="." horiz-adv-x="575" d="M55 199q0 97 62 152t172 55q109 0 170 -55t61 -152q0 -98 -61 -153.5t-170 -55.5q-110 0 -172 55.5t-62 153.5z" />
<glyph unicode="/" horiz-adv-x="1081" d="M41 -70l774 1743q15 35 45 35h160q31 0 16 -35l-772 -1743q-18 -34 -45 -34h-162q-31 0 -16 34z" />
<glyph unicode="0" horiz-adv-x="1445" d="M78 807q0 254 28.5 402.5t100.5 246.5q72 97 192 136.5t324 39.5t324 -39.5t192 -136.5q72 -98 100.5 -246.5t28.5 -402.5q0 -252 -28.5 -400.5t-100.5 -244.5t-192 -134t-324 -38t-324 38t-192 134t-100.5 244.5t-28.5 400.5zM508 807q0 -260 43 -350q47 -92 172 -92 q126 0 170 92q45 89 45 350q0 265 -45 356q-43 94 -170 94q-126 0 -172 -94q-43 -93 -43 -356z" />
<glyph unicode="1" horiz-adv-x="1075" d="M66 1317v246q0 39 36 45q132 24 254 24q212 0 312 -69q102 -67 102 -267v-921h252q33 0 33 -31v-313q0 -31 -33 -31h-911q-33 0 -33 31l-2 313q0 31 33 31h256v811q0 60 -23.5 79t-87.5 19h-152q-36 0 -36 33z" />
<glyph unicode="2" horiz-adv-x="1323" d="M49 57v185q0 74 37 161q8 21 57 70q42 42 66 62l100 79l391 308q50 38 67 75t17 105v16q0 83 -45 109q-47 30 -194 30h-412q-31 0 -31 33v230q0 30 13 44t47 25q162 43 442 43q138 0 237 -16.5t187 -56.5q91 -38 138.5 -120t47.5 -200v-223q0 -71 -5 -107t-25 -88 q-19 -51 -66.5 -100t-134.5 -115l-270 -198q-19 -13 -19 -25v-6h543q16 0 16 -12v-353q0 -12 -14 -12h-1133q-57 0 -57 57z" />
<glyph unicode="3" horiz-adv-x="1320" d="M76 102v230q0 33 30 33h455q144 0 193 22q47 24 47 100v25q0 77 -49 104q-50 29 -191 29h-340q-31 0 -31 33v266q0 33 31 33h340q145 0 191 27q49 27 49 106v25q0 77 -47 98q-47 24 -193 24h-455q-30 0 -30 33v230q0 30 13 44t46 25q162 43 486 43q137 0 236 -16.5 t187 -56.5q91 -38 139 -120t48 -200v-141q0 -247 -230 -287q230 -40 230 -287v-141q0 -237 -187 -322q-168 -71 -423 -71q-324 0 -486 43q-33 11 -46 25t-13 44z" />
<glyph unicode="4" horiz-adv-x="1452" d="M39 414v231q0 25 14 74l246 880q6 21 37 21h366q32 0 23 -37l-223 -827h256v297q0 30 33 39l364 116q33 9 33 -30v-422h201q32 0 32 -31v-313q0 -31 -32 -31h-201v-348q0 -33 -31 -33h-369q-30 0 -30 33v348h-688q-31 0 -31 33z" />
<glyph unicode="5" horiz-adv-x="1318" d="M90 102v230q0 33 31 33h454q147 0 195 28q45 29 45 111v12q0 83 -45 109q-46 30 -195 30h-413q-40 0 -56 14t-16 46v256l57 618q3 31 33 31h996q32 0 32 -31v-313q0 -31 -32 -31h-680l-21 -231q91 16 225 16q545 0 545 -393v-254q0 -237 -186 -322q-168 -71 -424 -71 q-323 0 -485 43q-34 11 -47 25t-13 44z" />
<glyph unicode="6" horiz-adv-x="1335" d="M59 383v254q0 95 33 168l402 792q12 21 36 21h383q39 0 21 -37l-291 -584q73 9 129 9q249 0 385.5 -93.5t136.5 -275.5v-254q0 -236 -182 -322q-85 -40 -184 -55.5t-240 -15.5q-219 0 -366 43q-127 40 -195 124.5t-68 225.5zM489 504q0 -85 33 -111q36 -28 166 -28 q70 0 104 6.5t50 25.5q16 22 19 38.5t3 68.5v12q0 52 -3 69t-19 36q-16 22 -48.5 28t-105.5 6q-130 0 -166 -28q-33 -26 -33 -111v-12z" />
<glyph unicode="7" horiz-adv-x="1302" d="M39 1274v315q0 31 33 31h1173q31 0 31 -31v-239q0 -25 -14 -47l-691 -1283q-11 -20 -36 -20h-433q-38 0 -20 37l668 1208h-678q-33 0 -33 29z" />
<glyph unicode="8" horiz-adv-x="1413" d="M63 430q0 146 67 239t216 160q-127 60 -179 143.5t-52 215.5q0 226 141 334t436 108h37q295 0 435.5 -108.5t140.5 -335.5q0 -139 -55.5 -231t-174.5 -154q143 -57 208 -145t65 -228q0 -222 -154 -330t-469 -108h-39q-315 0 -469 108.5t-154 331.5zM494 518 q0 -73 53.5 -113t148.5 -40h19q203 0 203 112q0 103 -130 141l-151 46q-79 -25 -111 -59.5t-32 -86.5zM547 1141q0 -103 129 -144l102 -28q96 47 96 155q0 131 -155 131h-17q-155 0 -155 -114z" />
<glyph unicode="9" horiz-adv-x="1335" d="M41 981v254q0 235 182 321q85 40 184.5 56t239.5 16q222 0 367 -45q262 -77 262 -348v-254q0 -95 -33 -168l-401 -793q-11 -20 -37 -20h-383q-39 0 -21 37l291 584q-74 -9 -129 -9q-249 0 -385.5 93.5t-136.5 275.5zM471 1102q0 -50 3.5 -67.5t19.5 -39.5 q16 -19 49.5 -25.5t103.5 -6.5q130 0 166 28q33 26 33 111v12q0 85 -33 111q-36 28 -166 28q-73 0 -105 -6t-48 -28q-16 -19 -19.5 -36.5t-3.5 -68.5v-12z" />
<glyph unicode=":" horiz-adv-x="634" d="M84 199q0 97 61.5 152t171.5 55q109 0 170.5 -55t61.5 -152q0 -98 -61.5 -153.5t-170.5 -55.5q-110 0 -171.5 55.5t-61.5 153.5zM84 979q0 97 61.5 152t171.5 55q109 0 170.5 -55t61.5 -152q0 -98 -61.5 -153.5t-170.5 -55.5q-110 0 -171.5 55.5t-61.5 153.5z" />
<glyph unicode=";" horiz-adv-x="690" d="M-45 -309l162 563q6 18 22 18h426q21 0 21 -20v-64q0 -12 -11 -30l-450 -564q-12 -15 -31 -6l-133 74q-12 9 -6 29zM139 979q0 97 62 152t172 55q109 0 170 -55t61 -152q0 -98 -61 -153.5t-170 -55.5q-110 0 -172 55.5t-62 153.5z" />
<glyph unicode="&#x3c;" horiz-adv-x="1236" d="M45 612v222q0 24 23 34l950 412q16 8 39 8h51q31 0 31 -31v-313q0 -24 -25 -37l-471 -184l471 -184q25 -13 25 -37v-314q0 -30 -31 -30h-51q-23 0 -39 8l-950 412q-23 10 -23 34z" />
<glyph unicode="=" horiz-adv-x="1357" d="M102 197v307q0 31 31 31h1092q30 0 30 -31v-307q0 -31 -30 -31h-1092q-31 0 -31 31zM102 768v307q0 31 31 31h1092q30 0 30 -31v-307q0 -31 -30 -31h-1092q-31 0 -31 31z" />
<glyph unicode="&#x3e;" horiz-adv-x="1236" d="M98 188v314q0 24 25 37l471 184l-471 184q-25 13 -25 37v313q0 31 31 31h51q23 0 39 -8l950 -412q23 -10 23 -34v-222q0 -24 -23 -34l-950 -412q-16 -8 -39 -8h-51q-31 0 -31 30z" />
<glyph unicode="?" horiz-adv-x="1173" d="M51 1290v230q0 30 13 44t47 25q162 43 403 43q138 0 237 -16.5t187 -56.5q91 -38 138.5 -120t47.5 -200v-113q0 -163 -49 -239q-46 -76 -176 -135l-209 -101q-101 -46 -110 -94l-5 -18q-3 -29 -32 -29h-256q-27 0 -33 29l-16 92q-18 110 18 170q37 61 174 137l158 84 q60 32 83 56t23 61v16q0 62 -37 82t-149 20h-426q-31 0 -31 33zM180 199q0 97 62 152t172 55q109 0 170 -55t61 -152q0 -98 -61 -153.5t-170 -55.5q-110 0 -172 55.5t-62 153.5z" />
<glyph unicode="@" horiz-adv-x="2064" d="M66 631q0 509 236 749t738 240q491 0 724 -207t233 -643q0 -312 -144 -465t-370 -162h-449q-106 0 -139 2q-153 5 -203 33q-131 71 -121 240v53q3 175 95 234t307 59h166v10q0 86 -105 86h-366q-25 0 -25 27v211q0 22 25 28q155 31 366 31q300 0 383 -96 q41 -48 55.5 -97.5t14.5 -132.5v-575q177 -2 280 132t103 382q0 375 -202.5 553t-627.5 178q-438 0 -644 -211.5t-206 -658.5q0 -438 193 -649t600 -215q21 0 21 -21v-80q0 -20 -21 -20q-472 5 -694.5 244t-222.5 741zM911 479q0 -37 21 -51t80 -14h127v151h-129 q-58 0 -78.5 -14.5t-20.5 -48.5v-23z" />
<glyph unicode="A" horiz-adv-x="1519" d="M-4 33l369 1349q46 169 112 211q62 39 283 39q217 0 282 -41q67 -42 113 -209l369 -1349q6 -33 -27 -33h-358q-13 0 -18 6t-11 27l-109 401h-483l-108 -401q-5 -20 -10 -26.5t-19 -6.5h-358q-33 0 -27 33zM612 782h295l-133 484q-4 12 -16 12t-17 -12z" />
<glyph unicode="B" horiz-adv-x="1464" d="M123 45v1532q0 24 31 27q316 28 616 28q331 0 463 -102q133 -103 133 -346q0 -187 -61 -269q-62 -83 -215 -104v-6q172 -12 239 -94q70 -79 70 -273q0 -245 -133 -348q-129 -100 -463 -100q-333 0 -649 28q-31 3 -31 27zM553 365h203q115 0 161 32.5t46 114.5 q0 83 -46.5 118.5t-160.5 35.5h-203v-301zM553 958h170q114 0 160.5 34.5t46.5 115.5q0 80 -46.5 114.5t-160.5 34.5h-170v-299z" />
<glyph unicode="C" horiz-adv-x="1310" d="M76 813q0 252 31.5 401t109.5 244q80 96 207.5 135t341.5 39q262 0 424 -43q33 -11 46 -25t13 -44v-230q0 -33 -30 -33h-453q-155 0 -205 -92q-49 -91 -49 -352q0 -262 49 -356q50 -92 205 -92h453q30 0 30 -33v-230q0 -31 -13.5 -46t-45.5 -23q-148 -43 -424 -43 q-405 0 -549 172q-141 172 -141 651z" />
<glyph unicode="D" horiz-adv-x="1538" d="M123 41v1536q0 24 31 27q316 28 622 28q376 0 531 -192q159 -194 159 -633q0 -433 -159 -627q-156 -190 -531 -190q-306 0 -622 28q-26 4 -29 9q-2 4 -2 14zM553 365h223q138 0 196 102.5t58 339.5q0 241 -58 345.5t-196 104.5h-223v-892z" />
<glyph unicode="E" horiz-adv-x="1361" d="M123 33v1554q0 33 31 33h1091q33 0 33 -31v-313q0 -31 -33 -31h-692v-258h637q33 0 33 -31v-292q0 -31 -33 -31h-637v-258h692q33 0 33 -31v-313q0 -31 -33 -31h-1091q-31 0 -31 33z" />
<glyph unicode="F" horiz-adv-x="1257" d="M123 33v1554q0 33 31 33h1022q32 0 32 -31v-313q0 -31 -32 -31h-623v-260h567q33 0 33 -31v-292q0 -31 -33 -31h-567v-598q0 -33 -31 -33h-368q-31 0 -31 33z" />
<glyph unicode="G" horiz-adv-x="1443" d="M76 811q0 252 31.5 402.5t109.5 246.5q80 96 207 134t342 38q331 0 479 -43q33 -8 46.5 -22.5t13.5 -46.5v-230q0 -33 -31 -33h-508q-157 0 -207 -92q-47 -89 -47 -354q0 -260 49 -354q50 -92 205 -92h203v395q0 35 30 35h340q31 0 31 -35v-553q0 -41 -12 -62 q-43 -63 -207 -110q-158 -45 -385 -45q-405 0 -549 170q-141 172 -141 651z" />
<glyph unicode="H" horiz-adv-x="1636" d="M123 35v1550q0 35 31 35h368q31 0 31 -35v-596h530v596q0 35 31 35h369q30 0 30 -35v-1550q0 -35 -30 -35h-369q-31 0 -31 35v575h-530v-575q0 -35 -31 -35h-368q-31 0 -31 35z" />
<glyph unicode="I" horiz-adv-x="675" d="M123 35v1550q0 35 31 35h368q31 0 31 -35v-1550q0 -35 -31 -35h-368q-31 0 -31 35z" />
<glyph unicode="J" horiz-adv-x="1232" d="M25 96v238q0 31 30 31h375q159 0 211 81q53 83 53 326v473h-336q-34 0 -34 31v313q0 31 32 31h738q30 0 30 -31v-817q0 -453 -145 -618q-144 -164 -549 -164q-191 0 -346 41q-33 8 -46 21.5t-13 43.5z" />
<glyph unicode="K" horiz-adv-x="1501" d="M123 33v1554q0 33 31 33h368q31 0 31 -33v-657l432 669q15 21 43 21h406q41 0 18 -39l-461 -702l527 -824q11 -18 11 -30q0 -25 -46 -25h-410q-32 0 -45 23l-475 759v-749q0 -33 -31 -33h-368q-31 0 -31 33z" />
<glyph unicode="L" horiz-adv-x="1222" d="M123 33v1554q0 33 31 33h368q31 0 31 -33v-1212h604q33 0 33 -31v-313q0 -31 -33 -31h-1003q-31 0 -31 33z" />
<glyph unicode="M" horiz-adv-x="2084" d="M61 35l162 1550q3 35 25 35h332q65 0 96 -17t49 -67l317 -840l318 842q18 50 49 67t96 17h332q22 0 25 -35l161 -1552q3 -35 -30 -35h-369q-28 0 -31 35l-86 813l-297 -764q-15 -35 -47 -35h-241q-33 0 -48 35l-294 764l-88 -813q-3 -35 -31 -35h-369q-34 0 -31 35z" />
<glyph unicode="N" horiz-adv-x="1634" d="M123 35v1550q0 35 31 35h262q40 0 67 -10q25 -10 34.5 -19t35.5 -47l528 -737v778q0 35 31 35h369q30 0 30 -35v-1550q0 -35 -30 -35h-252q-83 0 -131 66l-545 761v-792q0 -35 -31 -35h-368q-31 0 -31 35z" />
<glyph unicode="O" horiz-adv-x="1552" d="M76 809q0 249 33.5 400.5t113.5 248.5q80 96 209 135t344 39t344 -39t209 -135q80 -97 114 -248.5t34 -400.5q-3 -166 -17 -283.5t-47 -211.5t-82.5 -152t-129.5 -97t-181 -55.5t-244 -19.5q-143 3 -244 19.5t-181 55.5t-129 97t-82.5 152t-47 211.5t-16.5 283.5z M512 809q0 -255 53 -350q52 -94 211 -94t211 94q53 95 53 350q0 257 -53 352q-53 96 -211 96t-211 -96q-53 -95 -53 -352z" />
<glyph unicode="P" horiz-adv-x="1433" d="M123 33v1544q0 24 31 27q316 28 649 28q326 0 457 -125t131 -426q0 -296 -127 -405q-125 -107 -461 -107h-250v-536q0 -20 -6 -26.5t-25 -6.5h-368q-19 0 -25 6.5t-6 26.5zM553 885h203q115 0 156.5 39t41.5 143t-43.5 147t-154.5 43h-203v-372z" />
<glyph unicode="Q" horiz-adv-x="1552" d="M76 809q0 249 33.5 400.5t113.5 248.5q80 96 209 135t344 39t344 -39t209 -135q80 -97 114 -248.5t34 -400.5q0 -410 -107 -590q-107 -177 -385 -217l76 -256q9 -33 -31 -33h-323q-22 0 -31 33l-74 252q-300 30 -414 209q-112 178 -112 602zM512 809q0 -255 53 -350 q52 -94 211 -94t211 94q53 95 53 350q0 257 -53 352q-53 96 -211 96t-211 -96q-53 -95 -53 -352z" />
<glyph unicode="R" horiz-adv-x="1478" d="M123 33v1544q0 24 31 27q316 28 649 28q326 0 457 -125t131 -426q0 -222 -66.5 -333t-226.5 -152l348 -555q12 -17 5 -29t-30 -12h-377q-31 0 -47 9.5t-34 35.5l-332 524h-78v-536q0 -20 -6 -26.5t-25 -6.5h-368q-19 0 -25 6.5t-6 26.5zM553 885h203q115 0 156.5 39 t41.5 143t-43.5 147t-154.5 43h-203v-372z" />
<glyph unicode="S" horiz-adv-x="1314" d="M70 104v213q0 48 49 48h600q110 0 110 75v15q0 47 -28 69.5t-111 50.5l-315 109q-102 36 -158 80q-133 110 -133 399v43q0 223 143 324.5t463 101.5q235 0 455 -53q45 -15 45 -45v-231q0 -46 -47 -46h-508q-117 0 -117 -83v-23q0 -69 90 -104l326 -117q117 -43 180 -86 q67 -44 108.5 -139.5t41.5 -237.5v-49q0 -428 -637 -428q-224 0 -512 57q-45 9 -45 57z" />
<glyph unicode="T" horiz-adv-x="1349" d="M33 1276v313q0 31 33 31h1218q33 0 33 -31v-313q0 -31 -33 -31h-395v-1212q0 -33 -31 -33h-369q-30 0 -30 33v1212h-393q-33 0 -33 31z" />
<glyph unicode="U" horiz-adv-x="1585" d="M109 809v780q0 31 30 31h369q31 0 31 -31v-780q0 -270 51 -356q52 -88 203 -88q150 0 202 88t52 356v780q0 31 30 31h369q31 0 31 -31v-780q0 -203 -20 -338t-64 -233q-70 -140 -205 -192.5t-395 -55.5q-169 0 -282.5 23.5t-195.5 74.5q-116 85 -160 248t-46 473z" />
<glyph unicode="V" horiz-adv-x="1486" d="M10 1587q-6 33 27 33h358q13 0 18 -6t11 -27l301 -1239q5 -14 17 -14t16 14l305 1239q5 20 10 26.5t19 6.5h358q33 0 27 -33l-336 -1347q-43 -169 -113 -209q-68 -41 -285 -41q-218 0 -286 39q-68 41 -109 211z" />
<glyph unicode="W" horiz-adv-x="2269" d="M27 1585q-6 35 30 35h375q25 0 31 -35l182 -1120q5 -17 19 -17t18 17l248 1071q9 35 47 35h315q38 0 47 -35l248 -1071q5 -17 19 -17t18 17l182 1120q6 35 31 35h375q37 0 31 -35l-234 -1345q-26 -163 -88 -209q-59 -41 -256 -41q-151 0 -223 16q-66 19 -98.5 66 t-61.5 168l-147 626l-148 -626q-28 -123 -61 -168q-36 -49 -101 -66q-69 -16 -221 -16q-197 0 -256 41q-62 46 -88 209z" />
<glyph unicode="X" horiz-adv-x="1550" d="M-12 45l538 797l-491 733q-14 23 -9 34t31 11h414q35 0 55 -33l250 -424l250 424q20 33 55 33h414q26 0 31.5 -11t-8.5 -34l-492 -733l537 -797q10 -16 10 -26q0 -19 -33 -19h-414q-35 0 -55 33l-295 487l-297 -487q-23 -33 -55 -33h-414q-33 0 -33 18q0 11 11 27z" />
<glyph unicode="Y" horiz-adv-x="1566" d="M-4 1575q-8 15 -8 25q0 20 30 20h414q32 0 55 -33l295 -626l297 626q14 33 56 33h413q31 0 31 -20q0 -10 -8 -25l-574 -1030v-510q0 -35 -30 -35h-369q-31 0 -31 35v516z" />
<glyph unicode="Z" horiz-adv-x="1464" d="M55 319q0 26 15 41l739 885h-696q-33 0 -33 31l-2 311q0 33 33 33h1245q30 0 30 -33v-291q0 -27 -14 -41l-743 -880h743q33 0 33 -33v-309q0 -33 -33 -33h-1284q-31 0 -31 33z" />
<glyph unicode="[" horiz-adv-x="929" d="M131 -303v1982q0 31 31 31h696q31 0 31 -31v-219q0 -30 -31 -30h-346v-1483h346q31 0 31 -31v-219q0 -31 -31 -31h-696q-31 0 -31 31z" />
<glyph unicode="\" horiz-adv-x="1079" d="M43 1673q-15 35 16 35h158q33 0 45 -35l776 -1743q15 -34 -16 -34h-162q-30 0 -45 34z" />
<glyph unicode="]" horiz-adv-x="929" d="M41 -84q0 31 31 31h346v1483h-346q-31 0 -31 30v219q0 31 31 31h696q31 0 31 -31v-1982q0 -31 -31 -31h-696q-31 0 -31 31v219z" />
<glyph unicode="^" horiz-adv-x="1263" d="M51 768l379 752q9 22 35 22h338q26 0 35 -22l374 -752q15 -37 -22 -37h-342q-25 0 -35 23l-180 397l-184 -397q-10 -23 -35 -23h-340q-38 0 -23 37z" />
<glyph unicode="_" horiz-adv-x="1495" d="M0 -131q0 31 31 31h1433q31 0 31 -31v-148q0 -30 -31 -30h-1433q-31 0 -31 30v148z" />
<glyph unicode="`" horiz-adv-x="1097" d="M246 1653v14q0 21 20 21h408q18 0 24 -13l150 -284q10 -20 -6 -29l-133 -74q-19 -10 -29 0l-424 340q-10 10 -10 25z" />
<glyph unicode="a" horiz-adv-x="1210" d="M45 367q2 113 31 183t92 107q61 37 138.5 50.5t209.5 13.5l195 2v10q0 103 -123 103h-430q-27 0 -27 30v248q0 27 27 33q179 37 430 37q265 0 395 -72q55 -30 86 -84q29 -51 38 -98.5t9 -128.5v-701q0 -32 -12 -47.5t-41 -19.5q-218 -43 -475 -43q-84 0 -162 4 q-66 2 -135.5 14t-104.5 33q-142 87 -142 298q0 14 1 28zM444 397q0 -50 24 -68t93 -18q91 0 150 15v163h-152q-67 0 -91 -20.5t-24 -71.5z" />
<glyph unicode="b" horiz-adv-x="1277" d="M100 102v1485q0 33 31 33h344q31 0 31 -33v-416q143 13 233 13q267 0 369 -129q102 -126 102 -469q0 -353 -116 -475q-118 -121 -465 -121q-220 0 -475 45q-54 9 -54 67zM506 350q52 -12 133 -12q113 0 139 51q27 53 27 197q0 160 -33 202q-34 46 -154 46h-112v-484z" />
<glyph unicode="c" horiz-adv-x="1089" d="M70 588q0 196 21.5 300.5t82.5 174.5t165 95.5t294 25.5q228 0 358 -37q37 -9 37 -45v-234q0 -32 -37 -32h-358q-97 0 -127 -50q-31 -51 -31 -198t31 -201q30 -49 127 -49h358q37 0 37 -33v-233q0 -36 -37 -45q-130 -37 -358 -37q-190 0 -294 25.5t-165 95.5 q-63 72 -84 180q-20 103 -20 297z" />
<glyph unicode="d" horiz-adv-x="1277" d="M68 586q0 345 100 469q102 129 371 129q90 0 233 -13v416q0 33 31 33h344q31 0 31 -33v-1485q0 -58 -54 -67q-255 -45 -475 -45q-347 0 -465 121q-116 122 -116 475zM473 586q0 -144 27 -197q26 -51 139 -51q81 0 133 12v484h-113q-119 0 -153 -46q-33 -42 -33 -202z" />
<glyph unicode="e" horiz-adv-x="1226" d="M68 586q0 359 112 477q115 121 447 121q331 0 438 -119q111 -120 111 -479v-66q0 -30 -13.5 -42.5t-44.5 -12.5h-635q0 -86 37 -107q39 -20 156 -20h389q31 0 31 -31v-246q0 -28 -29 -34q-148 -37 -440 -37q-334 0 -447 119q-112 118 -112 477zM479 698h289q0 74 -34 106 t-107 32q-148 0 -148 -138z" />
<glyph unicode="f" horiz-adv-x="866" d="M31 893v244q0 30 37 30h120v127q0 199 103 267q100 69 311 69q128 0 260 -24q37 -6 37 -45v-246q0 -33 -37 -33h-207q-35 0 -48 -11t-13 -42v-62h235q19 0 24 -6t1 -26l-45 -242q-6 -33 -37 -33h-178v-827q0 -33 -31 -33h-344q-31 0 -31 33v827h-120q-37 0 -37 33z" />
<glyph unicode="g" d="M68 616q0 334 118 449q119 119 469 119q220 0 475 -45q54 -9 54 -68v-1120q0 -81 -9 -128.5t-38 -98.5q-44 -76 -156.5 -114t-325.5 -42q-279 0 -458 37q-27 6 -27 33v221q0 30 27 30h411q98 0 134 24.5t36 90.5v14q-128 -28 -233 -28q-269 0 -375 133q-102 132 -102 493 zM473 588q0 -156 35 -203q36 -45 158 -45q66 0 112 12v484h-147q-103 0 -131 -54q-27 -52 -27 -194z" />
<glyph unicode="h" d="M100 33v1554q0 33 31 33h344q31 0 31 -33v-413q95 10 174 10q311 0 412 -101q100 -97 100 -403v-647q0 -33 -31 -33h-346q-29 0 -29 33v510q0 91 -2 116q0 42 -6 82.5t-16 51.5q-16 27 -51 35t-109 8h-94v-803q0 -33 -31 -33h-348q-29 0 -29 33z" />
<glyph unicode="i" horiz-adv-x="606" d="M72 1485q0 97 61.5 152t171.5 55q109 0 170.5 -55t61.5 -152q0 -98 -61.5 -153.5t-170.5 -55.5q-110 0 -171.5 55.5t-61.5 153.5zM100 33v1108q0 33 31 33h344q31 0 31 -33v-1108q0 -33 -31 -33h-344q-31 0 -31 33z" />
<glyph unicode="j" horiz-adv-x="622" d="M-86 -117q0 33 37 33h55q70 0 90.5 18t20.5 80v1127q0 33 30 33h345q30 0 30 -33v-1237q0 -204 -80 -269q-79 -67 -270 -67q-144 0 -221 24q-21 6 -29 16t-8 30v245zM88 1485q0 97 62 152t172 55q109 0 170 -55t61 -152q0 -98 -61 -153.5t-170 -55.5q-110 0 -172 55.5 t-62 153.5z" />
<glyph unicode="k" horiz-adv-x="1247" d="M100 33v1554q0 33 31 33h344q31 0 31 -33v-805l254 371q15 21 43 21h375q44 0 18 -39l-297 -424l358 -656q10 -18 10 -30q0 -25 -44 -25h-365q-32 0 -45 23l-307 598v-588q0 -33 -31 -33h-344q-31 0 -31 33z" />
<glyph unicode="l" horiz-adv-x="606" d="M100 33v1554q0 33 31 33h344q31 0 31 -33v-1554q0 -33 -31 -33h-344q-31 0 -31 33z" />
<glyph unicode="m" horiz-adv-x="1843" d="M100 33v1081q0 27 27 33q148 37 438 37q256 0 393 -70q174 70 381 70q214 0 313 -97t99 -305v-749q0 -33 -29 -33h-348q-28 0 -28 33v510q0 209 -21 250q-18 43 -119 43q-52 0 -96 -9q18 -65 18 -147v-647q0 -33 -28 -33h-348q-29 0 -29 33v635q-3 113 -25 141 q-21 27 -114 27h-78v-803q0 -33 -31 -33h-344q-28 0 -31 33z" />
<glyph unicode="n" d="M100 33v1081q0 13 4 20t9 8.5t16 4.5q148 37 551 37q311 0 412 -101q100 -97 100 -403v-647q0 -33 -31 -33h-346q-29 0 -29 33v510q0 91 -2 116q0 42 -6 82.5t-16 51.5q-16 27 -51 35t-109 8h-94v-803q0 -33 -31 -33h-348q-29 0 -29 33z" />
<glyph unicode="o" horiz-adv-x="1267" d="M68 586q0 359 112 477q115 121 453 121q339 0 452 -119q115 -121 115 -479q0 -356 -115 -477q-113 -119 -452 -119q-340 0 -453 119q-112 118 -112 477zM475 586q0 -148 31 -199q34 -49 127 -49q97 0 127 49q33 47 33 199q0 153 -33 200q-30 50 -127 50q-92 0 -127 -50 q-31 -51 -31 -200z" />
<glyph unicode="p" d="M100 -387v1458q0 59 54 68q255 45 475 45q348 0 467 -119q121 -118 121 -449q0 -361 -105 -493q-103 -133 -373 -133q-125 0 -233 12v-389q0 -33 -31 -33h-344q-31 0 -31 33zM506 348q44 -8 112 -8q123 0 156 45q37 46 37 203q0 101 -12 157q-14 91 -146 91h-147v-488z " />
<glyph unicode="q" d="M68 616q0 334 118 449q119 119 469 119q220 0 475 -45q54 -9 54 -68v-1458q0 -33 -31 -33h-344q-31 0 -31 33v389q-108 -12 -233 -12q-269 0 -375 133q-102 132 -102 493zM473 588q0 -156 35 -203q36 -45 158 -45q68 0 112 8v488h-147q-106 0 -133 -52q-25 -55 -25 -196z " />
<glyph unicode="r" horiz-adv-x="878" d="M96 33v815q0 198 103 266q101 70 311 70q174 0 311 -25q37 -6 37 -45v-246q0 -32 -37 -32h-209q-62 0 -86 -19.5t-24 -79.5v-704q0 -33 -31 -33h-344q-31 0 -31 33z" />
<glyph unicode="s" horiz-adv-x="1071" d="M59 41v240q0 32 37 32h461q41 0 55.5 7t14.5 26v10q0 28 -107 62l-217 67q-221 71 -221 330v35q0 168 124.5 251t389.5 83q182 0 336 -37q35 -9 35 -33v-219q0 -33 -37 -33h-363q-90 0 -90 -43v-14q0 -28 70 -49l252 -78q223 -70 223 -326v-39q0 -165 -121 -244t-334 -79 q-280 0 -473 20q-21 0 -28 6t-7 25z" />
<glyph unicode="t" horiz-adv-x="843" d="M27 903v230q0 30 36 30h123v209q0 16 5.5 21.5t25.5 11.5l344 90q15 4 23 -4.5t8 -28.5v-299h164q37 0 37 -30v-230q0 -33 -37 -33h-164v-434q0 -59 23.5 -78.5t86.5 -19.5h72q37 0 37 -33v-246q0 -39 -37 -45q-132 -24 -229 -24q-79 0 -120 3.5t-93 16.5q-74 23 -107 85 t-39 190v585h-123q-36 0 -36 33z" />
<glyph unicode="u" d="M92 494v647q0 33 33 33h344q29 0 29 -33v-510v-119q4 -101 22 -133q40 -42 131 -42q15 0 31 1h94v803q0 33 31 33h348q29 0 29 -33v-1078q0 -19 -5.5 -25t-23.5 -11q-191 -37 -551 -37q-310 0 -411 98q-101 101 -101 406z" />
<glyph unicode="v" horiz-adv-x="1277" d="M14 1141q-6 33 27 33h365q13 0 17.5 -5.5t10.5 -27.5l187 -824q1 -7 16 -7t16 7l189 824q5 21 9.5 27t18.5 6h365q33 0 27 -33l-234 -901q-44 -171 -108 -211q-62 -39 -281 -39q-217 0 -279 39t-108 211z" />
<glyph unicode="w" horiz-adv-x="1900" d="M29 1147q-3 27 24 27h367q17 0 20 -27l115 -828q1 -5 14 -5t13 5l182 793q6 25 35 25h303q29 0 35 -25l182 -793q0 -5 12.5 -5t14.5 5l114 828q3 27 21 27h366q28 0 25 -27l-172 -977q-21 -112 -86 -147q-62 -33 -236 -33q-215 0 -276 28q-58 27 -82 152l-70 340 l-69 -340q-24 -124 -84 -152q-61 -28 -275 -28q-173 0 -235 33q-65 35 -86 147z" />
<glyph unicode="x" horiz-adv-x="1275" d="M-6 13q-5 13 6 26l383 567l-356 529q-13 17 -8.5 28t24.5 11h416q24 0 39 -21l141 -231l139 231q15 21 39 21h414q20 0 24.5 -11t-8.5 -28l-354 -527l383 -569q11 -13 6 -26t-25 -13h-415q-21 0 -35 20l-170 275l-170 -275q-14 -20 -35 -20h-414q-19 0 -24 13z" />
<glyph unicode="y" horiz-adv-x="1325" d="M90 487v656q0 31 31 31h344q31 0 31 -31v-555q0 -154 41 -201q44 -47 168 -47q65 0 112 12v791q0 31 31 31h344q31 0 31 -31v-1192q0 -81 -9 -128.5t-38 -98.5q-44 -76 -156.5 -114t-325.5 -42q-279 0 -458 37q-27 6 -27 33v221q0 30 27 30h411q98 0 134 24.5t36 90.5v14 q-128 -28 -233 -28q-261 0 -377.5 120t-116.5 377z" />
<glyph unicode="z" horiz-adv-x="1150" d="M55 33v209q0 24 15 39l446 555h-403q-37 0 -37 32v273q0 33 37 33h915q37 0 37 -33v-226q0 -16 -16 -38l-408 -529h420q37 0 37 -33v-282q0 -33 -37 -33h-969q-37 0 -37 33z" />
<glyph unicode="{" horiz-adv-x="794" d="M14 653v70q0 27 17 37l159 104q22 16 19 37l-57 565q-12 132 68 193t251 61q135 0 234 -30q25 -7 31.5 -17.5t6.5 -40.5v-200q0 -31 -30 -31h-76q-57 0 -80.5 -21.5t-17.5 -70.5l51 -412q6 -53 -5.5 -78t-47.5 -43l-158 -80v-16l158 -80q36 -18 47.5 -43t5.5 -78 l-51 -411q-6 -49 17.5 -71t80.5 -22h76q30 0 30 -30v-201q0 -29 -6.5 -39.5t-31.5 -17.5q-102 -31 -234 -31q-171 0 -251 61t-68 193l57 565q3 21 -19 37l-159 104q-17 10 -17 37z" />
<glyph unicode="|" horiz-adv-x="667" d="M131 -197v1862q0 33 31 33h344q31 0 31 -33v-1862q0 -32 -31 -32h-344q-31 0 -31 32z" />
<glyph unicode="}" horiz-adv-x="794" d="M51 -55q0 30 31 30h76q57 0 80.5 22t17.5 71l-51 411q-6 53 5.5 78t47.5 43l158 80v16l-158 80q-36 18 -47.5 43t-5.5 78l51 412q6 49 -17.5 70.5t-80.5 21.5h-76q-31 0 -31 31v200q0 29 7 40t32 18q99 30 234 30q171 0 251 -61t68 -193l-57 -565q-3 -22 18 -37l160 -104 q16 -10 16 -37v-70q0 -27 -16 -37l-160 -104q-21 -15 -18 -37l57 -565q12 -132 -68 -193t-251 -61q-132 0 -234 31q-25 8 -32 18t-7 39v201z" />
<glyph unicode="~" horiz-adv-x="1341" d="M53 629q53 138 159.5 212t244.5 74q60 0 124.5 -20.5t110 -45t96 -45t86.5 -20.5q105 0 170 103q15 21 43 2l195 -125q19 -10 6 -39q-53 -138 -160 -212.5t-245 -74.5q-60 0 -124.5 20.5t-109.5 45t-95.5 45t-86.5 20.5q-105 0 -170 -102q-15 -21 -37 -6l-197 127 q-23 13 -10 41z" />
<glyph unicode="&#xa1;" horiz-adv-x="630" d="M82 975q0 98 61.5 153.5t171.5 55.5q109 0 170.5 -55.5t61.5 -153.5q0 -97 -61.5 -152t-170.5 -55q-110 0 -171.5 55t-61.5 152zM90 272q0 17 4 37l90 346q9 35 31 35h201q21 0 30 -35l91 -346q4 -20 4 -37v-657q0 -35 -31 -35h-389q-31 0 -31 35v657z" />
<glyph unicode="&#xa2;" horiz-adv-x="1107" d="M70 588q0 185 19 287t71 172q54 71 144.5 100.5t250.5 34.5l29 170q6 32 37 32h143q30 0 24 -32l-28 -172q136 -9 231 -33q37 -9 37 -45v-234q0 -32 -37 -32h-358q-97 0 -127 -50q-31 -51 -31 -198t31 -201q30 -49 127 -49h358q37 0 37 -33v-233q0 -36 -37 -45 q-130 -37 -358 -37h-35l-29 -168q-6 -33 -37 -33h-143q-30 0 -24 33l30 184q-197 35 -260 158q-65 127 -65 424z" />
<glyph unicode="&#xa3;" horiz-adv-x="1384" d="M45 31l55 313q6 31 39 31h133v276h-125q-32 0 -32 31v160q0 30 32 30h125v367q0 118 48 200t139 120q88 40 187 56.5t237 16.5q180 0 342 -43q33 -11 46 -25t13 -44v-230q0 -33 -31 -33h-311q-148 0 -194 -30q-46 -27 -46 -109v-246h390q32 0 32 -30v-160q0 -31 -32 -31 h-390v-276h576q33 0 33 -31v-313q0 -31 -33 -31h-1204q-32 0 -29 31z" />
<glyph unicode="&#xa4;" horiz-adv-x="1318" d="M82 219q-22 21 2 45l96 96q-80 121 -80 308q0 186 80 307l-96 96q-24 23 -2 45l102 101q22 23 45 0l109 -109q128 61 319 61q192 0 320 -61l108 109q23 23 45 0l103 -101q21 -22 -2 -45l-96 -96q79 -119 79 -307q0 -189 -79 -308l96 -96q23 -24 2 -45l-103 -100 q-22 -23 -45 0l-108 108q-128 -61 -320 -61q-191 0 -319 61l-109 -108q-23 -23 -45 0zM455 668q0 -207 202 -207q203 0 203 207q0 206 -203 206q-202 0 -202 -206z" />
<glyph unicode="&#xa5;" horiz-adv-x="1656" d="M41 1575q-23 45 22 45h414q32 0 55 -33l295 -569l297 569q17 33 56 33h413q46 0 23 -45l-520 -883h264q33 0 33 -30v-89q0 -30 -33 -30h-318v-154h318q33 0 33 -31v-88q0 -30 -33 -30h-318v-205q0 -35 -30 -35h-369q-31 0 -31 35v205h-315q-33 0 -33 30v88q0 31 33 31 h315v154h-315q-33 0 -33 30v89q0 30 33 30h266z" />
<glyph unicode="&#xa6;" horiz-adv-x="663" d="M129 -197v729q0 21 21 21h364q21 0 21 -21v-729q0 -32 -31 -32h-344q-31 0 -31 32zM129 952v713q0 33 31 33h344q31 0 31 -33v-713q0 -20 -21 -20h-364q-21 0 -21 20z" />
<glyph unicode="&#xa7;" horiz-adv-x="993" d="M74 688v610q0 190 86 252t350 62q146 0 254 -27q6 -1 9 -1t5.5 -0.5t3 -1.5t1 -1.5t0 -3t-0.5 -4.5v-209q0 -6 -0.5 -8t-4 -3t-11.5 -1h-301q-54 0 -76 -21.5t-22 -75.5v-90l346 -123q125 -46 166 -108t41 -203v-602q0 -190 -86 -252q-85 -61 -351 -61q-150 0 -254 26 q-6 1 -9.5 1.5t-5.5 0.5t-2.5 1.5t-1 2t0 3t0.5 4.5v208q0 10 2 11.5t14 1.5h301q54 0 76.5 21t22.5 75v82l-346 123q-125 46 -166 108t-41 203zM367 696q0 -44 18.5 -67.5t65.5 -40.5l176 -62v189q0 46 -18 68t-66 40l-176 66v-193z" />
<glyph unicode="&#xa8;" horiz-adv-x="1390" d="M246 1485q0 82 49 128t141 46q91 0 140 -45.5t49 -128.5q0 -85 -48.5 -130.5t-140.5 -45.5t-141 45.5t-49 130.5zM766 1485q0 82 49 128t141 46q91 0 140 -45.5t49 -128.5q0 -85 -48.5 -130.5t-140.5 -45.5t-141 45.5t-49 130.5z" />
<glyph unicode="&#xa9;" horiz-adv-x="1695" d="M70 768q0 403 188 594q187 190 590 190t590 -190q188 -191 188 -594t-188 -594q-187 -190 -590 -190t-590 190q-188 191 -188 594zM197 768q0 -338 157 -498q157 -157 494 -157q336 0 493 157q158 161 158 498q0 338 -158 496q-156 159 -493 159q-338 0 -494 -159 q-157 -157 -157 -496zM500 766q0 243 71 326q71 86 277 86q147 0 221 -21q31 -6 31 -37v-100q0 -29 -27 -29h-225q-90 0 -111 -43q-22 -42 -22 -182q0 -138 22 -184q21 -41 111 -41h225q27 0 27 -27v-100q0 -30 -31 -39q-86 -21 -221 -21q-205 0 -277 84q-71 86 -71 328z " />
<glyph unicode="&#xaa;" horiz-adv-x="755" d="M72 1124v29q0 108 58.5 150.5t182.5 42.5h164v59q0 20 -2.5 30t-13 21.5t-35 16t-64.5 4.5h-219q-19 0 -23.5 4.5t-4.5 21.5v76q0 27 26 33q90 20 221 20q164 0 229.5 -46.5t65.5 -143.5v-426q0 -33 -24 -45q-73 -37 -307 -37q-142 0 -198 37t-56 153zM125 723v59 q0 31 31 31h454q31 0 31 -31v-59q0 -31 -31 -31h-454q-31 0 -31 31zM252 1139q0 -54 90 -54q72 0 135 13v104h-121q-104 0 -104 -53v-10z" />
<glyph unicode="&#xab;" horiz-adv-x="1363" d="M53 506v139q0 34 23 64l217 284q16 19 37 19h342q30 0 30 -31v-14q0 -23 -14 -37l-282 -355l282 -354q14 -14 14 -37v-14q0 -31 -30 -31h-342q-21 0 -37 19l-217 284q-23 30 -23 64zM649 506v139q0 34 23 64l217 284q16 19 37 19h342q30 0 30 -31v-14q0 -23 -14 -37 l-283 -355l283 -354q14 -14 14 -37v-14q0 -31 -30 -31h-342q-21 0 -37 19l-217 284q-23 30 -23 64z" />
<glyph unicode="&#xac;" horiz-adv-x="1292" d="M74 657v342q0 31 30 31h1053q31 0 31 -31l-2 -634q0 -31 -31 -31h-334q-30 0 -30 31v262h-687q-30 0 -30 30z" />
<glyph unicode="&#xad;" horiz-adv-x="968" d="M98 494v313q0 31 33 31h707q32 0 32 -31v-313q0 -31 -32 -31h-707q-33 0 -33 31z" />
<glyph unicode="&#xae;" horiz-adv-x="1695" d="M70 768q0 403 188 594q187 190 590 190t590 -190q188 -191 188 -594t-188 -594q-187 -190 -590 -190t-590 190q-188 191 -188 594zM197 768q0 -338 157 -498q157 -157 494 -157q336 0 493 157q158 161 158 498q0 338 -158 496q-156 159 -493 159q-338 0 -494 -159 q-157 -157 -157 -496zM553 395v748q0 17 4 20.5t23 5.5q150 15 319 15q163 0 229 -63t66 -214q0 -112 -33.5 -168t-111.5 -75l159 -261q13 -13 7 -24.5t-29 -11.5h-144q-50 0 -77 41l-156 245l-41 -2v-256q0 -19 -5 -23.5t-24 -4.5h-159q-18 0 -22.5 4.5t-4.5 23.5zM768 825 h109q69 0 85.5 12t16.5 66q0 56 -19 75t-83 19h-109v-172z" />
<glyph unicode="&#xaf;" horiz-adv-x="1208" d="M246 1384v164q0 31 30 31h656q31 0 31 -31v-164q0 -30 -31 -30h-656q-30 0 -30 30z" />
<glyph unicode="&#xb0;" horiz-adv-x="708" d="M49 1339q0 293 305 293t305 -293q0 -143 -78 -217.5t-227 -74.5t-227 74.5t-78 217.5zM233 1339q0 -120 121 -120t121 120q0 121 -121 121t-121 -121z" />
<glyph unicode="&#xb1;" horiz-adv-x="1273" d="M98 121v215q0 31 31 31h1016q31 0 31 -31v-215q0 -31 -31 -31h-1016q-31 0 -31 31zM109 774v223q0 31 30 31h318v232q0 30 30 30h301q31 0 31 -30v-232h316q30 0 30 -31v-223q0 -31 -30 -31h-316v-233q0 -31 -31 -31h-301q-30 0 -30 31v233h-318q-30 0 -30 31z" />
<glyph unicode="&#xb2;" horiz-adv-x="737" d="M45 1116v113q0 88 38 142t138 110l207 104q47 21 47 78v57q0 32 -17 43t-61 11h-268q-16 0 -16 16v106q0 18 12 21q132 22 252 22q74 0 117 -5t84 -23q90 -35 90 -154v-110q0 -143 -101 -189l-237 -115q-45 -21 -57.5 -33.5t-12.5 -41.5v-15h393q15 0 15 -12v-143 q0 -13 -13 -13h-581q-29 0 -29 31z" />
<glyph unicode="&#xb3;" horiz-adv-x="692" d="M63 1122v105q0 18 27 18h129q139 0 174 15q37 15 37 67v23q0 16 -2.5 27t-12.5 26t-35.5 23t-66.5 8h-182q-20 0 -20 20v113q0 8 1 11t5 5t14 2h180q75 0 97 18.5t22 71.5v17q0 50 -37 65q-39 17 -174 17h-129q-27 0 -27 18v104q0 18 17 21q132 22 248 22q175 0 233 -49 q62 -50 62 -192v-4q0 -148 -99 -183q99 -21 99 -178v-12q0 -143 -62 -193q-58 -49 -233 -49q-110 0 -248 23q-17 3 -17 20z" />
<glyph unicode="&#xb4;" horiz-adv-x="1097" d="M250 1391l149 284q7 13 25 13h407q21 0 21 -21v-14q0 -15 -10 -25l-424 -340q-10 -10 -29 0l-133 74q-16 9 -6 29z" />
<glyph unicode="&#xb5;" horiz-adv-x="1292" d="M100 -289v1430q0 33 33 33h344q29 0 29 -33v-510v-119q4 -101 22 -133q46 -49 162 -41h94v803q0 33 31 33h348q29 0 29 -33v-1078q0 -19 -5.5 -25t-23.5 -11q-191 -37 -551 -37q-83 0 -106 2v-281q0 -33 -31 -33h-344q-31 0 -31 33z" />
<glyph unicode="&#xb6;" horiz-adv-x="1402" d="M51 944v264q0 255 164 344q80 43 179 61.5t243 18.5q319 0 463 -104q73 -50 114 -154q38 -100 55 -230.5t17 -330.5v-813h-256v965q0 243 -84 327q-83 86 -254 86v-829h-30q-123 0 -197.5 6.5t-155.5 28.5q-126 32 -189 116t-69 244z" />
<glyph unicode="&#xb7;" horiz-adv-x="591" d="M63 588q0 97 62 152t172 55q109 0 170 -55t61 -152q0 -98 -61 -153.5t-170 -55.5q-110 0 -172 55.5t-62 153.5z" />
<glyph unicode="&#xb8;" horiz-adv-x="958" d="M246 -154q0 27 26 27h72q101 0 117 16q12 9 12 29q0 39 -10 107q-6 32 26 32h134q27 0 36 -24q54 -148 54 -254q0 -162 -242 -162q-158 0 -201 16q-24 9 -24 37v176z" />
<glyph unicode="&#xb9;" horiz-adv-x="618" d="M53 1802v86q0 18 27 33q34 18 115 18q35 0 61 -2t61.5 -11t58 -25.5t38.5 -47.5t16 -75v-525h133q29 0 29 -28v-113q0 -27 -29 -27h-471q-29 0 -29 27v113q0 28 29 28h148v453q0 40 -19 55t-80 15h-57q-31 0 -31 26z" />
<glyph unicode="&#xba;" horiz-adv-x="782" d="M80 1282q0 217 57 283q58 67 254 67q194 0 252 -67q59 -68 59 -283q0 -217 -57 -283q-59 -65 -254 -65t-254 65q-57 66 -57 283zM133 723v59q0 31 31 31h454q31 0 31 -31v-59q0 -31 -31 -31h-454q-31 0 -31 31zM260 1282q0 -122 19 -158q17 -32 112 -32t113 30 q18 34 18 160q0 128 -18 162q-17 33 -113 33q-91 0 -112 -35q-19 -36 -19 -160z" />
<glyph unicode="&#xbb;" horiz-adv-x="1363" d="M66 170v14q0 23 14 37l282 354l-282 355q-14 14 -14 37v14q0 31 30 31h342q21 0 37 -19l217 -284q23 -30 23 -64v-139q0 -34 -23 -64l-217 -284q-16 -19 -37 -19h-342q-30 0 -30 31zM662 170v14q0 23 14 37l282 354l-282 355q-14 14 -14 37v14q0 31 30 31h342 q21 0 37 -19l217 -284q23 -30 23 -64v-139q0 -34 -23 -64l-217 -284q-16 -19 -37 -19h-342q-30 0 -30 31z" />
<glyph unicode="&#xbc;" horiz-adv-x="1882" d="M61 1487v86q0 18 27 33q34 18 115 18q28 0 50.5 -1.5t52 -6.5t51 -16t41 -28t30 -45t10.5 -65v-524h133q29 0 29 -29v-112q0 -27 -29 -27h-471q-28 0 -28 27v112q0 29 28 29h148v453q0 40 -18.5 54.5t-79.5 14.5h-58q-31 0 -31 27zM434 -70l774 1743q15 35 45 35h97 q31 0 16 -35l-772 -1743q-15 -34 -45 -34h-98q-32 0 -17 34zM1102 211v59q0 16 8 43l135 518q9 19 35 19h137q28 0 19 -33l-123 -467h182v207q0 26 18 35l140 53q35 15 35 -18v-277h124q31 0 31 -26v-115q0 -27 -31 -27h-124v-153q0 -29 -27 -29h-139q-27 0 -27 29v153h-367 q-26 0 -26 29z" />
<glyph unicode="&#xbd;" horiz-adv-x="1816" d="M49 1487v86q0 18 27 33q34 18 114 18q35 0 61.5 -2t61.5 -11.5t57.5 -25.5t39 -47.5t16.5 -75.5v-524h133q29 0 29 -29v-112q0 -27 -29 -27h-471q-29 0 -29 27v112q0 29 29 29h148v453q0 40 -19 54.5t-80 14.5h-57q-31 0 -31 27zM428 -70l774 1743q15 35 45 35h96 q32 0 17 -35l-772 -1743q-18 -34 -45 -34h-99q-34 0 -16 34zM1139 31v112q0 88 38 142t138 110l207 105q47 21 47 78v57q0 31 -17 42t-61 11h-268q-17 0 -17 17v106q0 17 13 20q138 23 251 23q133 0 201 -29q90 -35 90 -153v-111q0 -142 -100 -188l-238 -115 q-45 -20 -57 -33.5t-12 -42.5v-14h393q14 0 14 -12v-144q0 -12 -12 -12h-582q-28 0 -28 31z" />
<glyph unicode="&#xbe;" horiz-adv-x="1929" d="M68 807v104q0 19 26 19h129q142 0 174 14q37 15 37 68v22q0 16 -2.5 27t-12.5 26t-35.5 23t-66.5 8h-182q-20 0 -20 21v112q0 8 1 11.5t5 5.5t14 2h180q75 0 97 18.5t22 71.5v16q0 51 -37 66q-37 16 -174 16h-129q-26 0 -26 19v104q0 18 16 21q132 22 248 22 q175 0 233 -49q62 -50 62 -193v-4q0 -148 -99 -182q99 -21 99 -178v-12q0 -143 -62 -193q-58 -49 -233 -49q-116 0 -248 22q-16 3 -16 21zM469 -70l774 1743q15 35 45 35h96q32 0 17 -35l-772 -1743q-18 -34 -45 -34h-99q-34 0 -16 34zM1149 211v59q0 16 8 43l135 518 q10 19 35 19h137q28 0 19 -33l-123 -467h182v207q0 25 19 35l139 53q35 15 35 -18v-277h125q30 0 30 -26v-115q0 -27 -30 -27h-125v-153q0 -29 -27 -29h-139q-27 0 -27 29v153h-366q-27 0 -27 29z" />
<glyph unicode="&#xbf;" horiz-adv-x="1163" d="M45 -39v113q0 162 47 239q51 78 178 136l209 100q102 46 111 94l4 19q3 28 33 28h256q26 0 32 -28l17 -93q18 -109 -19 -170t-174 -137l-157 -84q-61 -33 -84 -56.5t-23 -60.5v-16q0 -61 37 -81.5t150 -20.5h425q31 0 31 -33v-229q0 -30 -13 -44.5t-46 -25.5 q-162 -43 -404 -43q-137 0 -236 17t-188 57q-91 38 -138.5 119.5t-47.5 199.5zM524 975q0 98 62 153.5t172 55.5q109 0 170 -55.5t61 -153.5q0 -97 -61 -152t-170 -55q-110 0 -172 55t-62 152z" />
<glyph unicode="&#xc0;" horiz-adv-x="1519" d="M-4 33l369 1349q46 169 112 211q62 39 283 39q217 0 282 -41q67 -42 113 -209l369 -1349q6 -33 -27 -33h-358q-13 0 -18 6t-11 27l-109 401h-483l-108 -401q-5 -20 -10 -26.5t-19 -6.5h-358q-33 0 -27 33zM281 2062v15q0 20 20 20h408q18 0 24 -12l150 -285q9 -19 -6 -28 l-134 -74q-19 -9 -28 0l-424 340q-10 10 -10 24zM612 782h295l-133 484q-4 12 -16 12t-17 -12z" />
<glyph unicode="&#xc1;" horiz-adv-x="1519" d="M-4 33l369 1349q46 169 112 211q62 39 283 39q217 0 282 -41q67 -42 113 -209l369 -1349q6 -33 -27 -33h-358q-13 0 -18 6t-11 27l-109 401h-483l-108 -401q-5 -20 -10 -26.5t-19 -6.5h-358q-33 0 -27 33zM580 1800l149 285q6 12 25 12h407q21 0 21 -20v-15 q0 -13 -11 -24l-423 -340q-10 -10 -29 0l-133 74q-15 9 -6 28zM612 782h295l-133 484q-4 12 -16 12t-17 -12z" />
<glyph unicode="&#xc2;" horiz-adv-x="1519" d="M-4 33l369 1349q46 169 112 211q62 39 283 39q217 0 282 -41q67 -42 113 -209l369 -1349q6 -33 -27 -33h-358q-13 0 -18 6t-11 27l-109 401h-483l-108 -401q-5 -20 -10 -26.5t-19 -6.5h-358q-33 0 -27 33zM373 1780l211 297q14 20 47 20h256q33 0 47 -20l211 -297 q21 -24 -8 -37l-90 -43q-22 -13 -41 0l-246 158l-248 -158q-19 -13 -41 0l-90 43q-29 13 -8 37zM612 782h295l-133 484q-4 12 -16 12t-17 -12z" />
<glyph unicode="&#xc3;" horiz-adv-x="1519" d="M-4 33l369 1349q46 169 112 211q62 39 283 39q217 0 282 -41q67 -42 113 -209l369 -1349q6 -33 -27 -33h-358q-13 0 -18 6t-11 27l-109 401h-483l-108 -401q-5 -20 -10 -26.5t-19 -6.5h-358q-33 0 -27 33zM350 1794q35 158 86 215q53 59 152 59q67 0 174 -40 q104 -39 133 -39q58 0 88 67q13 28 37 19l127 -35q26 -9 20 -39q-36 -161 -86 -217q-52 -58 -151 -58q-70 0 -174 39q-109 41 -133 41q-58 0 -88 -67q-13 -28 -37 -19l-127 35q-28 9 -21 39zM612 782h295l-133 484q-4 12 -16 12t-17 -12z" />
<glyph unicode="&#xc4;" horiz-adv-x="1519" d="M-4 33l369 1349q46 169 112 211q62 39 283 39q217 0 282 -41q67 -42 113 -209l369 -1349q6 -33 -27 -33h-358q-13 0 -18 6t-11 27l-109 401h-483l-108 -401q-5 -20 -10 -26.5t-19 -6.5h-358q-33 0 -27 33zM309 1894q0 82 49.5 128t141.5 46q91 0 139.5 -45.5t48.5 -128.5 q0 -85 -48 -130.5t-140 -45.5t-141.5 45.5t-49.5 130.5zM612 782h295l-133 484q-4 12 -16 12t-17 -12zM829 1894q0 82 49.5 128t141.5 46q91 0 139.5 -45.5t48.5 -128.5q0 -85 -48 -130.5t-140 -45.5t-141.5 45.5t-49.5 130.5z" />
<glyph unicode="&#xc5;" horiz-adv-x="1519" d="M-4 33l369 1349q46 169 112 211q62 39 283 39q217 0 282 -41q67 -42 113 -209l369 -1349q6 -33 -27 -33h-358q-13 0 -18 6t-11 27l-109 401h-483l-108 -401q-5 -20 -10 -26.5t-19 -6.5h-358q-33 0 -27 33zM500 1929q0 250 260 250t260 -250t-260 -250t-260 250zM612 782 h295l-133 484q-4 12 -16 12t-17 -12zM633 1929q0 -127 127 -127t127 127t-127 127t-127 -127z" />
<glyph unicode="&#xc6;" horiz-adv-x="2201" d="M-4 33l369 1349q46 169 112 211q62 39 283 39l655 -12h670q33 0 33 -31v-313q0 -31 -33 -31h-692v-258h637q32 0 32 -31v-292q0 -31 -32 -31h-637v-258h692q33 0 33 -31v-313q0 -31 -33 -31h-1092q-30 0 -30 33v401h-445l-108 -401q-5 -20 -10 -26.5t-19 -6.5h-358 q-33 0 -27 33zM612 782h351v496h-144q-79 0 -94 -64z" />
<glyph unicode="&#xc7;" horiz-adv-x="1312" d="M78 813q0 252 31.5 401t109.5 244q80 96 207.5 135t341.5 39q262 0 424 -43q33 -11 46 -25t13 -44v-230q0 -33 -30 -33h-453q-155 0 -205 -92q-49 -91 -49 -352q0 -262 49 -356q50 -92 205 -92h453q30 0 30 -33v-230q0 -31 -13.5 -46t-45.5 -23q-136 -40 -354 -43 q39 -113 39 -211q0 -162 -242 -162q-158 0 -201 16q-24 9 -24 37v176q0 27 26 27h72q101 0 117 16q12 9 12 29q0 32 -6 76q-319 24 -436 203t-117 616z" />
<glyph unicode="&#xc8;" horiz-adv-x="1361" d="M123 33v1554q0 33 31 33h1091q33 0 33 -31v-313q0 -31 -33 -31h-692v-258h637q33 0 33 -31v-292q0 -31 -33 -31h-637v-258h692q33 0 33 -31v-313q0 -31 -33 -31h-1091q-31 0 -31 33zM317 2062v15q0 20 21 20h407q19 0 25 -12l150 -285q9 -18 -7 -28l-133 -74 q-19 -9 -28 0l-424 340q-11 11 -11 24z" />
<glyph unicode="&#xc9;" horiz-adv-x="1361" d="M123 33v1554q0 33 31 33h1091q33 0 33 -31v-313q0 -31 -33 -31h-692v-258h637q33 0 33 -31v-292q0 -31 -33 -31h-637v-258h692q33 0 33 -31v-313q0 -31 -33 -31h-1091q-31 0 -31 33zM504 1800l149 285q6 12 25 12h407q21 0 21 -20v-15q0 -14 -10 -24l-424 -340 q-10 -10 -29 0l-133 74q-15 9 -6 28z" />
<glyph unicode="&#xca;" horiz-adv-x="1361" d="M123 33v1554q0 33 31 33h1091q33 0 33 -31v-313q0 -31 -33 -31h-692v-258h637q33 0 33 -31v-292q0 -31 -33 -31h-637v-258h692q33 0 33 -31v-313q0 -31 -33 -31h-1091q-31 0 -31 33zM283 1780l211 297q14 20 47 20h256q33 0 47 -20l211 -297q21 -24 -8 -37l-91 -43 q-22 -13 -41 0l-245 158l-248 -158q-19 -13 -41 0l-90 43q-29 13 -8 37z" />
<glyph unicode="&#xcb;" horiz-adv-x="1361" d="M123 33v1554q0 33 31 33h1091q33 0 33 -31v-313q0 -31 -33 -31h-692v-258h637q33 0 33 -31v-292q0 -31 -33 -31h-637v-258h692q33 0 33 -31v-313q0 -31 -33 -31h-1091q-31 0 -31 33zM219 1894q0 82 49.5 128t141.5 46q91 0 139.5 -45.5t48.5 -128.5q0 -85 -48 -130.5 t-140 -45.5t-141.5 45.5t-49.5 130.5zM739 1894q0 82 49.5 128t141.5 46q91 0 139.5 -45.5t48.5 -128.5q0 -85 -48 -130.5t-140 -45.5t-141.5 45.5t-49.5 130.5z" />
<glyph unicode="&#xcc;" horiz-adv-x="675" d="M-74 2062v15q0 20 21 20h407q19 0 25 -12l149 -285q9 -19 -6 -28l-133 -74q-19 -10 -29 0l-423 340q-11 11 -11 24zM123 35v1550q0 35 31 35h368q31 0 31 -35v-1550q0 -35 -31 -35h-368q-31 0 -31 35z" />
<glyph unicode="&#xcd;" horiz-adv-x="675" d="M123 35v1550q0 35 31 35h368q31 0 31 -35v-1550q0 -35 -31 -35h-368q-31 0 -31 35zM147 1800l150 285q6 12 25 12h407q21 0 21 -20v-15q0 -13 -11 -24l-424 -340q-9 -9 -28 0l-133 74q-16 10 -7 28z" />
<glyph unicode="&#xce;" horiz-adv-x="675" d="M-49 1780l211 297q14 20 47 20h256q33 0 47 -20l211 -297q21 -24 -8 -37l-90 -43q-22 -13 -41 0l-246 158l-248 -158q-19 -13 -41 0l-90 43q-29 13 -8 37zM123 35v1550q0 35 31 35h368q31 0 31 -35v-1550q0 -35 -31 -35h-368q-31 0 -31 35z" />
<glyph unicode="&#xcf;" horiz-adv-x="675" d="M-113 1894q0 82 49.5 128t141.5 46q91 0 139.5 -45.5t48.5 -128.5q0 -85 -48 -130.5t-140 -45.5t-141.5 45.5t-49.5 130.5zM123 35v1550q0 35 31 35h368q31 0 31 -35v-1550q0 -35 -31 -35h-368q-31 0 -31 35zM408 1894q0 82 49 128t141 46q91 0 139.5 -45.5t48.5 -128.5 q0 -85 -48 -130.5t-140 -45.5t-141 45.5t-49 130.5z" />
<glyph unicode="&#xd0;" horiz-adv-x="1576" d="M4 702v164q0 31 31 31h127v680q0 24 31 27q316 28 622 28q376 0 531 -192q159 -194 159 -633q0 -433 -159 -627q-156 -190 -531 -190q-306 0 -622 28q-26 4 -29 9q-2 4 -2 14v631h-127q-31 0 -31 30zM592 365h223q138 0 196 102.5t58 339.5q0 241 -58 345.5t-196 104.5 h-223v-360h209q30 0 30 -31v-164q0 -30 -30 -30h-209v-307z" />
<glyph unicode="&#xd1;" horiz-adv-x="1634" d="M123 35v1550q0 35 31 35h262q40 0 67 -10q25 -10 34.5 -19t35.5 -47l528 -737v778q0 35 31 35h369q30 0 30 -35v-1550q0 -35 -30 -35h-252q-83 0 -131 66l-545 761v-792q0 -35 -31 -35h-368q-31 0 -31 35zM408 1794q35 158 86 215q53 59 151 59q67 0 174 -40 q104 -39 133 -39q58 0 88 67q13 28 37 19l127 -35q27 -9 21 -39q-36 -161 -86 -217q-52 -58 -152 -58q-70 0 -174 39q-109 41 -133 41q-58 0 -88 -67q-13 -28 -37 -19l-127 35q-27 9 -20 39z" />
<glyph unicode="&#xd2;" horiz-adv-x="1552" d="M76 809q0 249 33.5 400.5t113.5 248.5q80 96 209 135t344 39t344 -39t209 -135q80 -97 114 -248.5t34 -400.5q-3 -166 -17 -283.5t-47 -211.5t-82.5 -152t-129.5 -97t-181 -55.5t-244 -19.5q-143 3 -244 19.5t-181 55.5t-129 97t-82.5 152t-47 211.5t-16.5 283.5z M272 2062v15q0 20 21 20h407q19 0 25 -12l149 -285q9 -19 -6 -28l-133 -74q-19 -9 -28 0l-424 340q-11 11 -11 24zM512 809q0 -255 53 -350q52 -94 211 -94t211 94q53 95 53 350q0 257 -53 352q-53 96 -211 96t-211 -96q-53 -95 -53 -352z" />
<glyph unicode="&#xd3;" horiz-adv-x="1552" d="M76 809q0 249 33.5 400.5t113.5 248.5q80 96 209 135t344 39t344 -39t209 -135q80 -97 114 -248.5t34 -400.5q-3 -166 -17 -283.5t-47 -211.5t-82.5 -152t-129.5 -97t-181 -55.5t-244 -19.5q-143 3 -244 19.5t-181 55.5t-129 97t-82.5 152t-47 211.5t-16.5 283.5z M512 809q0 -255 53 -350q52 -94 211 -94t211 94q53 95 53 350q0 257 -53 352q-53 96 -211 96t-211 -96q-53 -95 -53 -352zM623 1800l149 285q6 12 25 12h407q21 0 21 -20v-15q0 -13 -11 -24l-423 -340q-10 -10 -29 0l-133 74q-15 9 -6 28z" />
<glyph unicode="&#xd4;" horiz-adv-x="1552" d="M76 809q0 249 33.5 400.5t113.5 248.5q80 96 209 135t344 39t344 -39t209 -135q80 -97 114 -248.5t34 -400.5q-3 -166 -17 -283.5t-47 -211.5t-82.5 -152t-129.5 -97t-181 -55.5t-244 -19.5q-143 3 -244 19.5t-181 55.5t-129 97t-82.5 152t-47 211.5t-16.5 283.5z M389 1780l211 297q14 20 47 20h256q33 0 47 -20l211 -297q21 -24 -8 -37l-90 -43q-22 -13 -41 0l-246 158l-248 -158q-19 -13 -41 0l-90 43q-29 13 -8 37zM512 809q0 -255 53 -350q52 -94 211 -94t211 94q53 95 53 350q0 257 -53 352q-53 96 -211 96t-211 -96 q-53 -95 -53 -352z" />
<glyph unicode="&#xd5;" horiz-adv-x="1552" d="M76 809q0 249 33.5 400.5t113.5 248.5q80 96 209 135t344 39t344 -39t209 -135q80 -97 114 -248.5t34 -400.5q-3 -166 -17 -283.5t-47 -211.5t-82.5 -152t-129.5 -97t-181 -55.5t-244 -19.5q-143 3 -244 19.5t-181 55.5t-129 97t-82.5 152t-47 211.5t-16.5 283.5z M367 1794q35 158 86 215q53 59 151 59q67 0 174 -40q104 -39 133 -39q58 0 88 67q13 28 37 19l127 -35q27 -9 21 -39q-36 -161 -86 -217q-52 -58 -152 -58q-70 0 -174 39q-109 41 -133 41q-58 0 -88 -67q-13 -28 -37 -19l-127 35q-27 9 -20 39zM512 809q0 -255 53 -350 q52 -94 211 -94t211 94q53 95 53 350q0 257 -53 352q-53 96 -211 96t-211 -96q-53 -95 -53 -352z" />
<glyph unicode="&#xd6;" horiz-adv-x="1552" d="M76 809q0 249 33.5 400.5t113.5 248.5q80 96 209 135t344 39t344 -39t209 -135q80 -97 114 -248.5t34 -400.5q-3 -166 -17 -283.5t-47 -211.5t-82.5 -152t-129.5 -97t-181 -55.5t-244 -19.5q-143 3 -244 19.5t-181 55.5t-129 97t-82.5 152t-47 211.5t-16.5 283.5z M326 1894q0 82 49 128t141 46q91 0 140 -45.5t49 -128.5q0 -85 -48.5 -130.5t-140.5 -45.5t-141 45.5t-49 130.5zM512 809q0 -255 53 -350q52 -94 211 -94t211 94q53 95 53 350q0 257 -53 352q-53 96 -211 96t-211 -96q-53 -95 -53 -352zM846 1894q0 82 49 128t141 46 q91 0 140 -45.5t49 -128.5q0 -85 -48.5 -130.5t-140.5 -45.5t-141 45.5t-49 130.5z" />
<glyph unicode="&#xd7;" horiz-adv-x="1216" d="M59 397q-21 21 2 45l279 273l-270 274q-19 23 0 45l239 242q23 19 45 0l271 -275l274 279q23 22 45 0l213 -215q21 -21 -2 -45l-276 -275l272 -268q23 -23 0 -45l-242 -239q-22 -19 -45 0l-272 266l-273 -275q-23 -24 -45 -2z" />
<glyph unicode="&#xd8;" horiz-adv-x="1552" d="M76 809q0 249 33.5 400.5t113.5 248.5q80 96 209 135t344 39q282 0 432 -78l64 91q22 29 43 8l69 -47q25 -16 7 -43l-68 -97q154 -171 154 -657q-3 -166 -17 -283.5t-47 -211.5t-82.5 -152t-129.5 -97t-181 -55.5t-244 -19.5q-281 0 -434 78l-63 -93q-19 -28 -41 -6 l-70 49q-23 14 -8 41l67 97q-151 177 -151 653zM512 809q0 -150 14 -227l432 618q-54 57 -182 57q-158 0 -211 -96q-53 -95 -53 -352zM592 424q59 -59 184 -59q159 0 211 94q53 95 53 350q0 153 -14 233z" />
<glyph unicode="&#xd9;" horiz-adv-x="1585" d="M109 809v780q0 31 30 31h369q31 0 31 -31v-780q0 -270 51 -356q52 -88 203 -88q150 0 202 88t52 356v780q0 31 30 31h369q31 0 31 -31v-780q0 -203 -20 -338t-64 -233q-70 -140 -205 -192.5t-395 -55.5q-169 0 -282.5 23.5t-195.5 74.5q-116 85 -160 248t-46 473z M344 2062v15q0 20 21 20h407q19 0 25 -12l149 -285q9 -19 -6 -28l-133 -74q-19 -10 -29 0l-424 340q-10 10 -10 24z" />
<glyph unicode="&#xda;" horiz-adv-x="1585" d="M109 809v780q0 31 30 31h369q31 0 31 -31v-780q0 -270 51 -356q52 -88 203 -88q150 0 202 88t52 356v780q0 31 30 31h369q31 0 31 -31v-780q0 -203 -20 -338t-64 -233q-70 -140 -205 -192.5t-395 -55.5q-169 0 -282.5 23.5t-195.5 74.5q-116 85 -160 248t-46 473z M571 1800l150 285q6 12 24 12h408q21 0 21 -20v-15q0 -13 -11 -24l-424 -340q-9 -9 -28 0l-133 74q-16 10 -7 28z" />
<glyph unicode="&#xdb;" horiz-adv-x="1585" d="M109 809v780q0 31 30 31h369q31 0 31 -31v-780q0 -270 51 -356q52 -88 203 -88q150 0 202 88t52 356v780q0 31 30 31h369q31 0 31 -31v-780q0 -203 -20 -338t-64 -233q-70 -140 -205 -192.5t-395 -55.5q-169 0 -282.5 23.5t-195.5 74.5q-116 85 -160 248t-46 473z M406 1780l210 297q14 20 48 20h256q33 0 47 -20l211 -297q21 -24 -9 -37l-90 -43q-22 -13 -41 0l-245 158l-248 -158q-19 -13 -41 0l-90 43q-29 13 -8 37z" />
<glyph unicode="&#xdc;" horiz-adv-x="1585" d="M109 809v780q0 31 30 31h369q31 0 31 -31v-780q0 -270 51 -356q52 -88 203 -88q150 0 202 88t52 356v780q0 31 30 31h369q31 0 31 -31v-780q0 -203 -20 -338t-64 -233q-70 -140 -205 -192.5t-395 -55.5q-169 0 -282.5 23.5t-195.5 74.5q-116 85 -160 248t-46 473z M342 1894q0 82 49 128t141 46q91 0 140 -45.5t49 -128.5q0 -85 -48.5 -130.5t-140.5 -45.5t-141 45.5t-49 130.5zM862 1894q0 82 49.5 128t141.5 46q91 0 139.5 -45.5t48.5 -128.5q0 -85 -48 -130.5t-140 -45.5t-141.5 45.5t-49.5 130.5z" />
<glyph unicode="&#xdd;" horiz-adv-x="1566" d="M-4 1575q-23 45 22 45h414q32 0 55 -33l295 -626l297 626q14 33 56 33h413q46 0 23 -45l-574 -1030v-510q0 -35 -30 -35h-369q-31 0 -31 35v516zM618 1800l150 285q6 12 25 12h407q21 0 21 -20v-15q0 -13 -11 -24l-424 -340q-9 -9 -28 0l-133 74q-16 10 -7 28z" />
<glyph unicode="&#xde;" horiz-adv-x="1431" d="M123 41v1550q0 35 31 35h368q31 0 31 -35v-229q126 6 250 6q326 0 457 -125t131 -426t-131 -426t-457 -125q-124 0 -250 6v-231q0 -35 -31 -35h-368q-31 0 -31 35zM553 631h203q115 0 156.5 39t41.5 143t-43.5 147.5t-154.5 43.5h-203v-373z" />
<glyph unicode="&#xdf;" horiz-adv-x="1363" d="M100 31v1143q0 219 129 339q128 119 453 119q310 0 448 -105t138 -343q0 -186 -62 -269t-215 -104v-6q173 -12 240 -94q69 -78 69 -273q0 -245 -133 -348q-129 -100 -462 -100q-47 0 -97 6q-32 3 -26 35l57 305q3 29 18 29h21q102 1 144 35t42 112q0 83 -46.5 118.5 t-160.5 35.5h-20q-31 0 -31 30v232q0 30 35 30h14q93 5 134.5 40t41.5 110q0 149 -151 149q-150 0 -150 -143v-1083q0 -31 -30 -31h-369q-31 0 -31 31z" />
<glyph unicode="&#xe0;" horiz-adv-x="1210" d="M45 367q2 113 31 183t92 107q61 37 138.5 50.5t209.5 13.5l195 2v10q0 103 -123 103h-430q-27 0 -27 30v248q0 27 27 33q179 37 430 37q265 0 395 -72q55 -30 86 -84q29 -51 38 -98.5t9 -128.5v-701q0 -32 -12 -47.5t-41 -19.5q-218 -43 -475 -43q-84 0 -162 4 q-66 2 -135.5 14t-104.5 33q-151 93 -141 326zM158 1653v14q0 21 20 21h408q18 0 24 -13l150 -284q10 -20 -6 -29l-133 -74q-19 -10 -29 0l-424 340q-10 10 -10 25zM444 397q0 -50 24 -68t93 -18q91 0 150 15v163h-152q-67 0 -91 -20.5t-24 -71.5z" />
<glyph unicode="&#xe1;" horiz-adv-x="1210" d="M45 367q2 113 31 183t92 107q61 37 138.5 50.5t209.5 13.5l195 2v10q0 103 -123 103h-430q-27 0 -27 30v248q0 27 27 33q179 37 430 37q265 0 395 -72q55 -30 86 -84q29 -51 38 -98.5t9 -128.5v-701q0 -32 -12 -47.5t-41 -19.5q-218 -43 -475 -43q-84 0 -162 4 q-66 2 -135.5 14t-104.5 33q-151 93 -141 326zM385 1391l150 284q7 13 24 13h408q20 0 20 -21v-14q0 -15 -10 -25l-424 -340q-10 -10 -29 0l-133 74q-16 9 -6 29zM444 397q0 -50 24 -68t93 -18q91 0 150 15v163h-152q-67 0 -91 -20.5t-24 -71.5z" />
<glyph unicode="&#xe2;" horiz-adv-x="1210" d="M45 367q2 113 31 183t92 107q61 37 138.5 50.5t209.5 13.5l195 2v10q0 103 -123 103h-430q-27 0 -27 30v248q0 27 27 33q179 37 430 37q265 0 395 -72q55 -30 86 -84q29 -51 38 -98.5t9 -128.5v-701q0 -32 -12 -47.5t-41 -19.5q-218 -43 -475 -43q-84 0 -162 4 q-66 2 -135.5 14t-104.5 33q-151 93 -141 326zM219 1370l211 297q15 21 47 21h256q32 0 47 -21l211 -297q21 -24 -8 -37l-90 -43q-22 -13 -41 0l-246 158l-248 -158q-19 -13 -41 0l-90 43q-29 13 -8 37zM444 397q0 -50 24 -68t93 -18q91 0 150 15v163h-152q-67 0 -91 -20.5 t-24 -71.5z" />
<glyph unicode="&#xe3;" horiz-adv-x="1210" d="M45 367q2 113 31 183t92 107q61 37 138.5 50.5t209.5 13.5l195 2v10q0 103 -123 103h-430q-27 0 -27 30v248q0 27 27 33q179 37 430 37q265 0 395 -72q55 -30 86 -84q29 -51 38 -98.5t9 -128.5v-701q0 -32 -12 -47.5t-41 -19.5q-218 -43 -475 -43q-84 0 -162 4 q-66 2 -135.5 14t-104.5 33q-151 93 -141 326zM197 1384q35 158 86 215q54 60 151 60q65 0 174 -41q104 -39 133 -39q58 0 88 68q12 27 37 18l127 -35q27 -9 21 -39q-36 -161 -86 -217q-51 -57 -152 -57q-70 0 -174 39q-109 41 -133 41q-58 0 -88 -68q-12 -27 -37 -18 l-127 35q-26 9 -20 38zM444 397q0 -50 24 -68t93 -18q91 0 150 15v163h-152q-67 0 -91 -20.5t-24 -71.5z" />
<glyph unicode="&#xe4;" horiz-adv-x="1210" d="M45 367q2 113 31 183t92 107q61 37 138.5 50.5t209.5 13.5l195 2v10q0 103 -123 103h-430q-27 0 -27 30v248q0 27 27 33q179 37 430 37q265 0 395 -72q55 -30 86 -84q29 -51 38 -98.5t9 -128.5v-701q0 -32 -12 -47.5t-41 -19.5q-218 -43 -475 -43q-84 0 -162 4 q-66 2 -135.5 14t-104.5 33q-151 93 -141 326zM156 1485q0 82 49 128t141 46q91 0 140 -45.5t49 -128.5q0 -85 -48.5 -130.5t-140.5 -45.5t-141 45.5t-49 130.5zM444 397q0 -50 24 -68t93 -18q91 0 150 15v163h-152q-67 0 -91 -20.5t-24 -71.5zM676 1485q0 82 49 128t141 46 q91 0 140 -45.5t49 -128.5q0 -85 -48.5 -130.5t-140.5 -45.5t-141 45.5t-49 130.5z" />
<glyph unicode="&#xe5;" horiz-adv-x="1210" d="M45 367q2 113 31 183t92 107q61 37 138.5 50.5t209.5 13.5l195 2v10q0 103 -123 103h-430q-27 0 -27 30v248q0 27 27 33q179 37 430 37q265 0 395 -72q55 -30 86 -84q29 -51 38 -98.5t9 -128.5v-701q0 -32 -12 -47.5t-41 -19.5q-218 -43 -475 -43q-84 0 -162 4 q-66 2 -135.5 14t-104.5 33q-151 93 -141 326zM346 1520q0 249 260 249t260 -249q0 -250 -260 -250t-260 250zM444 397q0 -50 24 -68t93 -18q91 0 150 15v163h-152q-67 0 -91 -20.5t-24 -71.5zM479 1520q0 -127 127 -127t127 127t-127 127t-127 -127z" />
<glyph unicode="&#xe6;" horiz-adv-x="1871" d="M45 367q2 113 31 183t92 107q61 37 138.5 50.5t209.5 13.5l195 2v10q0 103 -123 103h-430q-27 0 -27 30v248q0 27 27 33q179 37 430 37q216 0 344 -84q141 84 340 84q331 0 438 -119q111 -120 111 -479v-66q0 -30 -13.5 -42.5t-44.5 -12.5h-635q0 -86 37 -107 q39 -20 156 -20h389q31 0 31 -31v-246q0 -28 -29 -34q-148 -37 -440 -37q-94 0 -191 20q-93 19 -159 53q-137 -73 -334 -73q-84 0 -162 4q-66 2 -135.5 14t-104.5 33q-151 93 -141 326zM444 397q0 -52 25 -72t92 -20q126 0 193 33q-27 71 -27 151h-168q-67 0 -91 -20.5 t-24 -71.5zM1124 698h289q0 74 -34 106t-107 32q-148 0 -148 -138z" />
<glyph unicode="&#xe7;" horiz-adv-x="1089" d="M70 588q0 196 21.5 300.5t82.5 174.5t165 95.5t294 25.5q228 0 358 -37q37 -9 37 -45v-234q0 -32 -37 -32h-358q-97 0 -127 -50q-31 -51 -31 -198t31 -201q30 -49 127 -49h358q37 0 37 -33v-233q0 -36 -37 -45q-90 -26 -270 -35q39 -116 39 -213q0 -162 -242 -162 q-158 0 -201 16q-24 9 -24 37v176q0 27 26 27h72q101 0 117 16q12 9 12 29q0 30 -6 76q-273 15 -358 137q-86 124 -86 457z" />
<glyph unicode="&#xe8;" horiz-adv-x="1226" d="M68 586q0 359 112 477q115 121 447 121q331 0 438 -119q111 -120 111 -479v-66q0 -30 -13.5 -42.5t-44.5 -12.5h-635q0 -86 37 -107q39 -20 156 -20h389q31 0 31 -31v-246q0 -28 -29 -34q-148 -37 -440 -37q-334 0 -447 119q-112 118 -112 477zM168 1653v14q0 21 20 21 h408q18 0 25 -13l149 -284q10 -20 -6 -29l-133 -74q-19 -10 -29 0l-424 340q-10 10 -10 25zM479 698h289q0 74 -34 106t-107 32q-148 0 -148 -138z" />
<glyph unicode="&#xe9;" horiz-adv-x="1226" d="M68 586q0 359 112 477q115 121 447 121q331 0 438 -119q111 -120 111 -479v-66q0 -30 -13.5 -42.5t-44.5 -12.5h-635q0 -86 37 -107q39 -20 156 -20h389q31 0 31 -31v-246q0 -28 -29 -34q-148 -37 -440 -37q-334 0 -447 119q-112 118 -112 477zM426 1391l149 284 q7 13 25 13h408q20 0 20 -21v-14q0 -15 -10 -25l-424 -340q-10 -10 -29 0l-133 74q-16 9 -6 29zM479 698h289q0 74 -34 106t-107 32q-148 0 -148 -138z" />
<glyph unicode="&#xea;" horiz-adv-x="1226" d="M68 586q0 359 112 477q115 121 447 121q331 0 438 -119q111 -120 111 -479v-66q0 -30 -13.5 -42.5t-44.5 -12.5h-635q0 -86 37 -107q39 -20 156 -20h389q31 0 31 -31v-246q0 -28 -29 -34q-148 -37 -440 -37q-334 0 -447 119q-112 118 -112 477zM242 1370l211 297 q15 21 47 21h256q32 0 47 -21l211 -297q21 -24 -8 -37l-91 -43q-22 -13 -41 0l-245 158l-248 -158q-19 -13 -41 0l-90 43q-29 13 -8 37zM479 698h289q0 74 -34 106t-107 32q-148 0 -148 -138z" />
<glyph unicode="&#xeb;" horiz-adv-x="1226" d="M68 586q0 359 112 477q115 121 447 121q331 0 438 -119q111 -120 111 -479v-66q0 -30 -13.5 -42.5t-44.5 -12.5h-635q0 -86 37 -107q39 -20 156 -20h389q31 0 31 -31v-246q0 -28 -29 -34q-148 -37 -440 -37q-334 0 -447 119q-112 118 -112 477zM178 1485q0 82 49.5 128 t141.5 46q91 0 139.5 -45.5t48.5 -128.5q0 -85 -48 -130.5t-140 -45.5t-141.5 45.5t-49.5 130.5zM479 698h289q0 74 -34 106t-107 32q-148 0 -148 -138zM698 1485q0 82 49.5 128t141.5 46q91 0 139.5 -45.5t48.5 -128.5q0 -85 -48 -130.5t-140 -45.5t-141.5 45.5 t-49.5 130.5z" />
<glyph unicode="&#xec;" horiz-adv-x="606" d="M-100 1653v14q0 21 20 21h408q18 0 24 -13l150 -284q10 -20 -6 -29l-134 -74q-19 -9 -28 0l-424 340q-10 10 -10 25zM100 33v1108q0 33 31 33h344q31 0 31 -33v-1108q0 -33 -31 -33h-344q-31 0 -31 33z" />
<glyph unicode="&#xed;" horiz-adv-x="606" d="M100 33v1108q0 33 31 33h344q31 0 31 -33v-1108q0 -33 -31 -33h-344q-31 0 -31 33zM125 1391l149 284q6 13 25 13h408q20 0 20 -21v-14q0 -15 -10 -25l-424 -340q-10 -10 -29 0l-133 74q-16 9 -6 29z" />
<glyph unicode="&#xee;" horiz-adv-x="606" d="M-82 1370l211 297q15 21 47 21h256q32 0 47 -21l211 -297q21 -24 -8 -37l-90 -43q-22 -13 -41 0l-246 158l-248 -158q-19 -13 -41 0l-90 43q-29 13 -8 37zM100 33v1108q0 33 31 33h344q31 0 31 -33v-1108q0 -33 -31 -33h-344q-31 0 -31 33z" />
<glyph unicode="&#xef;" horiz-adv-x="606" d="M-147 1485q0 82 49 128t141 46q91 0 139.5 -45.5t48.5 -128.5q0 -85 -48 -130.5t-140 -45.5t-141 45.5t-49 130.5zM100 33v1108q0 33 31 33h344q31 0 31 -33v-1108q0 -33 -31 -33h-344q-31 0 -31 33zM373 1485q0 82 49 128t141 46q91 0 140 -45.5t49 -128.5 q0 -85 -48.5 -130.5t-140.5 -45.5t-141 45.5t-49 130.5z" />
<glyph unicode="&#xf0;" horiz-adv-x="1253" d="M55 530q0 299 97 404q94 102 378 102q42 0 82 -6l-163 270l-168 -59q-30 -12 -39 19l-21 53q-10 29 19 39l145 53l-106 176q-10 17 -4.5 27t24.5 10l367 2q24 0 36 -21l41 -67l142 51q30 12 39 -18l20 -54q10 -29 -18 -38l-121 -43l328 -558q55 -85 55 -342 q0 -174 -25 -272.5t-90 -159.5q-64 -61 -166.5 -84.5t-285.5 -23.5q-339 0 -453 108q-113 107 -113 432zM463 530q0 -113 32.5 -152.5t125.5 -39.5q96 0 127.5 39t31.5 153t-31.5 153.5t-127.5 39.5q-93 0 -125.5 -40t-32.5 -153z" />
<glyph unicode="&#xf1;" d="M100 33v1081q0 13 4 20t9 8.5t16 4.5q148 37 551 37q311 0 412 -101q100 -97 100 -403v-647q0 -33 -31 -33h-346q-29 0 -29 33v510q0 91 -2 116q0 42 -6 82.5t-16 51.5q-16 27 -51 35t-109 8h-94v-803q0 -33 -31 -33h-348q-29 0 -29 33zM229 1384q35 158 86 215 q54 60 152 60q65 0 174 -41q104 -39 133 -39q58 0 88 68q12 27 37 18l127 -35q27 -9 21 -39q-36 -161 -86 -217q-51 -57 -152 -57q-70 0 -174 39q-109 41 -133 41q-58 0 -88 -68q-12 -27 -37 -18l-127 35q-27 9 -21 38z" />
<glyph unicode="&#xf2;" horiz-adv-x="1267" d="M68 586q0 359 112 477q115 121 453 121q339 0 452 -119q115 -121 115 -479q0 -356 -115 -477q-113 -119 -452 -119q-340 0 -453 119q-112 118 -112 477zM166 1653v14q0 21 20 21h408q18 0 24 -13l150 -284q10 -20 -6 -29l-133 -74q-19 -10 -29 0l-424 340q-10 10 -10 25z M475 586q0 -148 31 -199q34 -49 127 -49q97 0 127 49q33 47 33 199q0 153 -33 200q-30 50 -127 50q-92 0 -127 -50q-31 -51 -31 -200z" />
<glyph unicode="&#xf3;" horiz-adv-x="1267" d="M68 586q0 359 112 477q115 121 453 121q339 0 452 -119q115 -121 115 -479q0 -356 -115 -477q-113 -119 -452 -119q-340 0 -453 119q-112 118 -112 477zM459 1391l149 284q6 13 25 13h407q21 0 21 -21v-14q0 -15 -10 -25l-424 -340q-10 -10 -29 0l-133 74q-16 9 -6 29z M475 586q0 -148 31 -199q34 -49 127 -49q97 0 127 49q33 47 33 199q0 153 -33 200q-30 50 -127 50q-92 0 -127 -50q-31 -51 -31 -200z" />
<glyph unicode="&#xf4;" horiz-adv-x="1267" d="M68 586q0 359 112 477q115 121 453 121q339 0 452 -119q115 -121 115 -479q0 -356 -115 -477q-113 -119 -452 -119q-340 0 -453 119q-112 118 -112 477zM248 1370l211 297q15 21 47 21h256q32 0 47 -21l211 -297q21 -24 -8 -37l-90 -43q-22 -13 -41 0l-246 158l-248 -158 q-19 -13 -41 0l-90 43q-29 13 -8 37zM475 586q0 -148 31 -199q34 -49 127 -49q97 0 127 49q33 47 33 199q0 153 -33 200q-30 50 -127 50q-92 0 -127 -50q-31 -51 -31 -200z" />
<glyph unicode="&#xf5;" horiz-adv-x="1267" d="M68 586q0 359 112 477q115 121 453 121q339 0 452 -119q115 -121 115 -479q0 -356 -115 -477q-113 -119 -452 -119q-340 0 -453 119q-112 118 -112 477zM225 1384q35 158 86 215q54 60 152 60q65 0 174 -41q104 -39 133 -39q58 0 88 68q12 27 37 18l127 -35q26 -9 20 -39 q-36 -161 -86 -217q-51 -57 -151 -57q-70 0 -174 39q-109 41 -133 41q-58 0 -88 -68q-12 -27 -37 -18l-127 35q-27 9 -21 38zM475 586q0 -148 31 -199q34 -49 127 -49q97 0 127 49q33 47 33 199q0 153 -33 200q-30 50 -127 50q-92 0 -127 -50q-31 -51 -31 -200z" />
<glyph unicode="&#xf6;" horiz-adv-x="1267" d="M68 586q0 359 112 477q115 121 453 121q339 0 452 -119q115 -121 115 -479q0 -356 -115 -477q-113 -119 -452 -119q-340 0 -453 119q-112 118 -112 477zM184 1485q0 82 49.5 128t141.5 46q91 0 139.5 -45.5t48.5 -128.5q0 -85 -48 -130.5t-140 -45.5t-141.5 45.5 t-49.5 130.5zM475 586q0 -148 31 -199q34 -49 127 -49q97 0 127 49q33 47 33 199q0 153 -33 200q-30 50 -127 50q-92 0 -127 -50q-31 -51 -31 -200zM705 1485q0 82 49 128t141 46q91 0 139.5 -45.5t48.5 -128.5q0 -85 -48 -130.5t-140 -45.5t-141 45.5t-49 130.5z" />
<glyph unicode="&#xf7;" horiz-adv-x="1200" d="M51 524v314q0 30 33 30h1032q33 0 33 -30v-314q0 -30 -33 -30h-1032q-33 0 -33 30zM369 199q0 97 61.5 152t171.5 55q109 0 170.5 -55t61.5 -152q0 -98 -61.5 -153.5t-170.5 -55.5q-110 0 -171.5 55.5t-61.5 153.5zM369 1163q0 97 61.5 152t171.5 55q109 0 170.5 -55 t61.5 -152q0 -98 -61.5 -153.5t-170.5 -55.5q-110 0 -171.5 55.5t-61.5 153.5z" />
<glyph unicode="&#xf8;" horiz-adv-x="1267" d="M68 586q0 359 112 477q115 121 453 121q193 0 309 -35l55 80q22 29 43 8l70 -47q24 -15 6 -43l-47 -66q71 -62 101 -178.5t30 -316.5q0 -356 -115 -477q-113 -119 -452 -119q-196 0 -305 33l-58 -80q-19 -28 -41 -6l-69 49q-23 14 -8 41l47 65q-71 62 -101 178t-30 316z M475 586q0 -58 4 -94l234 333q-42 11 -80 11q-92 0 -127 -50q-31 -51 -31 -200zM555 348q27 -10 78 -10q97 0 127 49q33 47 33 199q0 12 -1 26.5t-2 35t-2 34.5z" />
<glyph unicode="&#xf9;" d="M92 494v647q0 33 33 33h344q29 0 29 -33v-510v-119q4 -101 22 -133q46 -49 162 -41h94v803q0 33 31 33h348q29 0 29 -33v-1078q0 -19 -5.5 -25t-23.5 -11q-191 -37 -551 -37q-310 0 -411 98q-101 101 -101 406zM203 1653v14q0 21 20 21h408q17 0 24 -13l150 -284 q10 -20 -6 -29l-133 -74q-19 -10 -29 0l-424 340q-10 10 -10 25z" />
<glyph unicode="&#xfa;" d="M92 494v647q0 33 33 33h344q29 0 29 -33v-510v-119q4 -101 22 -133q46 -49 162 -41h94v803q0 33 31 33h348q29 0 29 -33v-1078q0 -19 -5.5 -25t-23.5 -11q-191 -37 -551 -37q-310 0 -411 98q-101 101 -101 406zM408 1391l149 284q7 13 25 13h407q21 0 21 -21v-14 q0 -14 -11 -25l-424 -340q-9 -9 -28 0l-133 74q-16 9 -6 29z" />
<glyph unicode="&#xfb;" d="M92 494v647q0 33 33 33h344q29 0 29 -33v-510v-119q4 -101 22 -133q46 -49 162 -41h94v803q0 33 31 33h348q29 0 29 -33v-1078q0 -19 -5.5 -25t-23.5 -11q-191 -37 -551 -37q-310 0 -411 98q-101 101 -101 406zM252 1370l211 297q15 21 47 21h256q32 0 47 -21l211 -297 q21 -24 -8 -37l-90 -43q-22 -13 -41 0l-246 158l-248 -158q-19 -13 -41 0l-90 43q-29 13 -8 37z" />
<glyph unicode="&#xfc;" d="M92 494v647q0 33 33 33h344q29 0 29 -33v-510v-119q4 -101 22 -133q46 -49 162 -41h94v803q0 33 31 33h348q29 0 29 -33v-1078q0 -19 -5.5 -25t-23.5 -11q-191 -37 -551 -37q-310 0 -411 98q-101 101 -101 406zM158 1485q0 82 49 128t141 46q91 0 140 -45.5t49 -128.5 q0 -85 -48.5 -130.5t-140.5 -45.5t-141 45.5t-49 130.5zM678 1485q0 82 49 128t141 46q91 0 140 -45.5t49 -128.5q0 -85 -48.5 -130.5t-140.5 -45.5t-141 45.5t-49 130.5z" />
<glyph unicode="&#xfd;" horiz-adv-x="1325" d="M90 487v656q0 31 31 31h344q31 0 31 -31v-555q0 -154 41 -201q44 -47 168 -47q65 0 112 12v791q0 31 31 31h344q31 0 31 -31v-1192q0 -81 -9 -128.5t-38 -98.5q-44 -76 -156.5 -114t-325.5 -42q-279 0 -458 37q-27 6 -27 33v221q0 30 27 30h411q98 0 134 24.5t36 90.5v14 q-128 -28 -233 -28q-261 0 -377.5 120t-116.5 377zM467 1391l149 284q6 13 25 13h408q20 0 20 -21v-14q0 -15 -10 -25l-424 -340q-10 -10 -29 0l-133 74q-16 9 -6 29z" />
<glyph unicode="&#xfe;" horiz-adv-x="1277" d="M100 -387v1974q0 33 31 33h344q31 0 31 -33v-416q143 13 233 13q267 0 369 -129q102 -126 102 -469q0 -353 -116 -475q-118 -121 -465 -121q-5 0 -123 4v-381q0 -33 -31 -33h-344q-31 0 -31 33zM506 350q52 -12 133 -12q113 0 139 51q27 53 27 197q0 160 -33 202 q-34 46 -154 46h-112v-484z" />
<glyph unicode="&#xff;" horiz-adv-x="1325" d="M90 487v656q0 31 31 31h344q31 0 31 -31v-555q0 -154 41 -201q44 -47 168 -47q65 0 112 12v791q0 31 31 31h344q31 0 31 -31v-1192q0 -81 -9 -128.5t-38 -98.5q-44 -76 -156.5 -114t-325.5 -42q-279 0 -458 37q-27 6 -27 33v221q0 30 27 30h411q98 0 134 24.5t36 90.5v14 q-128 -28 -233 -28q-261 0 -377.5 120t-116.5 377zM193 1485q0 82 49 128t141 46q91 0 139.5 -45.5t48.5 -128.5q0 -85 -48 -130.5t-140 -45.5t-141 45.5t-49 130.5zM713 1485q0 82 49 128t141 46q91 0 140 -45.5t49 -128.5q0 -85 -48.5 -130.5t-140.5 -45.5t-141 45.5 t-49 130.5z" />
<glyph unicode="&#x152;" horiz-adv-x="2224" d="M76 809q0 477 147 653t553 170l717 -12h614q33 0 33 -31v-313q0 -31 -33 -31h-663v-258h608q33 0 33 -31v-292q0 -31 -33 -31h-608v-258h663q33 0 33 -31v-313q0 -31 -33 -31l-1331 -10q-408 -3 -553 170q-147 175 -147 649zM512 809q0 -255 53 -350q52 -94 211 -94h238 v892h-238q-158 0 -211 -96q-53 -95 -53 -352z" />
<glyph unicode="&#x153;" horiz-adv-x="1957" d="M68 586q0 359 112 477q115 121 453 121q238 0 366 -90q128 90 359 90q331 0 438 -119q111 -120 111 -479v-66q0 -30 -13.5 -42.5t-44.5 -12.5h-635q0 -86 37 -107q39 -20 156 -20h389q31 0 31 -31v-246q0 -28 -29 -34q-148 -37 -440 -37q-231 0 -359 90 q-128 -90 -366 -90q-340 0 -453 119q-112 118 -112 477zM475 586q0 -148 31 -199q34 -49 127 -49q97 0 127 49q33 47 33 199q0 153 -33 200q-30 50 -127 50q-92 0 -127 -50q-31 -51 -31 -200zM1210 698h289q0 74 -34 106t-107 32q-148 0 -148 -138z" />
<glyph unicode="&#x178;" horiz-adv-x="1566" d="M-4 1575q-23 45 22 45h414q32 0 55 -33l295 -626l297 626q14 33 56 33h413q46 0 23 -45l-574 -1030v-510q0 -35 -30 -35h-369q-31 0 -31 35v516zM334 1894q0 82 49 128t141 46q91 0 140 -45.5t49 -128.5q0 -85 -48.5 -130.5t-140.5 -45.5t-141 45.5t-49 130.5zM854 1894 q0 82 49 128t141 46q91 0 140 -45.5t49 -128.5q0 -85 -48.5 -130.5t-140.5 -45.5t-141 45.5t-49 130.5z" />
<glyph unicode="&#x2c6;" horiz-adv-x="1280" d="M254 1370l211 297q15 21 47 21h256q32 0 47 -21l211 -297q21 -24 -8 -37l-90 -43q-22 -13 -41 0l-246 158l-248 -158q-19 -13 -41 0l-90 43q-29 13 -8 37z" />
<glyph unicode="&#x2dc;" horiz-adv-x="1312" d="M248 1384q35 158 86 215q54 60 151 60q65 0 174 -41q104 -39 134 -39q58 0 88 68q12 27 37 18l126 -35q27 -9 21 -39q-36 -161 -86 -217q-51 -57 -152 -57q-70 0 -174 39q-109 41 -133 41q-58 0 -88 -68q-12 -27 -37 -18l-127 35q-26 9 -20 38z" />
<glyph unicode="&#x2000;" horiz-adv-x="1089" />
<glyph unicode="&#x2001;" horiz-adv-x="2179" />
<glyph unicode="&#x2002;" horiz-adv-x="1089" />
<glyph unicode="&#x2003;" horiz-adv-x="2179" />
<glyph unicode="&#x2004;" horiz-adv-x="726" />
<glyph unicode="&#x2005;" horiz-adv-x="544" />
<glyph unicode="&#x2006;" horiz-adv-x="363" />
<glyph unicode="&#x2007;" horiz-adv-x="363" />
<glyph unicode="&#x2008;" horiz-adv-x="272" />
<glyph unicode="&#x2009;" horiz-adv-x="435" />
<glyph unicode="&#x200a;" horiz-adv-x="121" />
<glyph unicode="&#x2010;" horiz-adv-x="968" d="M98 494v313q0 31 33 31h707q32 0 32 -31v-313q0 -31 -32 -31h-707q-33 0 -33 31z" />
<glyph unicode="&#x2011;" horiz-adv-x="968" d="M98 494v313q0 31 33 31h707q32 0 32 -31v-313q0 -31 -32 -31h-707q-33 0 -33 31z" />
<glyph unicode="&#x2012;" horiz-adv-x="968" d="M98 494v313q0 31 33 31h707q32 0 32 -31v-313q0 -31 -32 -31h-707q-33 0 -33 31z" />
<glyph unicode="&#x2013;" horiz-adv-x="1255" d="M98 494v313q0 31 33 31h993q33 0 33 -31v-313q0 -31 -33 -31h-993q-33 0 -33 31z" />
<glyph unicode="&#x2014;" horiz-adv-x="2035" d="M98 494v313q0 31 33 31h1774q32 0 32 -31v-313q0 -31 -32 -31h-1774q-33 0 -33 31z" />
<glyph unicode="&#x2018;" horiz-adv-x="692" d="M31 952v64q0 14 10 31l451 563q12 15 30 6l133 -74q13 -9 7 -29l-162 -563q-6 -18 -23 -18h-426q-20 0 -20 20z" />
<glyph unicode="&#x2019;" horiz-adv-x="673" d="M39 1038l162 564q6 18 22 18h426q21 0 21 -21v-63q0 -13 -11 -31l-450 -563q-12 -15 -31 -6l-133 74q-12 9 -6 28z" />
<glyph unicode="&#x201a;" horiz-adv-x="649" d="M-45 -309l162 563q6 18 22 18h426q21 0 21 -20v-64q0 -12 -11 -30l-450 -564q-12 -15 -31 -6l-133 74q-12 9 -6 29z" />
<glyph unicode="&#x201c;" horiz-adv-x="1327" d="M31 952v64q0 14 10 31l451 563q12 15 30 6l133 -74q13 -9 7 -29l-162 -563q-6 -18 -23 -18h-426q-20 0 -20 20zM666 952v64q0 14 10 31l450 563q12 15 31 6l133 -74q12 -9 6 -29l-161 -563q-6 -18 -23 -18h-426q-20 0 -20 20z" />
<glyph unicode="&#x201d;" horiz-adv-x="1308" d="M39 1038l162 564q6 18 22 18h426q21 0 21 -21v-63q0 -13 -11 -31l-450 -563q-12 -15 -31 -6l-133 74q-12 9 -6 28zM674 1038l162 564q6 18 22 18h426q21 0 21 -21v-63q0 -13 -11 -31l-450 -563q-12 -15 -31 -6l-133 74q-12 9 -6 28z" />
<glyph unicode="&#x201e;" horiz-adv-x="1265" d="M-45 -309l162 563q6 18 22 18h426q21 0 21 -20v-64q0 -12 -11 -30l-450 -564q-12 -15 -31 -6l-133 74q-12 9 -6 29zM571 -309l162 563q6 18 23 18h426q20 0 20 -20v-64q0 -13 -10 -30l-451 -564q-12 -15 -30 -6l-133 74q-13 9 -7 29z" />
<glyph unicode="&#x2022;" horiz-adv-x="1146" d="M166 594q0 170 108.5 267t300.5 97t300 -96.5t108 -267.5q0 -172 -108 -269.5t-300 -97.5t-300.5 97.5t-108.5 269.5z" />
<glyph unicode="&#x2026;" horiz-adv-x="1826" d="M55 199q0 97 62 152t172 55q109 0 170 -55t61 -152q0 -98 -61 -153.5t-170 -55.5q-110 0 -172 55.5t-62 153.5zM672 199q0 97 61.5 152t171.5 55q109 0 170.5 -55t61.5 -152q0 -98 -61.5 -153.5t-170.5 -55.5q-110 0 -171.5 55.5t-61.5 153.5zM1307 199q0 97 61.5 152 t171.5 55q109 0 170.5 -55t61.5 -152q0 -98 -61.5 -153.5t-170.5 -55.5q-110 0 -171.5 55.5t-61.5 153.5z" />
<glyph unicode="&#x202f;" horiz-adv-x="435" />
<glyph unicode="&#x2039;" horiz-adv-x="768" d="M53 506v139q0 34 23 64l217 284q16 19 37 19h342q30 0 30 -31v-14q0 -23 -14 -37l-282 -355l282 -354q14 -14 14 -37v-14q0 -31 -30 -31h-342q-21 0 -37 19l-217 284q-23 30 -23 64z" />
<glyph unicode="&#x203a;" horiz-adv-x="768" d="M66 170v14q0 23 14 37l282 354l-282 355q-14 14 -14 37v14q0 31 30 31h342q21 0 37 -19l217 -284q23 -30 23 -64v-139q0 -34 -23 -64l-217 -284q-16 -19 -37 -19h-342q-30 0 -30 31z" />
<glyph unicode="&#x205f;" horiz-adv-x="544" />
<glyph unicode="&#x20ac;" horiz-adv-x="1484" d="M39 657l22 82q6 31 41 31h191v43v64h-162q-31 0 -25 30l23 82q9 31 41 31h129q27 349 174 481q149 131 510 131q71 0 191 -12q114 -11 192 -31q74 -21 59 -69l-69 -230q-11 -33 -39 -33h-334q-121 0 -175 -51.5t-71 -185.5h482q33 0 24 -31l-22 -82q-6 -30 -41 -30h-451 v-64v-43h422q31 0 25 -31l-23 -82q-6 -30 -41 -30h-377q13 -146 68 -204t180 -58h342q31 0 31 -33v-230q0 -31 -14 -46t-46 -23q-148 -43 -313 -43q-365 0 -514 137t-170 500h-236q-30 0 -24 30z" />
<glyph unicode="&#x2122;" horiz-adv-x="2062" d="M45 1446v147q0 29 29 29h721q28 0 28 -29v-147q0 -29 -28 -29h-244v-733q0 -29 -29 -29h-180q-27 0 -27 29v733h-241q-29 0 -29 29zM809 684l92 918q3 20 17 20h194q33 0 46.5 -9.5t23.5 -39.5l211 -555l211 555q12 31 25.5 40t45.5 9h193q16 0 16 -18l92 -920 q3 -29 -28 -29h-179q-25 0 -28 29l-47 514l-195 -485q-7 -17 -24 -17h-162q-18 0 -25 17l-194 485l-47 -514q-3 -29 -29 -29h-180q-32 0 -29 29z" />
<glyph unicode="&#x25fc;" horiz-adv-x="1177" d="M0 0v1178h1178v-1178h-1178z" />
</font>
</defs>
</svg>
