<?xml version="1.0" standalone="no"?>
<!DOCTYPE svg PUBLIC "-//W3C//DTD SVG 1.1//EN" "http://www.w3.org/Graphics/SVG/1.1/DTD/svg11.dtd" >
<svg xmlns="http://www.w3.org/2000/svg" xmlns:xlink="http://www.w3.org/1999/xlink" version="1.1">
<metadata></metadata>
<defs>
<font id="univia_promedium" horiz-adv-x="1499" >
<font-face units-per-em="2048" ascent="1638" descent="-410" />
<missing-glyph horiz-adv-x="440" />
<glyph unicode="&#xfb01;" horiz-adv-x="1304" d="M41 967v133q0 30 33 30h139v185q0 172 111 223q53 24 99.5 31.5t119.5 7.5q62 0 170 -18q28 -6 28 -37v-129q0 -31 -32 -31h-103q-85 0 -115 -18t-30 -78v-136h680q30 0 30 -30v-1069q0 -31 -30 -31h-187q-30 0 -30 31v905h-463v-905q0 -31 -31 -31h-186q-31 0 -31 31 v905h-139q-33 0 -33 31zM899 1456q0 68 39 104.5t111 36.5q69 0 108 -37t39 -104t-39 -104t-108 -37q-72 0 -111 36.5t-39 104.5z" />
<glyph unicode="&#xfb02;" horiz-adv-x="1282" d="M41 967v133q0 30 33 30h139v185q0 172 139 223q66 24 127.5 31.5t161.5 7.5q160 0 477 -25q31 -3 31 -30v-1491q0 -31 -31 -31h-186q-31 0 -31 31v1327l-270 4q-94 0 -132 -19t-38 -77v-136h248q30 0 24 -32l-22 -133q-6 -29 -35 -29h-215v-905q0 -31 -31 -31h-186 q-31 0 -31 31v905h-139q-33 0 -33 31z" />
<glyph unicode="&#xfb03;" horiz-adv-x="2078" d="M41 967v133q0 30 33 30h139v185q0 172 111 223q53 24 99.5 31.5t119.5 7.5q77 0 188 -18q31 -6 31 -37v-129q0 -31 -33 -31h-123q-85 0 -115 -18t-30 -78v-136h526v185q0 172 111 223q87 34 157.5 38.5t241.5 -17.5q29 -6 29 -37v-129q0 -31 -33 -31h-113q-85 0 -115 -18 t-30 -78v-136h680q31 0 31 -30v-1069q0 -31 -31 -31h-186q-31 0 -31 31v905h-463v-905q0 -31 -31 -31h-186q-31 0 -31 31v905h-526v-905q0 -31 -31 -31h-186q-31 0 -31 31v905h-139q-33 0 -33 31zM1673 1456q0 69 39 105t111 36q71 0 110 -36t39 -105q0 -68 -39 -104 q-40 -37 -110 -37q-71 0 -111 37q-39 36 -39 104z" />
<glyph unicode="&#xfb04;" horiz-adv-x="2056" d="M41 967v133q0 30 33 30h139v185q0 172 111 223q53 24 99.5 31.5t119.5 7.5q110 0 221 -18q31 -6 31 -37v-129q0 -31 -33 -31h-156q-85 0 -115 -18t-30 -78v-136h526v185q0 172 139 223q66 24 127.5 31.5t161.5 7.5q163 0 477 -25q31 -3 31 -30v-1491q0 -31 -31 -31h-186 q-31 0 -31 31v1327l-270 4q-87 2 -125.5 -16.5t-44.5 -79.5v-136h242q30 0 24 -32l-24 -133q-6 -29 -33 -29h-209v-905q0 -31 -31 -31h-186q-31 0 -31 31v905h-526v-905q0 -31 -31 -31h-186q-31 0 -31 31v905h-139q-33 0 -33 31z" />
<glyph horiz-adv-x="0" />
<glyph horiz-adv-x="682" />
<glyph unicode=" "  horiz-adv-x="440" />
<glyph unicode="&#x09;" horiz-adv-x="440" />
<glyph unicode="&#xa0;" horiz-adv-x="440" />
<glyph unicode="!" horiz-adv-x="569" d="M135 131q0 67 40 104t112 37q69 0 108 -37t39 -104t-39 -104t-108 -37q-72 0 -112 37t-40 104zM154 823v713q0 31 30 31h201q31 0 31 -31v-713l-4 -41l-47 -313q-3 -33 -31 -33h-101q-24 0 -30 33l-47 313q-2 14 -2 41z" />
<glyph unicode="&#x22;" horiz-adv-x="925" d="M104 1317v219q0 31 31 31h199q31 0 31 -31v-219q0 -20 -3 -41l-47 -315q-6 -31 -30 -31h-101q-24 0 -30 31l-48 315q-2 14 -2 41zM563 1317v219q0 31 31 31h199q30 0 30 -31v-219q0 -27 -2 -41l-47 -315q-6 -31 -31 -31h-100q-25 0 -31 31l-47 315q-2 14 -2 41z" />
<glyph unicode="#" horiz-adv-x="1417" d="M94 391v158q0 31 31 31h182v403h-182q-31 0 -31 31v160q0 30 31 30h182v332q0 31 31 31h180q31 0 31 -31v-332h295v332q0 31 30 31h183q30 0 30 -31v-332h205q31 0 31 -30v-160q0 -31 -31 -31h-205v-403h205q31 0 31 -31v-158q0 -31 -31 -31h-205v-329q0 -31 -30 -31 h-183q-30 0 -30 31v329h-295v-329q0 -31 -31 -31h-180q-31 0 -31 31v329h-182q-31 0 -31 31zM549 580h295v403h-295v-403z" />
<glyph unicode="$" horiz-adv-x="1255" d="M88 123v151q0 21 25 21h612q102 0 148.5 28.5t46.5 94.5v31q0 64 -33.5 104t-118.5 70l-442 157q-116 38 -166.5 120t-50.5 224v43q0 171 109 248t335 90v148q0 30 31 30h94q31 0 31 -30v-146q141 -3 374 -32q23 -7 23 -23v-156q0 -20 -25 -20h-508q-107 0 -153.5 -29 t-46.5 -100v-27q0 -61 29.5 -96.5t107.5 -65.5l416 -149q142 -54 200 -133t58 -215v-55q0 -172 -118 -250.5t-357 -89.5v-148q0 -33 -31 -33h-94q-31 0 -31 33v145q-167 5 -442 35q-23 3 -23 25z" />
<glyph unicode="%" horiz-adv-x="1906" d="M59 1159q0 242 78 332q80 86 299 86q221 0 297 -88q78 -87 78 -330q0 -242 -78 -332q-76 -88 -297 -88q-220 0 -299 88q-78 90 -78 332zM270 1159q0 -134 36 -184.5t130 -50.5t129 50t35 185t-35 184.5t-129 49.5t-130 -50.5t-36 -183.5zM469 31l791 1505q16 31 49 31 h100q27 0 12 -31l-790 -1505q-15 -31 -47 -31h-101q-29 0 -14 31zM1094 408q0 242 77 331q79 88 299 88q221 0 297 -88q80 -89 80 -331q0 -243 -80 -332q-77 -86 -297 -86q-219 0 -299 86q-77 89 -77 332zM1307 408q0 -136 34 -185t129 -49t129 49q35 50 35 185 q0 133 -35 186q-34 49 -129 49t-129 -51q-34 -49 -34 -184z" />
<glyph unicode="&#x26;" horiz-adv-x="1359" d="M117 401v62q0 269 186 321q-186 49 -186 324v68q0 237 125 319t403 82q139 0 277 -23q39 -9 39 -36v-144q0 -26 -31 -26h-266q-165 0 -226 -37q-59 -38 -59 -162v-29q0 -131 49 -180t197 -49h592q32 0 32 -31v-110q0 -25 -32 -31l-140 -31v-381q0 -66 25.5 -87t101.5 -21 h68q33 0 33 -29v-129q0 -28 -31 -37q-55 -14 -139 -14q-62 0 -80 2q-34 2 -74.5 17t-67.5 42q-134 -61 -305 -61q-249 0 -370 86q-121 89 -121 325zM379 428q0 -113 62 -161t198 -48q105 0 209 37v426h-236q-141 0 -186 -51q-44 -47 -47 -176v-27z" />
<glyph unicode="'" horiz-adv-x="468" d="M104 1317v219q0 31 31 31h201q31 0 31 -31v-219l-5 -41l-47 -315q-3 -31 -30 -31h-101q-24 0 -30 31l-45 315z" />
<glyph unicode="(" horiz-adv-x="698" d="M98 688q0 128 4 230q3 69 19 172q28 135 90 245t225 332q14 14 31 14h190q13 0 13 -14v-22q0 -1 -4 -17q-126 -176 -189 -278q-59 -94 -96 -215q-32 -107 -39 -191q-4 -102 -4 -256t4 -256q6 -83 39 -190q36 -120 96 -217q73 -115 189 -277l4 -16v-23q0 -14 -13 -14h-190 q-14 0 -31 14q-176 229 -262 404q-39 79 -53 174q-16 108 -19 172q-4 102 -4 229z" />
<glyph unicode=")" horiz-adv-x="698" d="M29 -268l4 16q108 150 188 277q60 97 96 217q34 112 37 190q6 76 6 256q0 179 -6 256q-3 79 -37 191q-37 121 -96 215q-69 112 -188 278q-4 16 -4 17v22q0 14 12 14h190q17 0 31 -14q178 -232 260 -405q37 -69 53 -172q19 -119 21 -172q4 -102 4 -230q0 -127 -4 -229 q-2 -46 -21 -172q-13 -73 -32.5 -129.5t-64 -131.5t-84 -132.5t-132.5 -184.5q-17 -14 -31 -14h-190q-12 0 -12 14v23z" />
<glyph unicode="*" horiz-adv-x="866" d="M66 1303l30 96q9 31 41 18l228 -88l-13 248q-3 31 29 31h104q32 0 29 -31l-14 -248l231 90q33 9 39 -18l31 -96q9 -29 -21 -39l-235 -68l157 -192q21 -24 -4 -43l-80 -58q-25 -19 -43 8l-139 203l-143 -207q-18 -24 -43 -6l-76 60q-28 18 -6 43l154 190l-236 70 q-29 6 -20 37z" />
<glyph unicode="+" horiz-adv-x="1132" d="M68 547v164q0 30 30 30h353v346q0 31 30 31h172q31 0 31 -31v-346h350q31 0 31 -30v-164q0 -31 -31 -31h-350v-348q0 -31 -31 -31h-172q-30 0 -30 31v348h-353q-30 0 -30 31z" />
<glyph unicode="," horiz-adv-x="538" d="M2 -270l148 503q7 17 24 17h246q20 0 20 -21v-36q0 -12 -10 -29l-324 -492q-13 -17 -28 -8l-70 37q-15 9 -6 29z" />
<glyph unicode="-" horiz-adv-x="909" d="M125 500v168q0 30 31 30h596q32 0 32 -30v-168q0 -31 -32 -31h-596q-31 0 -31 31z" />
<glyph unicode="." horiz-adv-x="477" d="M88 131q0 67 40 104t112 37q69 0 108 -37t39 -104t-39 -104t-108 -37q-72 0 -112 37t-40 104z" />
<glyph unicode="/" horiz-adv-x="987" d="M51 -43l725 1649q15 34 47 34h101q26 0 14 -34l-723 -1649q-18 -35 -45 -35h-104q-33 0 -15 35z" />
<glyph unicode="0" horiz-adv-x="1386" d="M109 780q0 247 25 390t89 237q66 94 175 132t294 38q147 0 245 -24t165 -78q100 -85 136.5 -242t39.5 -453q0 -358 -70 -542q-59 -136 -177 -190.5t-339 -57.5q-351 0 -467 162t-116 628zM371 780q0 -332 63 -446q65 -115 258 -115t258 115q66 120 66 446q0 329 -66 449 q-64 119 -258 119t-258 -119q-63 -114 -63 -449z" />
<glyph unicode="1" horiz-adv-x="956" d="M70 1386v132q0 28 32 36q84 23 189 23q75 0 125 -8t104 -31q123 -51 123 -223v-1086h250q31 0 31 -30v-168q0 -31 -31 -31h-766q-33 0 -33 31v168q0 30 31 30h264v1018q0 66 -32.5 87.5t-129.5 21.5h-123q-34 0 -34 30z" />
<glyph unicode="2" horiz-adv-x="1247" d="M70 57v183q0 128 55 204q63 83 205 168l463 279q45 28 61 70t16 118v99q0 99 -72.5 134.5t-240.5 35.5h-391q-19 0 -19 18v147q0 24 27 33q228 31 401 31q110 0 180 -6.5t140 -28.5q115 -34 176.5 -111.5t61.5 -213.5v-164q0 -128 -37 -209q-38 -83 -158 -154l-420 -241 q-67 -35 -92 -70.5t-25 -93.5v-54h732q14 0 14 -12v-207q0 -12 -12 -12h-1012q-53 0 -53 57z" />
<glyph unicode="3" horiz-adv-x="1228" d="M96 43v156q0 20 31 20h346q233 0 303 43q72 44 72 176v13q0 130 -51 178q-49 49 -205 49h-381q-27 0 -27 24v162q0 27 27 27h379q158 0 207 49q51 48 51 180v25q0 129 -76 166q-73 37 -311 37h-334q-31 0 -31 22v152q0 23 39 32q151 23 346 23q353 0 492 -80t139 -321 v-68q0 -274 -188 -324q188 -53 188 -321v-62q0 -247 -137 -329t-494 -82q-183 0 -346 22q-39 9 -39 31z" />
<glyph unicode="4" horiz-adv-x="1357" d="M55 420v110q0 18 15 70l272 946q6 21 37 21h201q31 0 22 -37l-262 -912h436v388q0 27 25 36l203 72q36 14 36 -22v-474h244q33 0 33 -28v-170q0 -31 -33 -31h-244v-358q0 -31 -30 -31h-203q-31 0 -31 31v358h-690q-31 0 -31 31z" />
<glyph unicode="5" horiz-adv-x="1271" d="M115 45v152q0 22 30 22h400q220 0 293 49q73 52 73 195v16q-3 148 -75 199q-71 53 -291 53h-387q-43 0 -43 31v160l43 614q0 31 30 31h926q33 0 33 -31v-168q0 -31 -33 -31h-721l-28 -387q139 11 198 11q334 0 473 -91q135 -88 138 -348v-98q-3 -257 -142 -346 q-137 -88 -489 -88q-238 0 -391 18q-37 9 -37 37z" />
<glyph unicode="6" horiz-adv-x="1265" d="M82 428v94q0 139 43 232l401 792q12 21 37 21h219q39 0 21 -37l-297 -596q70 18 168 18q272 0 401 -103t129 -327v-94q0 -234 -134.5 -336t-422.5 -102q-293 0 -429 101.5t-136 336.5zM344 471q0 -137 68.5 -194.5t234.5 -57.5q163 0 228 57t65 195v8q0 138 -65 195 t-228 57q-166 0 -234.5 -57.5t-68.5 -194.5v-8z" />
<glyph unicode="7" horiz-adv-x="1198" d="M41 1366v170q0 31 33 31h1054q31 0 31 -31v-127q0 -25 -14 -47l-690 -1342q-11 -20 -37 -20h-236q-38 0 -20 37l674 1300h-762q-33 0 -33 29z" />
<glyph unicode="8" horiz-adv-x="1325" d="M94 422q0 242 250 381q-205 105 -205 342q0 221 125 326.5t385 105.5h33q260 0 384 -104.5t124 -323.5q0 -136 -48.5 -225.5t-154.5 -149.5q128 -57 185 -140.5t57 -219.5q0 -424 -549 -424h-37q-281 0 -415 105.5t-134 326.5zM358 444q0 -225 289 -225h29q289 0 289 203 q0 87 -46 132t-145 77l-221 71q-106 -53 -150.5 -113.5t-44.5 -144.5zM403 1147q0 -87 45.5 -137.5t143.5 -87.5l178 -56q158 90 158 260q0 222 -248 222h-27q-250 0 -250 -201z" />
<glyph unicode="9" horiz-adv-x="1263" d="M61 1044v95q0 234 134 336t423 102q290 0 428 -102.5t138 -337.5v-93q0 -142 -45 -231l-402 -793q-11 -20 -37 -20h-217q-38 0 -20 37l295 594q-66 -17 -166 -17q-272 0 -401.5 103t-129.5 327zM324 1087q0 -138 65 -194.5t229 -56.5q166 0 234 57t68 194v7 q0 140 -67.5 197t-234.5 57q-164 0 -229 -57t-65 -195v-9z" />
<glyph unicode=":" horiz-adv-x="546" d="M125 131q0 68 38.5 104.5t110.5 36.5q69 0 108.5 -37t39.5 -104t-39.5 -104t-108.5 -37q-72 0 -110.5 36.5t-38.5 104.5zM125 1004q0 68 38.5 104.5t110.5 36.5q69 0 108.5 -37t39.5 -104t-39.5 -104.5t-108.5 -37.5q-72 0 -110.5 37t-38.5 105z" />
<glyph unicode=";" horiz-adv-x="591" d="M18 -270l146 503q7 17 26 17h244q21 0 21 -21v-36q0 -11 -11 -29l-321 -492q-14 -17 -29 -8l-69 37q-15 9 -7 29zM164 1004q0 68 38.5 104.5t110.5 36.5q148 0 148 -141q0 -142 -148 -142q-72 0 -110.5 37t-38.5 105z" />
<glyph unicode="&#x3c;" horiz-adv-x="1116" d="M59 678v153q0 26 25 35l852 389q15 5 22 5h27q16 0 16 -17v-186q0 -23 -24 -35l-598 -266l598 -267q24 -12 24 -36v-187q0 -16 -16 -16h-27q-10 0 -22 4l-852 389q-25 13 -25 35z" />
<glyph unicode="=" horiz-adv-x="1341" d="M129 305v168q0 31 31 31h1022q30 0 30 -31v-168q0 -31 -30 -31h-1022q-31 0 -31 31zM129 817v168q0 31 31 31h1022q30 0 30 -31v-168q0 -31 -30 -31h-1022q-31 0 -31 31z" />
<glyph unicode="&#x3e;" horiz-adv-x="1116" d="M115 266v187q0 24 24 36l600 267l-600 266q-24 12 -24 35v186q0 17 16 17h29q5 0 20 -5l852 -389q25 -9 25 -35v-153q0 -22 -25 -35l-852 -389q-12 -4 -20 -4h-29q-16 0 -16 16z" />
<glyph unicode="?" horiz-adv-x="1085" d="M55 1380v129q0 37 37 43q144 25 377 25q110 0 178.5 -6.5t138.5 -28.5q230 -64 230 -332v-116q0 -164 -49 -240q-46 -76 -176 -135l-209 -101q-63 -31 -84 -53.5t-25 -66.5l-4 -43q-3 -19 -20 -19h-168q-20 0 -23 19l-10 116q-8 75 16 114.5t109 88.5l266 129 q65 32 90 72.5t25 122.5v86q0 83 -49 125q-20 17 -64 26q-72 13 -174 13h-381q-31 0 -31 32zM211 131q0 69 39 105t110 36q72 0 111 -36t39 -105q0 -68 -39 -104q-40 -37 -111 -37q-70 0 -110 37q-39 36 -39 104z" />
<glyph unicode="@" horiz-adv-x="2121" d="M92 580q0 510 238.5 747.5t752.5 237.5q477 0 708.5 -200t231.5 -626q0 -138 -26.5 -243.5t-75 -176.5t-122.5 -116t-163 -65.5t-202 -22.5l-412 2q-202 3 -281 53q-81 52 -84 215v31q1 145 78.5 203.5t251.5 58.5h248v90q0 72 -45.5 104.5t-147.5 32.5h-284q-17 0 -21 4 t-4 21v106q0 24 23 27q132 24 272 24q230 0 324 -66t94 -218v-582q219 0 340 115q123 117 123 399q0 371 -207 549t-623 178q-447 0 -659.5 -216t-212.5 -671q0 -437 192 -649q62 -67 128.5 -108t152.5 -68q79 -27 151.5 -38.5t172.5 -16.5q26 0 26 -27v-49q0 -29 -26 -29 q-466 1 -689 245t-223 745zM866 401q0 -67 34 -88.5t126 -23.5h209v239h-231q-89 0 -113.5 -21t-24.5 -91v-15z" />
<glyph unicode="A" horiz-adv-x="1415" d="M29 33l364 1304q47 161 96 199q53 41 216 41q172 0 223 -39q52 -40 98 -201l354 -1304q6 -33 -24 -33h-209q-20 0 -29 33l-121 440h-583l-123 -440q-9 -33 -27 -33h-211q-30 0 -24 33zM475 694h463l-154 576q-18 60 -28.5 72t-50.5 12q-34 0 -44 -12.5t-28 -71.5z" />
<glyph unicode="B" horiz-adv-x="1419" d="M158 37v1495q0 17 5.5 22t24.5 7q232 16 549 16q287 0 418 -96q131 -94 131 -338q0 -161 -47.5 -245t-155.5 -107v-7q129 -18 185.5 -109.5t56.5 -258.5q0 -244 -127 -336q-128 -90 -405 -90q-359 0 -605 18q-19 2 -24.5 7t-5.5 22zM422 219h362q153 0 215 47.5t62 173.5 q0 137 -64.5 190.5t-208.5 53.5h-366v-465zM422 883h231q222 0 293 39q76 40 76 188q0 137 -69 187.5t-240 50.5h-291v-465z" />
<glyph unicode="C" horiz-adv-x="1249" d="M106 784q0 244 29 388.5t101 236.5q73 94 191 131t321 37q254 0 391 -25q39 -6 39 -43v-129q0 -32 -31 -32h-399q-235 0 -306 -115q-69 -112 -69 -449q0 -340 69 -452q70 -113 306 -113h399q31 0 31 -31v-129q0 -39 -39 -45q-150 -24 -391 -24q-199 0 -318.5 38 t-193.5 130q-72 95 -101 239t-29 387z" />
<glyph unicode="D" horiz-adv-x="1517" d="M158 35v1497q0 17 5.5 22t24.5 7q232 16 578 16q353 0 502 -186q149 -183 149 -609q0 -422 -149 -608q-150 -184 -502 -184q-332 0 -578 18q-19 2 -24.5 6t-5.5 21zM422 219h344q208 0 296.5 131t88.5 432q0 302 -93.5 434t-312.5 132h-323v-1129z" />
<glyph unicode="E" horiz-adv-x="1308" d="M158 31v1505q0 31 30 31h992q32 0 32 -31v-168q0 -31 -32 -31h-758v-458h692q31 0 31 -31v-162q0 -31 -31 -31h-692v-426h758q32 0 32 -30v-168q0 -31 -32 -31h-992q-30 0 -30 31z" />
<glyph unicode="F" horiz-adv-x="1234" d="M158 31v1505q0 31 30 31h969q33 0 33 -31v-168q0 -31 -33 -31h-735v-458h670q30 0 30 -31v-162q0 -31 -30 -31h-670v-624q0 -31 -31 -31h-203q-30 0 -30 31z" />
<glyph unicode="G" horiz-adv-x="1380" d="M106 782q0 244 29 388.5t101 236.5q73 94 191.5 132t320.5 38q271 0 415 -25q37 -6 37 -43v-129q0 -32 -31 -32h-421q-235 0 -306 -115q-69 -112 -69 -451q0 -338 69 -450q70 -113 306 -113h284v520q0 33 31 33h186q31 0 31 -33v-596q0 -32 -8 -45q-56 -108 -524 -108 q-199 0 -318.5 38t-193.5 130q-72 92 -101 236.5t-29 387.5z" />
<glyph unicode="H" horiz-adv-x="1599" d="M158 33v1503q0 31 30 31h203q31 0 31 -31v-631h756v631q0 31 30 31h203q31 0 31 -31v-1503q0 -33 -31 -33h-203q-30 0 -30 33v641h-756v-641q0 -33 -31 -33h-203q-30 0 -30 33z" />
<glyph unicode="I" horiz-adv-x="577" d="M158 33v1503q0 31 30 31h201q31 0 31 -31v-1503q0 -33 -31 -33h-201q-30 0 -30 33z" />
<glyph unicode="J" horiz-adv-x="1189" d="M33 57v131q0 31 30 31h326q244 0 320 113q73 109 73 415v25v565h-467q-30 0 -30 31v168q0 31 30 31h701q31 0 31 -31v-764q0 -455 -136 -620q-134 -162 -522 -162q-164 0 -317 24q-39 6 -39 43z" />
<glyph unicode="K" horiz-adv-x="1329" d="M158 31v1505q0 31 30 31h203q31 0 31 -31v-647l559 657q15 21 43 21h225q48 0 19 -39l-572 -684l621 -789q19 -19 10 -37t-45 -18h-221q-32 0 -45 23l-594 761v-753q0 -31 -31 -31h-203q-30 0 -30 31z" />
<glyph unicode="L" horiz-adv-x="1191" d="M158 31v1505q0 31 30 31h203q31 0 31 -31v-1307h708q31 0 31 -30v-168q0 -31 -31 -31h-942q-30 0 -30 31z" />
<glyph unicode="M" horiz-adv-x="1968" d="M98 33l140 1503q3 31 28 31h203q42 0 61 -16t37 -64l418 -1084l416 1086q19 47 38 62.5t60 15.5h203q26 0 29 -31l139 -1503q3 -33 -31 -33h-201q-27 0 -30 33l-92 1075l-406 -1030q-12 -27 -41 -27h-170q-30 0 -39 27l-405 1030l-95 -1075q-3 -33 -30 -33h-201 q-34 0 -31 33z" />
<glyph unicode="N" horiz-adv-x="1595" d="M158 33v1503q0 31 30 31h170q54 -1 75 -12.5t48 -51.5l695 -1030v1063q0 31 30 31h201q31 0 31 -31v-1503q0 -33 -31 -33h-158q-57 0 -86 45l-741 1104v-1116q0 -33 -31 -33h-203q-30 0 -30 33z" />
<glyph unicode="O" d="M106 780q0 244 29.5 389.5t102.5 237.5q73 94 192 132t320 38q202 0 321 -38t191 -132q73 -91 102 -236.5t29 -390.5q0 -244 -29 -387t-102 -235q-72 -92 -191.5 -130t-320.5 -38q-199 0 -318.5 38t-193.5 130q-73 91 -102.5 236t-29.5 386zM373 780q0 -333 71 -448 q70 -113 306 -113q235 0 305 113q73 113 73 448q0 338 -73 451q-71 117 -305 117q-236 0 -306 -117q-71 -115 -71 -451z" />
<glyph unicode="P" horiz-adv-x="1353" d="M158 31v1501q0 17 5.5 22t24.5 7q232 16 490 16q350 0 479 -102t129 -408q0 -243 -82 -356q-40 -55 -119 -86q-73 -28 -164.5 -39t-242.5 -11h-256v-544q0 -19 -6 -25t-25 -6h-203q-19 0 -24.5 6t-5.5 25zM422 786h231q130 0 188 7.5t103 35.5q45 30 60.5 80t15.5 152 q0 179 -72 233q-73 54 -295 54h-231v-562z" />
<glyph unicode="Q" d="M106 780q0 244 29 389.5t101 237.5q73 94 192.5 132t321.5 38q201 0 320 -38t192 -132q73 -91 102 -236.5t29 -390.5q0 -414 -105 -587q-105 -170 -391 -197l74 -252q9 -33 -31 -33h-184q-32 0 -41 33l-74 250q-311 18 -424 186q-111 170 -111 600zM371 780 q0 -333 71 -448q73 -113 308 -113t305 113q73 113 73 448q0 338 -73 451q-71 117 -305 117t-308 -117q-71 -115 -71 -451z" />
<glyph unicode="R" horiz-adv-x="1384" d="M158 31v1501q0 17 5.5 22t24.5 7q232 16 490 16q350 0 479 -102t129 -408q0 -236 -74 -342q-72 -104 -251 -131l346 -553q12 -17 5 -29t-30 -12h-190q-31 0 -47.5 9.5t-34.5 35.5l-338 533l-250 -3v-544q0 -19 -6 -25t-25 -6h-203q-19 0 -24.5 6t-5.5 25zM422 786h231 q130 0 188 7.5t103 35.5q45 30 60.5 80t15.5 152q0 179 -72 233q-73 54 -295 54h-231v-562z" />
<glyph unicode="S" horiz-adv-x="1255" d="M86 63v123q0 33 33 33h571q228 0 228 154v35q0 74 -33 117.5t-119 78.5l-442 174q-119 43 -168.5 133t-49.5 248v47q0 91 27 157t73 107t118.5 65t151 33t183.5 9q178 0 412 -35q33 -6 33 -33v-127q0 -34 -31 -34h-473q-229 0 -229 -158v-33q0 -69 30 -109.5t107 -72.5 l416 -166q142 -57 200 -143.5t58 -239.5v-64q0 -220 -164 -303q-143 -69 -400 -69q-254 0 -503 37q-29 6 -29 36z" />
<glyph unicode="T" horiz-adv-x="1280" d="M31 1368v168q0 31 30 31h1158q30 0 30 -31v-168q0 -31 -30 -31h-449v-1306q0 -31 -31 -31h-200q-31 0 -31 31v1306h-447q-30 0 -30 31z" />
<glyph unicode="U" horiz-adv-x="1544" d="M143 780v756q0 31 31 31h203q31 0 31 -31v-756q0 -333 71 -448q73 -113 293 -113t293 113q74 115 74 448v756q0 19 5.5 25t24.5 6h201q31 0 31 -31v-756q0 -253 -27.5 -397.5t-99.5 -235.5q-71 -89 -185.5 -123t-316.5 -34t-316.5 34t-185.5 123q-72 91 -99.5 235.5 t-27.5 397.5z" />
<glyph unicode="V" horiz-adv-x="1392" d="M41 1534q-9 33 25 33h208q12 0 17.5 -6.5t9.5 -26.5l332 -1239q18 -58 27.5 -72t33.5 -14q31 0 44 15.5t26 70.5l321 1239q4 20 9.5 26.5t17.5 6.5h209q34 0 25 -33l-340 -1303q-40 -161 -93 -202q-48 -39 -219 -39q-161 0 -209 39t-94 202z" />
<glyph unicode="W" horiz-adv-x="2240" d="M57 1534q-2 20 3 26.5t24 6.5h213q13 0 18.5 -6.5t10.5 -26.5l241 -1202q10 -53 22.5 -69.5t39.5 -16.5q30 0 41.5 14.5t29.5 71.5l281 1143q8 32 39 32h201q31 0 39 -32l280 -1143q13 -55 26.5 -70.5t45.5 -15.5q26 0 37.5 16t23.5 70l242 1202q3 33 27 33h215 q18 0 23 -6t3 -27l-266 -1303q-35 -162 -82 -200q-50 -41 -205 -41q-173 0 -221 39q-46 40 -86 202l-203 854l-202 -854q-40 -133 -57 -165q-26 -46 -80 -60q-38 -9 -173 -16q-152 0 -202 41q-47 38 -82 200z" />
<glyph unicode="X" horiz-adv-x="1374" d="M16 45l516 770l-473 707q-14 23 -8.5 34t31.5 11h221q35 0 55 -33l328 -506l330 506q20 33 55 33h221q26 0 31.5 -11t-8.5 -34l-473 -707l516 -770q10 -16 10 -26q0 -19 -33 -19h-221q-35 0 -55 33l-373 569l-371 -569q-20 -33 -55 -33h-221q-33 0 -33 19q0 10 10 26z " />
<glyph unicode="Y" horiz-adv-x="1402" d="M10 1522q-8 15 -8 25q0 20 31 20h221q38 0 55 -33l391 -772l392 772q17 33 55 33h223q31 0 31 -20q0 -10 -8 -25l-562 -1033v-456q0 -33 -30 -33h-201q-31 0 -31 33v459z" />
<glyph unicode="Z" horiz-adv-x="1372" d="M61 178q0 21 15 39l866 1120h-823q-33 0 -33 29l-2 170q0 31 33 31h1140q31 0 31 -31v-150q0 -18 -14 -38l-866 -1119h866q33 0 33 -30v-168q0 -31 -33 -31h-1180q-31 0 -31 31z" />
<glyph unicode="[" horiz-adv-x="831" d="M162 -276v1927q0 30 31 30h555q30 0 30 -30v-133q0 -31 -30 -31h-347v-1600h347q30 0 30 -30v-133q0 -31 -30 -31h-555q-31 0 -31 31z" />
<glyph unicode="\" horiz-adv-x="985" d="M47 1606q-12 34 16 34h99q33 0 45 -34l729 -1649q15 -35 -16 -35h-105q-30 0 -45 35z" />
<glyph unicode="]" horiz-adv-x="831" d="M53 -143q0 30 31 30h346v1600h-346q-31 0 -31 31v133q0 30 31 30h555q31 0 31 -30v-1927q0 -31 -31 -31h-555q-31 0 -31 31v133z" />
<glyph unicode="^" horiz-adv-x="1075" d="M66 793l348 698q13 22 37 22h174q28 0 37 -22l348 -698q21 -37 -23 -37h-194q-26 0 -35 22l-221 463l-222 -463q-13 -22 -36 -22h-191q-43 0 -22 37z" />
<glyph unicode="_" horiz-adv-x="1218" d="M0 -127q0 31 31 31h1157q31 0 31 -31v-88q0 -31 -31 -31h-1157q-31 0 -31 31v88z" />
<glyph unicode="`" horiz-adv-x="927" d="M246 1552v15q0 20 20 20h238q18 0 24 -12l150 -256q10 -20 -6 -29l-64 -39q-14 -11 -28 0l-324 277q-10 10 -10 24z" />
<glyph unicode="a" horiz-adv-x="1124" d="M68 332q0 181 91 253t298 72h297v107q0 86 -54.5 125t-177.5 39h-336q-19 0 -24.5 5.5t-5.5 24.5v125q0 18 5 23t23 10q144 27 338 27q258 0 368.5 -80.5t110.5 -255.5v-713q0 -44 -40 -59q-151 -45 -461 -45q-234 0 -334 65q-98 67 -98 277zM313 342q0 -85 44 -115 t163 -30q144 0 234 22v260h-283q-85 0 -121.5 -31t-36.5 -106z" />
<glyph unicode="b" horiz-adv-x="1206" d="M131 70v1464q0 31 31 31h188q31 0 31 -31v-404q110 13 262 13q283 0 375 -117q92 -118 92 -461q0 -185 -20.5 -288.5t-75.5 -170.5q-55 -66 -148 -91t-258 -25q-216 0 -438 37q-39 6 -39 43zM381 221q122 -16 229 -16q166 0 209 69q43 70 43 291q0 230 -45 295 q-47 68 -213 68h-223v-707z" />
<glyph unicode="c" horiz-adv-x="1019" d="M98 567q0 190 19 291t73 168q55 67 147.5 92t258.5 25q179 0 324 -23q30 -6 30 -37v-125q0 -30 -32 -30h-322q-159 0 -205 -70q-43 -67 -43 -291q0 -223 43 -293q46 -69 205 -69h322q32 0 32 -31v-125q0 -31 -30 -37q-138 -22 -324 -22q-310 0 -403 112q-95 115 -95 465z " />
<glyph unicode="d" horiz-adv-x="1206" d="M96 565q0 343 92 461q95 117 377 117q151 0 262 -13v404q0 31 31 31h186q31 0 31 -31v-1464q0 -37 -37 -43q-222 -37 -438 -37q-164 0 -256 25t-151 91q-55 67 -76 170t-21 289zM344 565q0 -221 43 -291q46 -69 211 -69q107 0 229 16v707h-223q-168 0 -215 -68 q-45 -65 -45 -295z" />
<glyph unicode="e" horiz-adv-x="1142" d="M96 565q0 350 94 463q95 115 396 115q154 0 240.5 -24.5t140.5 -88.5q55 -64 75.5 -163t22.5 -279v-62q0 -31 -14.5 -43t-55.5 -12h-649q3 -162 53 -215q51 -51 201 -51h350q31 0 31 -31v-127q0 -29 -29 -35q-157 -22 -366 -22q-300 0 -393 112q-97 117 -97 463zM346 649 h469q-3 169 -47 221q-46 58 -182 58q-145 0 -191 -58q-46 -55 -49 -221z" />
<glyph unicode="f" horiz-adv-x="768" d="M41 967v133q0 30 33 30h139v185q0 172 111 223q53 24 99.5 31.5t119.5 7.5q89 0 200 -18q31 -6 31 -37v-129q0 -31 -33 -31h-135q-85 0 -115 -18t-30 -78v-136h256q32 0 26 -32l-24 -133q-6 -29 -35 -29h-223v-905q0 -31 -31 -31h-186q-31 0 -31 31v905h-139 q-33 0 -33 31z" />
<glyph unicode="g" horiz-adv-x="1208" d="M96 575q0 339 99 453q103 115 407 115q251 0 436 -37q39 -3 39 -41v-999q0 -118 -11.5 -191t-41.5 -133q-41 -87 -144.5 -124.5t-289.5 -37.5q-172 0 -336 23q-29 6 -29 32v121q0 31 31 31h319q152 0 203 45q51 42 51 166v10q-114 -18 -262 -18q-283 0 -377 119t-94 466z M346 567q0 -228 45 -293q46 -67 215 -67q138 0 223 12v709h-235q-162 0 -205 -70t-43 -291z" />
<glyph unicode="h" horiz-adv-x="1228" d="M133 31v1503q0 31 31 31h186q31 0 31 -31v-401q98 10 240 10q163 0 243 -16t137 -68q59 -49 81 -140t22 -262v-626q0 -31 -31 -31h-186q-31 0 -31 31v581q0 126 -9 184t-40 89q-30 30 -66 37.5t-125 7.5h-235v-899q0 -31 -31 -31h-188q-29 0 -29 31z" />
<glyph unicode="i" horiz-adv-x="514" d="M109 1456q0 68 38.5 104.5t110.5 36.5q148 0 148 -141t-148 -141q-72 0 -110.5 36.5t-38.5 104.5zM133 31v1071q0 31 31 31h186q31 0 31 -31v-1071q0 -31 -31 -31h-186q-31 0 -31 31z" />
<glyph unicode="j" horiz-adv-x="522" d="M-37 -231q0 28 33 28h49q63 0 79.5 15t16.5 75v1215q0 31 31 31h186q31 0 31 -31v-1307q0 -139 -78 -180q-62 -33 -178 -33q-93 0 -139 12q-31 6 -31 37v138zM117 1456q0 68 38.5 104.5t110.5 36.5q69 0 108.5 -37t39.5 -104t-39.5 -104t-108.5 -37q-72 0 -110.5 36.5 t-38.5 104.5z" />
<glyph unicode="k" horiz-adv-x="1087" d="M133 33v1499q0 33 31 33h186q31 0 31 -33v-795l315 375q15 21 43 21h222q31 0 31 -14q0 -9 -13 -25l-346 -408l450 -631q19 -19 10.5 -37t-44.5 -18h-199q-25 0 -45 23l-424 608v-598q0 -33 -31 -33h-186q-31 0 -31 33z" />
<glyph unicode="l" horiz-adv-x="514" d="M133 31v1505q0 31 31 31h186q31 0 31 -31v-1505q0 -31 -31 -31h-186q-31 0 -31 31z" />
<glyph unicode="m" horiz-adv-x="1800" d="M131 31v1046q0 27 31 33q149 33 364 33q220 0 353 -62q180 64 344 64q141 0 219 -17t133 -65q56 -48 78 -135t22 -238l-4 -659q0 -31 -29 -31h-186q-29 0 -29 31v581q0 149 -22 217q-20 65 -59.5 83t-143.5 18q-98 0 -205 -17q31 -95 31 -256l-4 -626q0 -31 -27 -31h-188 q-31 0 -31 31v622q0 106 -10 158.5t-39 77.5q-29 27 -60.5 33t-115.5 6h-174v-897q0 -31 -31 -31h-186q-28 0 -31 31z" />
<glyph unicode="n" horiz-adv-x="1226" d="M131 31v1046q0 13 4 20t9 8.5t16 4.5q156 33 458 33q163 0 243.5 -16t137.5 -68q59 -49 81 -140t22 -262v-626q0 -31 -33 -31h-184q-31 0 -31 31v581q0 126 -9 184t-40 87q-33 33 -70 39q-38 6 -121 6h-235v-897q0 -31 -31 -31h-188q-29 0 -29 31z" />
<glyph unicode="o" horiz-adv-x="1189" d="M96 565q0 346 97 463q95 115 401 115t401 -115q99 -114 99 -463t-99 -463q-93 -112 -401 -112t-401 112q-97 117 -97 463zM344 565q0 -225 45 -293q46 -67 205 -67t205 67q45 68 45 293t-45 293q-46 70 -205 70t-205 -70q-45 -68 -45 -293z" />
<glyph unicode="p" horiz-adv-x="1208" d="M131 -377v1442q0 35 39 41q222 37 436 37q306 0 406 -115q100 -112 100 -453q0 -350 -94 -469q-94 -116 -377 -116q-152 0 -260 12v-379q0 -33 -31 -33h-188q-31 0 -31 33zM381 219q105 -12 221 -12q169 0 215 67q47 68 47 293q0 221 -43 291t-207 70h-233v-709z" />
<glyph unicode="q" horiz-adv-x="1206" d="M96 575q0 267 58 394q46 98 151 136t297 38q214 0 436 -37q37 -6 37 -41v-1442q0 -33 -31 -33h-186q-31 0 -31 33v377q-98 -10 -260 -10q-283 0 -377 119t-94 466zM344 567q0 -228 45 -293q46 -67 217 -67q138 0 221 12v709h-233q-164 0 -207 -70t-43 -291z" />
<glyph unicode="r" horiz-adv-x="786" d="M129 31v850q0 171 119 223q54 23 103.5 31t123.5 8q166 0 250 -23q33 -9 33 -37v-125q0 -33 -35 -30h-186q-95 0 -127.5 -22t-32.5 -89v-786q0 -31 -31 -31h-186q-31 0 -31 31z" />
<glyph unicode="s" horiz-adv-x="1011" d="M82 39v127q0 33 33 33h397q106 0 143 17.5t37 70.5v20q0 39 -25.5 66t-91.5 51l-270 102q-205 73 -205 301v41q0 150 109 212.5t332 62.5q161 0 319 -23q31 -6 31 -33v-120q0 -31 -33 -31h-377q-135 0 -135 -90v-25q0 -78 113 -121l268 -98q119 -45 164 -114.5t45 -184.5 v-27q0 -161 -99.5 -223.5t-324.5 -62.5q-196 0 -399 18q-31 3 -31 31z" />
<glyph unicode="t" horiz-adv-x="741" d="M47 971v129q0 30 33 30h117v236q0 27 28 33l187 47q34 9 34 -29v-287h203q33 0 33 -30v-129q0 -33 -33 -33h-203v-625q0 -66 25.5 -87t101.5 -21h91q34 0 34 -29v-135q0 -31 -30 -37q-74 -14 -146 -14q-114 0 -182 16q-70 19 -103.5 72t-39.5 162v698h-117q-33 0 -33 33z " />
<glyph unicode="u" horiz-adv-x="1228" d="M125 477v625q0 31 35 31h184q29 0 29 -31v-580q0 -126 9 -183.5t40 -88.5q30 -30 65.5 -37.5t124.5 -7.5h236v897q0 31 31 31h188q31 0 31 -31v-1045q0 -10 -1.5 -16t-7 -9t-9 -4t-13.5 -3q-175 -35 -457 -35q-163 0 -243.5 16t-139.5 68t-80.5 142t-21.5 261z" />
<glyph unicode="v" horiz-adv-x="1155" d="M43 1100q-2 19 3.5 26t23.5 7h202q12 0 16.5 -6t10.5 -27l213 -815q18 -57 26.5 -69.5t34.5 -12.5q32 0 44.5 14t25.5 68l207 815q4 20 9.5 26.5t17.5 6.5h204q17 0 22 -6.5t3 -26.5l-232 -869q-26 -103 -39.5 -137t-46.5 -63q-30 -27 -72 -34t-143 -7q-156 0 -202 37 q-42 39 -88 204z" />
<glyph unicode="w" horiz-adv-x="1761" d="M57 1102q-3 31 25 31h203q11 0 15 -5.5t9 -25.5l156 -838q7 -37 16 -48t29 -11t27.5 9t17.5 50l195 805q6 31 28 31h205q22 0 31 -31l194 -805q7 -40 14.5 -49.5t28.5 -9.5t29.5 10.5t15.5 48.5l156 838q6 31 25 31h202q17 0 22 -6t3 -25l-178 -893q-26 -140 -78 -182 q-46 -37 -182 -37q-152 0 -193 35q-42 36 -76 184l-116 516l-117 -516q-35 -151 -76 -184q-41 -35 -192 -35q-137 0 -183 37q-48 42 -77 182z" />
<glyph unicode="x" horiz-adv-x="1130" d="M25 37l391 559l-353 500q-11 14 -6 25.5t23 11.5h227q22 0 35 -19l223 -323l223 323q16 19 35 19h228q18 0 22.5 -11.5t-6.5 -25.5l-352 -500l393 -559q10 -17 5.5 -27t-23.5 -10h-228q-19 0 -31 18l-266 385l-266 -385q-12 -18 -31 -18h-227q-39 0 -16 37z" />
<glyph unicode="y" horiz-adv-x="1241" d="M123 532v570q0 31 31 31h186q31 0 31 -31v-535q0 -222 47 -293q49 -67 219 -67q137 0 223 12v883q0 31 31 31h186q31 0 31 -31v-1036q0 -118 -11.5 -191t-41.5 -133q-41 -87 -144.5 -124.5t-289.5 -37.5q-176 0 -347 23q-26 6 -26 32v121q0 31 28 31h330q152 0 203 45 q51 42 51 166v10q-114 -18 -262 -18q-280 0 -379 114q-96 116 -96 428z" />
<glyph unicode="z" horiz-adv-x="1081" d="M63 31v96q0 22 15 37l559 756h-516q-33 0 -33 32v150q0 31 33 31h837q33 0 33 -31v-92q0 -19 -12 -37l-557 -758h559q35 0 35 -31v-153q0 -31 -35 -31h-885q-33 0 -33 31z" />
<glyph unicode="{" horiz-adv-x="710" d="M47 655v66q0 27 16 37l160 100q22 9 19 37l-58 547q-13 135 58 194.5t237 59.5q69 0 129 -13q35 -6 35 -38v-129q0 -31 -31 -31h-80q-57 0 -80.5 -21.5t-17.5 -70.5l55 -502q6 -49 -5 -73t-48 -48l-141 -76v-12l141 -76q37 -24 48 -48t5 -73l-55 -501q-6 -49 17.5 -71 t80.5 -22h80q31 0 31 -30v-129q0 -33 -35 -39q-56 -12 -129 -12q-166 0 -237 59t-58 194l58 547q3 28 -19 37l-160 100q-16 10 -16 37z" />
<glyph unicode="|" horiz-adv-x="571" d="M162 -160v1786q0 31 31 31h186q31 0 31 -31v-1786q0 -30 -31 -30h-186q-31 0 -31 30z" />
<glyph unicode="}" horiz-adv-x="710" d="M68 -139q0 30 30 30h80q56 0 79 22t19 71l-55 501q-6 49 5 73t48 48l142 76v12l-142 76q-37 24 -48 48t-5 73l55 502q4 49 -19 70.5t-79 21.5h-80q-30 0 -30 31v129q0 32 32 38q63 13 131 13q166 0 237 -59.5t58 -194.5l-57 -547q-3 -28 18 -37l160 -100q17 -10 17 -37 v-66q0 -27 -17 -37l-160 -100q-21 -9 -18 -37l57 -547q13 -135 -58 -194t-237 -59q-73 0 -131 12q-32 6 -32 39v129z" />
<glyph unicode="~" horiz-adv-x="1269" d="M96 674q36 104 120.5 166.5t195.5 62.5q54 2 121 -26t118 -62t108 -61.5t95 -24.5q112 0 164 98q15 26 39 11l110 -72q21 -12 9 -37q-36 -104 -120.5 -166.5t-195.5 -62.5q-45 -2 -96.5 15.5t-96.5 44t-88 53.5t-85.5 45t-75.5 16q-112 0 -164 -101q-12 -26 -37 -10 l-111 72q-22 12 -10 39z" />
<glyph unicode="&#xa1;" horiz-adv-x="548" d="M125 1001q0 68 39.5 105t111.5 37q69 0 108.5 -37.5t39.5 -104.5q0 -139 -148 -139q-72 0 -111.5 36t-39.5 103zM143 336q0 27 2 41l48 313q6 33 30 33h101q27 0 30 -33l47 -313q5 -35 5 -41v-713q0 -33 -31 -33h-201q-31 0 -31 33v713z" />
<glyph unicode="&#xa2;" horiz-adv-x="1054" d="M102 567q0 338 86 453q88 114 363 123l24 143q3 31 35 31h97q30 0 24 -31l-26 -145q102 -2 219 -21q30 -6 30 -37v-125q0 -30 -32 -30h-322q-159 0 -205 -70q-43 -67 -43 -291q0 -223 43 -293q46 -69 205 -69h322q32 0 32 -31v-125q0 -31 -30 -37q-138 -22 -324 -22h-51 l-25 -144q-6 -30 -37 -30h-94q-29 0 -26 30l28 158q-173 30 -233 152q-60 123 -60 411z" />
<glyph unicode="&#xa3;" horiz-adv-x="1296" d="M55 31l31 168q3 30 35 30h139v346h-115q-30 0 -30 31v113q0 31 30 31h115v387q0 255 139 344q140 90 494 90q91 0 252 -19q39 -9 39 -36v-152q0 -23 -31 -23h-264q-222 0 -293 -51q-74 -50 -74 -192v-348h477q33 0 33 -31v-113q0 -31 -33 -31h-477v-346h674q31 0 31 -30 v-168q0 -31 -31 -31h-1114q-33 0 -27 31z" />
<glyph unicode="&#xa4;" horiz-adv-x="1167" d="M113 319l100 97q-66 104 -66 250q0 152 66 249l-100 99q-21 20 2 43l65 67q24 21 45 0l103 -102q104 55 256 55t256 -55l102 102q21 21 45 0l66 -67q23 -23 2 -43l-101 -99q66 -97 66 -249q0 -146 -66 -250l101 -97q20 -23 -2 -45l-66 -65q-24 -21 -45 0l-102 102 q-104 -55 -256 -55t-256 55l-103 -102q-21 -21 -45 0l-65 65q-22 22 -2 45zM379 666q0 -102 53 -156.5t152 -54.5t151.5 54.5t52.5 156.5q0 104 -52.5 158.5t-151.5 54.5t-152 -54.5t-53 -158.5z" />
<glyph unicode="&#xa5;" horiz-adv-x="1484" d="M51 1522q-23 45 23 45h221q38 0 55 -33l391 -715l394 715q17 33 55 33h221q46 0 23 -45l-516 -891h272q33 0 33 -31v-76q0 -30 -33 -30h-318v-160h318q33 0 33 -31v-76q0 -30 -33 -30h-318v-164q0 -33 -30 -33h-201q-31 0 -31 33v164h-315q-31 0 -31 30v76q0 31 31 31 h315v160h-315q-31 0 -31 30v76q0 31 31 31h272z" />
<glyph unicode="&#xa6;" horiz-adv-x="571" d="M162 -160v731q0 27 26 27h195q27 0 27 -27v-731q0 -30 -31 -30h-186q-31 0 -31 30zM162 901v725q0 31 31 31h186q31 0 31 -31v-725q0 -29 -27 -29h-195q-26 0 -26 29z" />
<glyph unicode="&#xa7;" horiz-adv-x="940" d="M102 721v592q0 163 101 215q103 53 315 53q103 0 187 -20q24 -3 24 -25v-117q0 -26 -24 -26h-252q-140 0 -140 -107v-143l328 -125q109 -42 154 -111.5t45 -183.5v-584q0 -162 -103 -215t-313 -53q-107 0 -186 20q-27 6 -27 27v117q0 24 27 24h249q140 0 140 107v135 l-326 125q-111 41 -155 110.5t-44 184.5zM313 721q0 -93 119 -139l195 -76v215q0 93 -117 139l-197 76v-215z" />
<glyph unicode="&#xa8;" horiz-adv-x="1191" d="M246 1415q0 135 143 135q139 0 139 -135q0 -137 -139 -137q-143 0 -143 137zM664 1415q0 135 141 135t141 -135q0 -137 -141 -137t-141 137z" />
<glyph unicode="&#xa9;" horiz-adv-x="1748" d="M96 768q0 402 189 594q187 190 589 190q403 0 590 -190q189 -192 189 -594t-189 -594q-187 -190 -590 -190q-402 0 -589 190q-189 192 -189 594zM215 768q0 -343 159.5 -504.5t499.5 -161.5t500 161.5t160 504.5t-160 504.5t-500 161.5t-499.5 -161t-159.5 -505zM545 760 q0 237 67 319q72 84 267 84q144 0 206 -16q27 -6 27 -31v-90q0 -18 -18 -18h-215q-98 0 -125 -52q-29 -53 -29 -196q0 -145 29 -201q27 -49 125 -49h215q18 0 18 -16v-93q0 -24 -27 -30q-97 -19 -206 -19q-195 0 -267 84q-67 85 -67 324z" />
<glyph unicode="&#xaa;" horiz-adv-x="800" d="M106 1075v23q0 107 57.5 152.5t182.5 45.5h172v50q0 98 -135 98h-207q-14 0 -14 16v82q0 15 16 21q77 14 205 14q157 0 224 -48.5t67 -156.5v-426q0 -28 -27 -37q-95 -24 -274 -24q-151 0 -209 38t-58 152zM137 674v59q0 31 31 31h455q30 0 30 -31v-59q0 -31 -30 -31 h-455q-31 0 -31 31zM262 1092q0 -44 25.5 -62t87.5 -18q88 0 143 10v147h-149q-57 0 -82 -16.5t-25 -54.5v-6z" />
<glyph unicode="&#xab;" horiz-adv-x="1124" d="M74 516v94q0 23 16 45l225 295q16 19 37 19h185q30 0 30 -31v-14q0 -23 -14 -37l-258 -324l258 -321q14 -14 14 -37v-15q0 -30 -30 -30h-185q-22 0 -37 18l-225 293q-16 29 -16 45zM530 516v94q0 24 15 45l225 295q16 19 37 19h186q31 0 31 -31v-14q0 -23 -14 -37 l-260 -324l260 -321q14 -14 14 -37v-15q0 -30 -31 -30h-186q-22 0 -37 18l-225 293q-15 21 -15 45z" />
<glyph unicode="&#xac;" horiz-adv-x="1255" d="M90 762v178q0 31 31 31h971q30 0 30 -31v-526q0 -31 -30 -31h-177q-30 0 -30 31v317h-764q-31 0 -31 31z" />
<glyph unicode="&#xad;" horiz-adv-x="909" d="M125 500v168q0 30 31 30h596q32 0 32 -30v-168q0 -31 -32 -31h-596q-31 0 -31 31z" />
<glyph unicode="&#xae;" horiz-adv-x="1748" d="M96 768q0 402 189 594q187 190 589 190q403 0 590 -190q189 -192 189 -594t-189 -594q-187 -190 -590 -190q-402 0 -589 190q-189 192 -189 594zM215 768q0 -343 159.5 -504.5t499.5 -161.5t500 161.5t160 504.5t-160 504.5t-500 161.5t-499.5 -161t-159.5 -505zM590 383 v760q0 13 16 16q133 10 291 10q170 0 233 -57q66 -60 66 -209q0 -115 -34.5 -168.5t-119.5 -72.5l172 -275q16 -22 -12 -22h-145q-27 0 -45 24l-166 262h-76v-268q0 -18 -16 -18h-146q-18 0 -18 18zM770 788h109q82 0 108.5 21t26.5 88q0 68 -28 92.5t-107 24.5h-109v-226z " />
<glyph unicode="&#xaf;" horiz-adv-x="1112" d="M246 1343v105q0 31 30 31h560q30 0 30 -31v-105q0 -30 -30 -30h-560q-30 0 -30 30z" />
<glyph unicode="&#xb0;" horiz-adv-x="722" d="M80 1307q0 270 280 270q283 0 283 -270q0 -271 -283 -271q-280 0 -280 271zM227 1307q0 -133 133 -133q136 0 136 133t-136 133q-133 0 -133 -133z" />
<glyph unicode="&#xb1;" horiz-adv-x="1232" d="M117 203v133q0 31 30 31h936q31 0 31 -31v-133q0 -31 -31 -31h-936q-30 0 -30 31zM121 823v142q0 30 31 30h352v275q0 30 31 30h165q31 0 31 -30v-275h350q31 0 31 -30v-142q0 -30 -31 -30h-350v-277q0 -31 -31 -31h-165q-31 0 -31 31v277h-352q-31 0 -31 30z" />
<glyph unicode="&#xb2;" horiz-adv-x="718" d="M57 1075v94q0 66 28.5 106.5t109.5 92.5l219 143q57 37 57 111v29q0 54 -32.5 74t-112.5 20h-217q-15 0 -15 14v88q0 19 19 25q106 16 219 16q153 0 228 -42.5t75 -153.5v-97q0 -72 -21 -113.5t-90 -86.5l-196 -119q-78 -47 -78 -76v-12h387q10 0 10 -8v-127q0 -9 -8 -9 h-553q-29 0 -29 31z" />
<glyph unicode="&#xb3;" horiz-adv-x="712" d="M72 1081v86q0 15 16 15h197q108 0 145 18t37 76v24q0 51 -38 75t-122 24h-170q-14 0 -14 14v98q0 15 14 15h168q89 0 125.5 22t36.5 78v25q0 56 -38.5 75t-143.5 19h-197q-16 0 -16 14v88q0 20 20 23q99 18 242 18q151 0 224 -46.5t73 -164.5v-47q0 -139 -127 -166 q127 -21 127 -166v-49q0 -118 -71.5 -164.5t-225.5 -46.5q-138 0 -242 19q-20 3 -20 24z" />
<glyph unicode="&#xb4;" horiz-adv-x="927" d="M250 1319l149 256q6 12 25 12h238q20 0 20 -20v-15q0 -14 -10 -24l-324 -277q-14 -12 -29 0l-63 39q-16 9 -6 29z" />
<glyph unicode="&#xb5;" horiz-adv-x="1236" d="M133 -254v1356q0 31 35 31h184q29 0 29 -31v-580q0 -126 9 -183.5t40 -88.5q30 -30 66 -37.5t125 -7.5h235v897q0 31 31 31h188q31 0 31 -31v-1045q0 -10 -1.5 -16t-7 -9t-9 -4t-13.5 -3q-175 -35 -457 -35q-163 0 -237 22v-266q0 -31 -31 -31h-186q-31 0 -31 31z" />
<glyph unicode="&#xb6;" horiz-adv-x="1417" d="M68 1028v102q3 268 127 355q127 92 446 92q201 0 317.5 -37t186.5 -131t96.5 -236t26.5 -389v-784h-199v831q0 293 -70 412q-71 120 -243 141v-790h-109q-166 -2 -266.5 15t-173.5 63q-73 49 -106 134.5t-33 221.5z" />
<glyph unicode="&#xb7;" horiz-adv-x="505" d="M102 567q0 67 40 104.5t112 37.5q69 0 108 -37.5t39 -104.5t-39 -104t-108 -37q-72 0 -112 37t-40 104z" />
<glyph unicode="&#xb8;" horiz-adv-x="860" d="M246 -201q0 29 28 29h74q29 1 40 1.5t26.5 3.5t20.5 9.5t10.5 17t7.5 27.5q0 23 -17 117q-9 33 27 33h80q26 0 35 -25q36 -115 36 -205q0 -85 -48 -121t-154 -36q-99 0 -142 16q-24 9 -24 37v96z" />
<glyph unicode="&#xb9;" horiz-adv-x="571" d="M61 1769v86q0 14 17 21q55 12 110 12q99 0 148 -32t49 -119v-549h131q19 0 19 -19v-110q0 -15 -19 -15h-426q-18 0 -18 17v108q0 19 18 19h137v504q0 35 -17 47t-60 12h-70q-19 0 -19 18z" />
<glyph unicode="&#xba;" horiz-adv-x="827" d="M113 1231q0 208 59 276q58 70 242 70q183 0 241 -70q60 -69 60 -276q0 -210 -60 -279q-58 -67 -241 -67q-186 0 -244 67q-57 69 -57 279zM156 674v59q0 31 30 31h455q31 0 31 -31v-59q0 -31 -31 -31h-455q-30 0 -30 31zM268 1231q0 -129 27 -170t119 -41t118 39 q27 41 27 172t-27 172t-118 41q-92 0 -119 -41t-27 -172z" />
<glyph unicode="&#xbb;" horiz-adv-x="1122" d="M100 190v15q0 22 15 37l260 321l-260 324q-15 15 -15 37v14q0 31 31 31h184q21 0 37 -19l228 -295q14 -20 14 -45v-94q0 -25 -14 -45l-228 -293q-15 -18 -37 -18h-184q-31 0 -31 30zM557 190v15q0 23 14 37l258 321l-258 324q-14 14 -14 37v14q0 31 31 31h184 q21 0 37 -19l225 -295q15 -21 15 -45v-94q0 -24 -15 -45l-225 -293q-15 -18 -37 -18h-184q-31 0 -31 30z" />
<glyph unicode="&#xbc;" horiz-adv-x="1785" d="M76 1454v86q0 15 16 21q56 12 111 12q99 0 147.5 -32.5t48.5 -119.5v-549h133q17 0 17 -18v-111q0 -14 -17 -14h-428q-18 0 -18 16v109q0 18 18 18h138v504q0 35 -17.5 47.5t-60.5 12.5h-70q-18 0 -18 18zM401 -43l725 1649q15 34 48 34h71q27 0 15 -34l-723 -1649 q-15 -35 -45 -35h-76q-30 0 -15 35zM1051 221v78q0 13 8 37l139 491q6 13 21 13h131q18 0 12 -21l-133 -471h205v193q0 15 12 18l133 45q18 6 18 -12v-244h123q19 0 19 -14v-113q0 -14 -19 -14h-123v-189q0 -18 -16 -18h-133q-14 0 -14 18v189h-367q-16 0 -16 14z" />
<glyph unicode="&#xbd;" horiz-adv-x="1742" d="M63 1454v86q0 14 17 21q55 12 110 12q99 0 148 -32.5t49 -119.5v-549h133q17 0 17 -18v-111q0 -14 -17 -14h-428q-18 0 -18 16v109q0 18 18 18h137v504q0 36 -17 48t-60 12h-70q-19 0 -19 18zM399 -43l725 1649q15 34 47 34h72q26 0 14 -34l-722 -1649q-18 -35 -46 -35 h-75q-33 0 -15 35zM1090 31v96q0 66 28 105.5t109 91.5l219 143q57 39 57 111v28q0 54 -32.5 74t-114.5 20h-215q-15 0 -15 15v90q0 16 19 22q112 17 219 17q153 0 228 -43t75 -154v-96q0 -70 -22.5 -113.5t-88.5 -85.5l-198 -121q-76 -46 -76 -75v-13h387q10 0 10 -8v-127 q0 -8 -8 -8h-553q-28 0 -28 31z" />
<glyph unicode="&#xbe;" horiz-adv-x="1871" d="M84 766v86q0 14 14 14h199q107 0 144.5 18.5t37.5 76.5v24q0 54 -37.5 76t-124.5 22h-167q-15 0 -15 15v98q0 14 15 14h167q89 0 125.5 22.5t36.5 78.5v24q0 56 -38.5 75.5t-143.5 19.5h-199q-14 0 -14 14v88q0 19 20 22q105 19 242 19q151 0 224 -46.5t73 -164.5v-47 q0 -139 -127 -166q127 -24 127 -166v-49q0 -118 -71.5 -164.5t-225.5 -46.5q-143 0 -242 18q-20 3 -20 25zM494 -43l725 1649q15 34 47 34h71q27 0 15 -34l-723 -1649q-18 -35 -45 -35h-76q-32 0 -14 35zM1137 221v78q0 21 8 37l139 491q3 13 19 13h131q18 0 12 -21 l-133 -471h205v193q0 15 12 18l133 45q20 6 20 -12v-244h121q19 0 19 -14v-113q0 -14 -19 -14h-121v-189q0 -18 -18 -18h-131q-16 0 -16 18v189h-367q-14 0 -14 14z" />
<glyph unicode="&#xbf;" horiz-adv-x="1073" d="M61 -27v93q0 160 48 239q50 77 178 135l209 101q63 31 83.5 52.5t26.5 65.5l4 43q0 21 19 21h170q17 0 20 -21l10 -116q11 -73 -13 -112.5t-111 -88.5l-265 -131q-64 -31 -89 -72t-25 -121v-61q0 -106 84.5 -148t263.5 -42h319q31 0 31 -31v-129q0 -36 -39 -45 q-159 -25 -313 -25q-137 0 -236 17t-188 57q-187 79 -187 319zM569 1001q0 68 39 105t111 37q147 0 147 -142q0 -139 -147 -139q-150 0 -150 139z" />
<glyph unicode="&#xc0;" horiz-adv-x="1415" d="M29 33l364 1304q47 161 96 199q53 41 216 41q172 0 223 -39q52 -40 98 -201l354 -1304q6 -33 -24 -33h-209q-20 0 -29 33l-121 440h-583l-123 -440q-9 -33 -27 -33h-211q-30 0 -24 33zM377 1962v14q0 21 20 21h238q18 0 24 -12l150 -256q10 -20 -6 -29l-64 -39 q-14 -11 -28 0l-324 276q-10 17 -10 25zM475 694h463l-154 576q-18 60 -28.5 72t-50.5 12q-34 0 -44 -12.5t-28 -71.5z" />
<glyph unicode="&#xc1;" horiz-adv-x="1415" d="M29 33l364 1304q47 161 96 199q53 41 216 41q172 0 223 -39q52 -40 98 -201l354 -1304q6 -33 -24 -33h-209q-20 0 -29 33l-121 440h-583l-123 -440q-9 -33 -27 -33h-211q-30 0 -24 33zM475 694h463l-154 576q-18 60 -28.5 72t-50.5 12q-34 0 -44 -12.5t-28 -71.5z M606 1729l150 256q6 12 24 12h238q20 0 20 -21v-14q0 -8 -10 -25l-323 -276q-14 -12 -29 0l-64 39q-16 9 -6 29z" />
<glyph unicode="&#xc2;" horiz-adv-x="1415" d="M29 33l364 1304q47 161 96 199q53 41 216 41q172 0 223 -39q52 -40 98 -201l354 -1304q6 -33 -24 -33h-209q-20 0 -29 33l-121 440h-583l-123 -440q-9 -33 -27 -33h-211q-30 0 -24 33zM414 1720l188 260q14 17 37 17h131q23 0 37 -17l188 -260q15 -15 -6 -30l-51 -29 q-15 -12 -33 0l-200 151l-201 -151q-18 -12 -33 0l-51 29q-21 15 -6 30zM475 694h463l-154 576q-18 60 -28.5 72t-50.5 12q-34 0 -44 -12.5t-28 -71.5z" />
<glyph unicode="&#xc3;" horiz-adv-x="1415" d="M29 33l364 1304q47 161 96 199q53 41 216 41q172 0 223 -39q52 -40 98 -201l354 -1304q6 -33 -24 -33h-209q-20 0 -29 33l-121 440h-583l-123 -440q-9 -33 -27 -33h-211q-30 0 -24 33zM350 1745q37 127 79 172t124 45q51 0 154 -41t131 -41q37 0 56 14.5t38 55.5 q13 29 37 20l67 -18q29 -10 23 -45q-37 -128 -78 -171.5t-125 -43.5q-51 0 -154 41t-131 41q-37 0 -56 -14.5t-38 -55.5q-13 -30 -37 -21l-67 17q-29 10 -23 45zM475 694h463l-154 576q-18 60 -28.5 72t-50.5 12q-34 0 -44 -12.5t-28 -71.5z" />
<glyph unicode="&#xc4;" horiz-adv-x="1415" d="M29 33l364 1304q47 161 96 199q53 41 216 41q172 0 223 -39q52 -40 98 -201l354 -1304q6 -33 -24 -33h-209q-20 0 -29 33l-121 440h-583l-123 -440q-9 -33 -27 -33h-211q-30 0 -24 33zM354 1825q0 135 144 135q139 0 139 -135q0 -137 -139 -137q-144 0 -144 137zM475 694 h463l-154 576q-18 60 -28.5 72t-50.5 12q-34 0 -44 -12.5t-28 -71.5zM772 1825q0 135 141 135q142 0 142 -135q0 -137 -142 -137q-141 0 -141 137z" />
<glyph unicode="&#xc5;" horiz-adv-x="1415" d="M29 33l364 1304q47 161 96 199q53 41 216 41q172 0 223 -39q52 -40 98 -201l354 -1304q6 -33 -24 -33h-209q-20 0 -29 33l-121 440h-583l-123 -440q-9 -33 -27 -33h-211q-30 0 -24 33zM475 694h463l-154 576q-18 60 -28.5 72t-50.5 12q-34 0 -44 -12.5t-28 -71.5z M477 1874q0 221 228 221q229 0 229 -221q0 -219 -229 -219q-228 0 -228 219zM578 1874q0 -127 127 -127q126 0 126 127t-126 127q-127 0 -127 -127z" />
<glyph unicode="&#xc6;" horiz-adv-x="2035" d="M29 33l364 1304q47 161 96 199q53 41 216 41l505 -10h697q30 0 30 -31v-168q0 -31 -30 -31h-678v-458h610q33 0 33 -31v-162q0 -31 -33 -31h-610v-426h678q30 0 30 -30v-168q0 -31 -30 -31h-910q-30 0 -30 31v442h-553l-123 -440q-9 -33 -27 -33h-211q-30 0 -24 33z M475 694h492v660h-242q-47 0 -63 -17t-33 -84z" />
<glyph unicode="&#xc7;" horiz-adv-x="1249" d="M106 784q0 244 29 388.5t101 236.5q73 94 191 131t321 37q254 0 391 -25q39 -6 39 -43v-129q0 -32 -31 -32h-399q-235 0 -306 -115q-69 -112 -69 -449q0 -340 69 -452q70 -113 306 -113h399q31 0 31 -31v-129q0 -39 -39 -45q-138 -21 -355 -24q31 -105 31 -183 q0 -86 -49 -120q-46 -37 -152 -37q-100 0 -143 16q-25 9 -25 37v96q0 29 31 29h74q60 0 81 9.5t21 49.5q0 37 -12 105q-310 21 -424 190q-111 169 -111 602z" />
<glyph unicode="&#xc8;" horiz-adv-x="1308" d="M158 31v1505q0 31 30 31h992q32 0 32 -31v-168q0 -31 -32 -31h-758v-458h692q31 0 31 -31v-162q0 -31 -31 -31h-692v-426h758q32 0 32 -30v-168q0 -31 -32 -31h-992q-30 0 -30 31zM399 1962v14q0 21 21 21h237q19 0 25 -12l149 -256q10 -20 -6 -29l-63 -39q-14 -12 -29 0 l-323 276q-11 18 -11 25z" />
<glyph unicode="&#xc9;" horiz-adv-x="1308" d="M158 31v1505q0 31 30 31h992q32 0 32 -31v-168q0 -31 -32 -31h-758v-458h692q31 0 31 -31v-162q0 -31 -31 -31h-692v-426h758q32 0 32 -30v-168q0 -31 -32 -31h-992q-30 0 -30 31zM520 1729l150 256q6 12 24 12h238q20 0 20 -21v-14q0 -8 -10 -25l-324 -276 q-14 -11 -28 0l-64 39q-16 9 -6 29z" />
<glyph unicode="&#xca;" horiz-adv-x="1308" d="M158 31v1505q0 31 30 31h992q32 0 32 -31v-168q0 -31 -32 -31h-758v-458h692q31 0 31 -31v-162q0 -31 -31 -31h-692v-426h758q32 0 32 -30v-168q0 -31 -32 -31h-992q-30 0 -30 31zM377 1720l190 260q10 17 37 17h129q27 0 37 -17l188 -260q15 -15 -6 -30l-49 -29 q-18 -12 -33 0l-200 151l-203 -151q-16 -10 -33 0l-49 29q-22 13 -8 30z" />
<glyph unicode="&#xcb;" horiz-adv-x="1308" d="M158 31v1505q0 31 30 31h992q32 0 32 -31v-168q0 -31 -32 -31h-758v-458h692q31 0 31 -31v-162q0 -31 -31 -31h-692v-426h758q32 0 32 -30v-168q0 -31 -32 -31h-992q-30 0 -30 31zM317 1825q0 135 144 135q141 0 141 -135q0 -137 -141 -137q-144 0 -144 137zM735 1825 q0 135 142 135q141 0 141 -135q0 -137 -141 -137q-142 0 -142 137z" />
<glyph unicode="&#xcc;" horiz-adv-x="579" d="M-35 1962v14q0 21 21 21h237q19 0 25 -12l149 -256q10 -20 -6 -29l-63 -39q-16 -10 -29 0l-324 276q-10 10 -10 25zM158 33v1503q0 31 30 31h203q31 0 31 -31v-1503q0 -33 -31 -33h-203q-30 0 -30 33z" />
<glyph unicode="&#xcd;" horiz-adv-x="579" d="M158 33v1503q0 31 30 31h203q31 0 31 -31v-1503q0 -33 -31 -33h-203q-30 0 -30 33zM178 1729l150 256q6 12 24 12h238q20 0 20 -21v-14q0 -15 -10 -25l-324 -276q-12 -9 -28 0l-64 39q-16 9 -6 29z" />
<glyph unicode="&#xce;" horiz-adv-x="577" d="M-4 1720l188 260q10 17 37 17h129q27 0 37 -17l188 -260q15 -15 -6 -30l-49 -29q-16 -10 -33 0l-200 151l-203 -151q-15 -12 -33 0l-49 29q-21 15 -6 30zM158 33v1503q0 31 30 31h201q31 0 31 -31v-1503q0 -33 -31 -33h-201q-30 0 -30 33z" />
<glyph unicode="&#xcf;" horiz-adv-x="577" d="M-63 1825q0 135 143 135q139 0 139 -135q0 -137 -139 -137q-143 0 -143 137zM158 33v1503q0 31 30 31h201q31 0 31 -31v-1503q0 -33 -31 -33h-201q-30 0 -30 33zM352 1825q0 135 144 135q141 0 141 -135q0 -137 -141 -137q-144 0 -144 137z" />
<glyph unicode="&#xd0;" horiz-adv-x="1540" d="M6 723v104q0 31 31 31h143v674q0 17 6 22t25 7q232 16 577 16q353 0 502 -186q150 -185 150 -609q0 -420 -150 -608q-150 -184 -502 -184q-331 0 -577 18q-20 2 -25.5 6t-5.5 21v657h-143q-31 0 -31 31zM444 219h344q208 0 297 131t89 432q0 302 -94 434t-314 132h-322 v-490h295q31 0 31 -31v-104q0 -31 -31 -31h-295v-473z" />
<glyph unicode="&#xd1;" horiz-adv-x="1595" d="M158 33v1503q0 31 30 31h170q54 -1 75 -12.5t48 -51.5l695 -1030v1063q0 31 30 31h201q31 0 31 -31v-1503q0 -33 -31 -33h-158q-57 0 -86 45l-741 1104v-1116q0 -33 -31 -33h-203q-30 0 -30 33zM444 1745q37 127 79 172t124 45q51 0 154 -41t131 -41q35 0 54 14.5 t38 55.5q13 29 39 20l65 -18q32 -10 23 -45q-37 -128 -78 -171.5t-125 -43.5q-50 0 -153 41t-131 41q-35 0 -54.5 -14.5t-38.5 -55.5q-13 -30 -39 -21l-65 17q-31 13 -23 45z" />
<glyph unicode="&#xd2;" d="M106 780q0 244 29.5 389.5t102.5 237.5q73 94 192 132t320 38q202 0 321 -38t191 -132q73 -91 102 -236.5t29 -390.5q0 -244 -29 -387t-102 -235q-72 -92 -191.5 -130t-320.5 -38q-199 0 -318.5 38t-193.5 130q-73 91 -102.5 236t-29.5 386zM373 780q0 -333 71 -448 q70 -113 306 -113q235 0 305 113q73 113 73 448q0 338 -73 451q-71 117 -305 117q-236 0 -306 -117q-71 -115 -71 -451zM377 1962v14q0 21 20 21h238q18 0 24 -12l150 -256q10 -20 -6 -29l-64 -39q-16 -9 -28 0l-324 276q-10 10 -10 25z" />
<glyph unicode="&#xd3;" d="M106 780q0 244 29.5 389.5t102.5 237.5q73 94 192 132t320 38q202 0 321 -38t191 -132q73 -91 102 -236.5t29 -390.5q0 -244 -29 -387t-102 -235q-72 -92 -191.5 -130t-320.5 -38q-199 0 -318.5 38t-193.5 130q-73 91 -102.5 236t-29.5 386zM373 780q0 -333 71 -448 q70 -113 306 -113q235 0 305 113q73 113 73 448q0 338 -73 451q-71 117 -305 117q-236 0 -306 -117q-71 -115 -71 -451zM639 1729l149 256q6 12 25 12h238q20 0 20 -21v-14q0 -8 -10 -25l-324 -276q-14 -11 -28 0l-64 39q-16 9 -6 29z" />
<glyph unicode="&#xd4;" d="M106 780q0 244 29.5 389.5t102.5 237.5q73 94 192 132t320 38q202 0 321 -38t191 -132q73 -91 102 -236.5t29 -390.5q0 -244 -29 -387t-102 -235q-72 -92 -191.5 -130t-320.5 -38q-199 0 -318.5 38t-193.5 130q-73 91 -102.5 236t-29.5 386zM373 780q0 -333 71 -448 q70 -113 306 -113q235 0 305 113q73 113 73 448q0 338 -73 451q-71 117 -305 117q-236 0 -306 -117q-71 -115 -71 -451zM459 1720l188 260q14 17 39 17h129q27 0 37 -17l188 -260q15 -15 -6 -30l-49 -29q-18 -12 -33 0l-202 151l-201 -151q-17 -10 -33 0l-49 29 q-22 13 -8 30z" />
<glyph unicode="&#xd5;" d="M106 780q0 244 29.5 389.5t102.5 237.5q73 94 192 132t320 38q202 0 321 -38t191 -132q73 -91 102 -236.5t29 -390.5q0 -244 -29 -387t-102 -235q-72 -92 -191.5 -130t-320.5 -38q-199 0 -318.5 38t-193.5 130q-73 91 -102.5 236t-29.5 386zM373 780q0 -333 71 -448 q70 -113 306 -113q235 0 305 113q73 113 73 448q0 338 -73 451q-71 117 -305 117q-236 0 -306 -117q-71 -115 -71 -451zM397 1745q35 128 76.5 172.5t126.5 44.5q51 0 154 -41t131 -41q35 0 54 14.5t38 55.5q13 29 37 20l67 -18q32 -10 23 -45q-37 -128 -78 -171.5 t-125 -43.5q-50 0 -153 41t-132 41q-37 0 -56 -14.5t-36 -55.5q-16 -29 -39 -21l-67 17q-29 13 -21 45z" />
<glyph unicode="&#xd6;" d="M106 780q0 244 29.5 389.5t102.5 237.5q73 94 192 132t320 38q202 0 321 -38t191 -132q73 -91 102 -236.5t29 -390.5q0 -244 -29 -387t-102 -235q-72 -92 -191.5 -130t-320.5 -38q-199 0 -318.5 38t-193.5 130q-73 91 -102.5 236t-29.5 386zM373 780q0 -333 71 -448 q70 -113 306 -113q235 0 305 113q73 113 73 448q0 338 -73 451q-71 117 -305 117q-236 0 -306 -117q-71 -115 -71 -451zM399 1825q0 135 144 135q139 0 139 -135q0 -137 -139 -137q-144 0 -144 137zM817 1825q0 135 141 135q142 0 142 -135q0 -137 -142 -137 q-141 0 -141 137z" />
<glyph unicode="&#xd7;" horiz-adv-x="1089" d="M102 334q-19 22 0 45l277 272l-273 275q-24 24 -2 45l127 125q23 22 45 0l273 -273l274 275q21 22 43 0l119 -117q23 -23 0 -45l-276 -274l274 -273q23 -23 0 -45l-127 -125q-22 -23 -45 0l-272 273l-275 -275q-24 -23 -45 -2z" />
<glyph unicode="&#xd8;" d="M106 780q0 244 29.5 389.5t102.5 237.5q73 94 192 132t320 38q284 0 415 -82l54 78q22 29 43 8l69 -47q24 -15 6 -43l-65 -94q121 -165 121 -617q0 -244 -29 -387t-102 -235q-72 -92 -191.5 -130t-320.5 -38q-272 0 -410 78l-61 -86q-19 -29 -41 -7l-70 48q-22 14 -8 40 l71 101q-125 165 -125 616zM373 780q0 -249 35 -362l606 862q-80 68 -264 68q-236 0 -306 -117q-71 -115 -71 -451zM492 283q79 -64 258 -64q235 0 305 113q73 113 73 448q0 254 -34 363z" />
<glyph unicode="&#xd9;" horiz-adv-x="1544" d="M143 780v756q0 31 31 31h203q31 0 31 -31v-756q0 -333 71 -448q73 -113 293 -113t293 113q74 115 74 448v756q0 19 5.5 25t24.5 6h201q31 0 31 -31v-756q0 -253 -27.5 -397.5t-99.5 -235.5q-71 -89 -185.5 -123t-316.5 -34t-316.5 34t-185.5 123q-72 91 -99.5 235.5 t-27.5 397.5zM440 1962v14q0 21 21 21h237q19 0 25 -12l149 -256q10 -20 -6 -29l-63 -39q-15 -12 -29 0l-323 276q-11 18 -11 25z" />
<glyph unicode="&#xda;" horiz-adv-x="1544" d="M143 780v756q0 31 31 31h203q31 0 31 -31v-756q0 -333 71 -448q73 -113 293 -113t293 113q74 115 74 448v756q0 19 5.5 25t24.5 6h201q31 0 31 -31v-756q0 -253 -27.5 -397.5t-99.5 -235.5q-71 -89 -185.5 -123t-316.5 -34t-316.5 34t-185.5 123q-72 91 -99.5 235.5 t-27.5 397.5zM645 1729l150 256q6 12 24 12h238q20 0 20 -21v-14q0 -8 -10 -25l-324 -276q-14 -11 -28 0l-64 39q-16 9 -6 29z" />
<glyph unicode="&#xdb;" horiz-adv-x="1544" d="M143 780v756q0 31 31 31h203q31 0 31 -31v-756q0 -333 71 -448q73 -113 293 -113t293 113q74 115 74 448v756q0 19 5.5 25t24.5 6h201q31 0 31 -31v-756q0 -253 -27.5 -397.5t-99.5 -235.5q-71 -89 -185.5 -123t-316.5 -34t-316.5 34t-185.5 123q-72 91 -99.5 235.5 t-27.5 397.5zM481 1720l189 260q14 17 37 17h131q26 0 36 -17l189 -260q15 -15 -6 -30l-51 -29q-15 -12 -33 0l-201 151l-201 -151q-17 -12 -32 0l-52 29q-21 15 -6 30z" />
<glyph unicode="&#xdc;" horiz-adv-x="1544" d="M143 780v756q0 31 31 31h203q31 0 31 -31v-756q0 -333 71 -448q73 -113 293 -113t293 113q74 115 74 448v756q0 19 5.5 25t24.5 6h201q31 0 31 -31v-756q0 -253 -27.5 -397.5t-99.5 -235.5q-71 -89 -185.5 -123t-316.5 -34t-316.5 34t-185.5 123q-72 91 -99.5 235.5 t-27.5 397.5zM422 1825q0 135 143 135q140 0 140 -135q0 -137 -140 -137q-143 0 -143 137zM840 1825q0 135 141 135t141 -135q0 -137 -141 -137t-141 137z" />
<glyph unicode="&#xdd;" horiz-adv-x="1402" d="M10 1522q-23 45 23 45h221q38 0 55 -33l391 -772l392 772q17 33 55 33h223q46 0 23 -45l-562 -1033v-456q0 -33 -30 -33h-201q-31 0 -31 33v459zM594 1729l149 256q6 12 25 12h238q20 0 20 -21v-14q0 -15 -10 -25l-324 -276q-14 -11 -28 0l-64 39q-16 9 -6 29z" />
<glyph unicode="&#xde;" horiz-adv-x="1343" d="M158 35v1501q0 33 30 33h203q31 0 31 -33v-244q132 6 244 6q351 0 479 -104q129 -102 129 -410q0 -304 -129 -409q-130 -103 -479 -103q-10 0 -244 4v-241q0 -33 -31 -33h-203q-30 0 -30 33zM422 498h219q224 0 295 53q72 54 72 233q0 180 -72 234q-71 53 -295 53h-219 v-573z" />
<glyph unicode="&#xdf;" horiz-adv-x="1255" d="M133 31v1063q0 267 103 376q101 107 378 107q270 0 392 -96q120 -95 120 -338q0 -162 -45.5 -245.5t-152.5 -106.5v-7q129 -18 183 -107.5t54 -260.5q0 -245 -125 -336q-128 -90 -403 -90q-60 0 -139 8q-33 3 -27 35l39 160q6 26 29 26h98q150 2 210 48.5t60 172.5 q0 137 -64 190.5t-210 53.5h-111q-30 0 -30 31v137q0 31 32 31h107q124 0 180.5 49t56.5 178q0 138 -56 188t-200 50q-123 0 -174 -54q-49 -52 -49 -204v-1059q0 -31 -31 -31h-194q-31 0 -31 31z" />
<glyph unicode="&#xe0;" horiz-adv-x="1124" d="M68 332q0 181 91 253t298 72h297v107q0 86 -54.5 125t-177.5 39h-336q-19 0 -24.5 5.5t-5.5 24.5v125q0 18 5 23t23 10q144 27 338 27q258 0 368.5 -80.5t110.5 -255.5v-713q0 -44 -40 -59q-151 -45 -461 -45q-234 0 -334 65q-98 67 -98 277zM254 1552v15q0 20 20 20h238 q19 0 25 -12l149 -256q10 -20 -6 -29l-64 -39q-14 -11 -28 0l-324 277q-10 10 -10 24zM313 342q0 -85 44 -115t163 -30q144 0 234 22v260h-283q-85 0 -121.5 -31t-36.5 -106z" />
<glyph unicode="&#xe1;" horiz-adv-x="1124" d="M68 332q0 181 91 253t298 72h297v107q0 86 -54.5 125t-177.5 39h-336q-19 0 -24.5 5.5t-5.5 24.5v125q0 18 5 23t23 10q144 27 338 27q258 0 368.5 -80.5t110.5 -255.5v-713q0 -44 -40 -59q-151 -45 -461 -45q-234 0 -334 65q-98 67 -98 277zM313 342q0 -85 44 -115 t163 -30q144 0 234 22v260h-283q-85 0 -121.5 -31t-36.5 -106zM387 1319l150 256q6 12 24 12h238q20 0 20 -20v-15q0 -7 -10 -24l-324 -277q-14 -11 -28 0l-64 39q-16 9 -6 29z" />
<glyph unicode="&#xe2;" horiz-adv-x="1124" d="M68 332q0 181 91 253t298 72h297v107q0 86 -54.5 125t-177.5 39h-336q-19 0 -24.5 5.5t-5.5 24.5v125q0 18 5 23t23 10q144 27 338 27q258 0 368.5 -80.5t110.5 -255.5v-713q0 -44 -40 -59q-151 -45 -461 -45q-234 0 -334 65q-98 67 -98 277zM262 1311l189 260 q10 16 36 16h129q26 0 39 -16l189 -260q16 -16 -6 -31l-52 -29q-15 -12 -32 0l-201 152l-201 -152q-18 -12 -33 0l-51 29q-22 15 -6 31zM313 342q0 -85 44 -115t163 -30q144 0 234 22v260h-283q-85 0 -121.5 -31t-36.5 -106z" />
<glyph unicode="&#xe3;" horiz-adv-x="1124" d="M68 332q0 181 91 253t298 72h297v107q0 86 -54.5 125t-177.5 39h-336q-19 0 -24.5 5.5t-5.5 24.5v125q0 18 5 23t23 10q144 27 338 27q258 0 368.5 -80.5t110.5 -255.5v-713q0 -44 -40 -59q-151 -45 -461 -45q-234 0 -334 65q-98 67 -98 277zM199 1335q37 127 78.5 172 t123.5 45q51 0 154 -41t131 -41q37 0 56 14.5t36 55.5q17 30 39 21l68 -19q28 -9 22 -45q-37 -128 -77.5 -171.5t-124.5 -43.5q-53 0 -156 41t-131 41q-35 0 -54 -14.5t-38 -55.5q-13 -29 -37 -20l-68 16q-28 9 -22 45zM313 342q0 -85 44 -115t163 -30q144 0 234 22v260 h-283q-85 0 -121.5 -31t-36.5 -106z" />
<glyph unicode="&#xe4;" horiz-adv-x="1124" d="M68 332q0 181 91 253t298 72h297v107q0 86 -54.5 125t-177.5 39h-336q-19 0 -24.5 5.5t-5.5 24.5v125q0 18 5 23t23 10q144 27 338 27q258 0 368.5 -80.5t110.5 -255.5v-713q0 -44 -40 -59q-151 -45 -461 -45q-234 0 -334 65q-98 67 -98 277zM203 1415q0 135 143 135 q139 0 139 -135q0 -137 -139 -137q-143 0 -143 137zM313 342q0 -85 44 -115t163 -30q144 0 234 22v260h-283q-85 0 -121.5 -31t-36.5 -106zM621 1415q0 135 141 135t141 -135q0 -137 -141 -137t-141 137z" />
<glyph unicode="&#xe5;" horiz-adv-x="1124" d="M68 332q0 181 91 253t298 72h297v107q0 86 -54.5 125t-177.5 39h-336q-19 0 -24.5 5.5t-5.5 24.5v125q0 18 5 23t23 10q144 27 338 27q258 0 368.5 -80.5t110.5 -255.5v-713q0 -44 -40 -59q-151 -45 -461 -45q-234 0 -334 65q-98 67 -98 277zM313 342q0 -85 44 -115 t163 -30q144 0 234 22v260h-283q-85 0 -121.5 -31t-36.5 -106zM326 1464q0 222 227 222t227 -222q0 -219 -227 -219t-227 219zM426 1464q0 -127 127 -127t127 127t-127 127t-127 -127z" />
<glyph unicode="&#xe6;" horiz-adv-x="1800" d="M68 332q0 181 91 253t298 72h297v107q0 86 -54.5 125t-177.5 39h-336q-19 0 -24.5 5.5t-5.5 24.5v125q0 18 5 23t23 10q144 27 338 27q256 0 369 -96q104 96 352 96q289 0 383 -111q93 -109 96 -444v-62q0 -32 -13.5 -43.5t-55.5 -11.5h-647q3 -162 53 -215 q48 -51 201 -51h348q30 0 30 -31v-127q0 -29 -28 -35q-154 -22 -367 -22q-87 0 -194 22q-99 23 -152 58q-154 -80 -397 -80q-234 0 -334 65q-98 67 -98 277zM313 342q0 -85 44 -116t161 -31q188 0 279 45q-37 84 -37 239h-289q-85 0 -121.5 -31t-36.5 -106zM1004 649h471 q-3 167 -50 223t-182 56q-142 0 -188 -58q-48 -57 -51 -221z" />
<glyph unicode="&#xe7;" horiz-adv-x="1019" d="M98 567q0 190 19 291t73 168q55 67 147.5 92t258.5 25q179 0 324 -23q30 -6 30 -37v-125q0 -30 -32 -30h-322q-159 0 -205 -70q-43 -67 -43 -291q0 -223 43 -293q46 -69 205 -69h322q32 0 32 -31v-125q0 -31 -30 -37q-115 -19 -258 -22q30 -102 30 -183q0 -86 -49 -120 q-46 -37 -151 -37q-101 0 -144 16q-24 9 -24 37v96q0 29 28 29h74q29 1 40 1.5t26 3.5t20.5 9.5t10.5 17t7 27.5q0 34 -14 105q-253 9 -336 127q-82 119 -82 448z" />
<glyph unicode="&#xe8;" horiz-adv-x="1142" d="M96 565q0 350 94 463q95 115 396 115q154 0 240.5 -24.5t140.5 -88.5q55 -64 75.5 -163t22.5 -279v-62q0 -31 -14.5 -43t-55.5 -12h-649q3 -162 53 -215q51 -51 201 -51h350q31 0 31 -31v-127q0 -29 -29 -35q-157 -22 -366 -22q-300 0 -393 112q-97 117 -97 463z M254 1552v15q0 20 20 20h238q19 0 25 -12l149 -256q10 -20 -6 -29l-64 -39q-14 -11 -28 0l-324 277q-10 17 -10 24zM346 649h469q-3 169 -47 221q-46 58 -182 58q-145 0 -191 -58q-46 -55 -49 -221z" />
<glyph unicode="&#xe9;" horiz-adv-x="1142" d="M96 565q0 350 94 463q95 115 396 115q154 0 240.5 -24.5t140.5 -88.5q55 -64 75.5 -163t22.5 -279v-62q0 -31 -14.5 -43t-55.5 -12h-649q3 -162 53 -215q51 -51 201 -51h350q31 0 31 -31v-127q0 -29 -29 -35q-157 -22 -366 -22q-300 0 -393 112q-97 117 -97 463zM346 649 h469q-3 169 -47 221q-46 58 -182 58q-145 0 -191 -58q-46 -55 -49 -221zM444 1319l150 256q6 12 24 12h238q21 0 21 -20v-15q0 -13 -11 -24l-323 -277q-15 -12 -29 0l-63 39q-17 10 -7 29z" />
<glyph unicode="&#xea;" horiz-adv-x="1142" d="M96 565q0 350 94 463q95 115 396 115q154 0 240.5 -24.5t140.5 -88.5q55 -64 75.5 -163t22.5 -279v-62q0 -31 -14.5 -43t-55.5 -12h-649q3 -162 53 -215q51 -51 201 -51h350q31 0 31 -31v-127q0 -29 -29 -35q-157 -22 -366 -22q-300 0 -393 112q-97 117 -97 463z M293 1311l188 260q10 16 37 16h129q27 0 37 -16l188 -260q16 -16 -6 -31l-49 -29q-17 -10 -33 0l-200 152l-203 -152q-17 -10 -33 0l-49 29q-22 15 -6 31zM346 649h469q-3 169 -47 221q-46 58 -182 58q-145 0 -191 -58q-46 -55 -49 -221z" />
<glyph unicode="&#xeb;" horiz-adv-x="1142" d="M96 565q0 350 94 463q95 115 396 115q154 0 240.5 -24.5t140.5 -88.5q55 -64 75.5 -163t22.5 -279v-62q0 -31 -14.5 -43t-55.5 -12h-649q3 -162 53 -215q51 -51 201 -51h350q31 0 31 -31v-127q0 -29 -29 -35q-157 -22 -366 -22q-300 0 -393 112q-97 117 -97 463z M233 1415q0 135 144 135q139 0 139 -135q0 -137 -139 -137q-144 0 -144 137zM346 649h469q-3 169 -47 221q-46 58 -182 58q-145 0 -191 -58q-46 -55 -49 -221zM649 1415q0 135 144 135q139 0 139 -135q0 -137 -139 -137q-144 0 -144 137z" />
<glyph unicode="&#xec;" horiz-adv-x="514" d="M-70 1552v15q0 20 21 20h237q19 0 25 -12l149 -256q10 -20 -6 -29l-63 -39q-15 -12 -29 0l-323 277q-11 11 -11 24zM133 31v1071q0 31 31 31h186q31 0 31 -31v-1071q0 -31 -31 -31h-186q-31 0 -31 31z" />
<glyph unicode="&#xed;" horiz-adv-x="514" d="M133 31v1071q0 31 31 31h186q31 0 31 -31v-1071q0 -31 -31 -31h-186q-31 0 -31 31zM154 1319l149 256q6 12 25 12h237q21 0 21 -20v-15q0 -6 -11 -24l-323 -277q-15 -12 -29 0l-63 39q-16 9 -6 29z" />
<glyph unicode="&#xee;" horiz-adv-x="514" d="M-35 1311l189 260q13 16 39 16h129q26 0 36 -16l189 -260q16 -16 -6 -31l-49 -29q-18 -12 -33 0l-203 152l-201 -152q-16 -10 -32 0l-50 29q-23 13 -8 31zM133 31v1071q0 31 31 31h186q31 0 31 -31v-1071q0 -31 -31 -31h-186q-31 0 -31 31z" />
<glyph unicode="&#xef;" horiz-adv-x="514" d="M-94 1415q0 135 143 135q139 0 139 -135q0 -137 -139 -137q-143 0 -143 137zM133 31v1071q0 31 31 31h186q31 0 31 -31v-1071q0 -31 -31 -31h-186q-31 0 -31 31zM324 1415q0 135 141 135t141 -135q0 -137 -141 -137t-141 137z" />
<glyph unicode="&#xf0;" horiz-adv-x="1187" d="M96 512q3 309 94 410q92 102 375 102q65 0 117 -6l-150 252l-178 -62q-30 -12 -39 19l-20 53q-10 30 18 39l156 55l-92 154q-10 17 -4.5 27t24.5 10h201q25 0 37 -21l55 -92l170 61q30 12 39 -18l21 -53q10 -29 -19 -39l-149 -53l286 -488q56 -86 56 -350 q0 -313 -99 -418q-98 -104 -399 -104q-160 0 -251.5 23t-149.5 83q-56 62 -77.5 156.5t-21.5 259.5zM346 512q0 -186 45 -246q46 -61 205 -61q156 0 203 59q44 58 47 248q-3 191 -47 246q-46 61 -203 61q-159 0 -205 -61q-45 -60 -45 -246z" />
<glyph unicode="&#xf1;" horiz-adv-x="1226" d="M131 31v1046q0 13 4 20t9 8.5t16 4.5q156 33 458 33q163 0 243.5 -16t137.5 -68q59 -49 81 -140t22 -262v-626q0 -31 -33 -31h-184q-31 0 -31 31v581q0 126 -9 184t-40 87q-33 33 -70 39q-38 6 -121 6h-235v-897q0 -31 -31 -31h-188q-29 0 -29 31zM260 1335 q37 127 79 172t124 45q50 0 153 -41t134 -41q35 0 54 14.5t38 55.5q13 30 37 21l67 -19q29 -10 23 -45q-37 -128 -78 -171.5t-125 -43.5q-53 0 -156 41q-100 41 -129 41q-37 0 -56 -14.5t-36 -55.5q-16 -29 -39 -20l-67 16q-29 10 -23 45z" />
<glyph unicode="&#xf2;" horiz-adv-x="1189" d="M96 565q0 346 97 463q95 115 401 115t401 -115q99 -114 99 -463t-99 -463q-93 -112 -401 -112t-401 112q-97 117 -97 463zM244 1552v15q0 20 20 20h238q18 0 24 -12l150 -256q10 -20 -6 -29l-64 -39q-16 -9 -28 0l-324 277q-10 10 -10 24zM344 565q0 -225 45 -293 q46 -67 205 -67t205 67q45 68 45 293t-45 293q-46 70 -205 70t-205 -70q-45 -68 -45 -293z" />
<glyph unicode="&#xf3;" horiz-adv-x="1189" d="M96 565q0 346 97 463q95 115 401 115t401 -115q99 -114 99 -463t-99 -463q-93 -112 -401 -112t-401 112q-97 117 -97 463zM344 565q0 -225 45 -293q46 -67 205 -67t205 67q45 68 45 293t-45 293q-46 70 -205 70t-205 -70q-45 -68 -45 -293zM487 1319l150 256q6 12 25 12 h237q21 0 21 -20v-15q0 -13 -11 -24l-323 -277q-13 -10 -29 0l-63 39q-17 10 -7 29z" />
<glyph unicode="&#xf4;" horiz-adv-x="1189" d="M96 565q0 346 97 463q95 115 401 115t401 -115q99 -114 99 -463t-99 -463q-93 -112 -401 -112t-401 112q-97 117 -97 463zM303 1311l189 260q13 16 38 16h129q27 0 37 -16l189 -260q16 -16 -6 -31l-50 -29q-17 -12 -32 0l-203 152l-201 -152q-17 -10 -33 0l-49 29 q-23 13 -8 31zM344 565q0 -225 45 -293q46 -67 205 -67t205 67q45 68 45 293t-45 293q-46 70 -205 70t-205 -70q-45 -68 -45 -293z" />
<glyph unicode="&#xf5;" horiz-adv-x="1189" d="M96 565q0 346 97 463q95 115 401 115t401 -115q99 -114 99 -463t-99 -463q-93 -112 -401 -112t-401 112q-97 117 -97 463zM242 1335q35 128 76.5 172.5t125.5 44.5q51 0 154 -41t131 -41q35 0 54 14.5t38 55.5q13 30 37 21l68 -19q31 -9 22 -45q-37 -128 -78 -171.5 t-125 -43.5q-50 0 -153 41t-131 41q-37 0 -56 -14.5t-36 -55.5q-16 -29 -39 -20l-68 16q-28 13 -20 45zM344 565q0 -225 45 -293q46 -67 205 -67t205 67q45 68 45 293t-45 293q-46 70 -205 70t-205 -70q-45 -68 -45 -293z" />
<glyph unicode="&#xf6;" horiz-adv-x="1189" d="M96 565q0 346 97 463q95 115 401 115t401 -115q99 -114 99 -463t-99 -463q-93 -112 -401 -112t-401 112q-97 117 -97 463zM244 1415q0 135 143 135q139 0 139 -135q0 -137 -139 -137q-143 0 -143 137zM344 565q0 -225 45 -293q46 -67 205 -67t205 67q45 68 45 293 t-45 293q-46 70 -205 70t-205 -70q-45 -68 -45 -293zM662 1415q0 135 141 135t141 -135q0 -137 -141 -137t-141 137z" />
<glyph unicode="&#xf7;" horiz-adv-x="1165" d="M82 557v170q0 31 31 31h940q30 0 30 -31v-170q0 -31 -30 -31h-940q-31 0 -31 31zM434 274q0 67 40 103.5t112 36.5q147 0 147 -140q0 -69 -37.5 -106t-109.5 -37t-112 37t-40 106zM434 1010q0 67 40 104t112 37q69 0 108 -37t39 -104t-39 -104.5t-108 -37.5 q-72 0 -112 37.5t-40 104.5z" />
<glyph unicode="&#xf8;" horiz-adv-x="1189" d="M96 565q0 346 97 463q95 115 401 115q187 0 283 -35l36 53q22 29 43 8l70 -47q24 -15 6 -43l-37 -51q99 -111 99 -463q0 -349 -99 -463q-93 -112 -401 -112q-194 0 -297 41l-43 -60q-19 -28 -41 -6l-70 47q-27 15 -8 41l47 68q-86 115 -86 444zM344 565q0 -137 12 -196 l379 538q-49 21 -141 21q-159 0 -205 -70q-45 -68 -45 -293zM438 231q51 -26 156 -26q159 0 205 67q45 68 45 293q0 155 -17 221z" />
<glyph unicode="&#xf9;" horiz-adv-x="1228" d="M125 477v625q0 31 35 31h184q29 0 29 -31v-580q0 -126 9 -183.5t40 -88.5q30 -30 65.5 -37.5t124.5 -7.5h236v897q0 31 31 31h188q31 0 31 -31v-1045q0 -10 -1.5 -16t-7 -9t-9 -4t-13.5 -3q-175 -35 -457 -35q-163 0 -243.5 16t-139.5 68t-80.5 142t-21.5 261zM285 1552 v15q0 20 20 20h238q18 0 24 -12l150 -256q10 -20 -6 -29l-64 -39q-15 -12 -29 0l-323 277q-10 10 -10 24z" />
<glyph unicode="&#xfa;" horiz-adv-x="1228" d="M125 477v625q0 31 35 31h184q29 0 29 -31v-580q0 -126 9 -183.5t40 -88.5q30 -30 65.5 -37.5t124.5 -7.5h236v897q0 31 31 31h188q31 0 31 -31v-1045q0 -10 -1.5 -16t-7 -9t-9 -4t-13.5 -3q-175 -35 -457 -35q-163 0 -243.5 16t-139.5 68t-80.5 142t-21.5 261zM477 1319 l150 256q6 12 24 12h238q20 0 20 -20v-15q0 -14 -10 -24l-324 -277q-14 -11 -28 0l-64 39q-16 9 -6 29z" />
<glyph unicode="&#xfb;" horiz-adv-x="1228" d="M125 477v625q0 31 35 31h184q29 0 29 -31v-580q0 -126 9 -183.5t40 -88.5q30 -30 65.5 -37.5t124.5 -7.5h236v897q0 31 31 31h188q31 0 31 -31v-1045q0 -10 -1.5 -16t-7 -9t-9 -4t-13.5 -3q-175 -35 -457 -35q-163 0 -243.5 16t-139.5 68t-80.5 142t-21.5 261zM322 1311 l188 260q10 16 37 16h129q26 0 39 -16l188 -260q15 -18 -8 -31l-49 -29q-17 -10 -33 0l-201 152l-202 -152q-15 -12 -33 0l-49 29q-22 15 -6 31z" />
<glyph unicode="&#xfc;" horiz-adv-x="1228" d="M125 477v625q0 31 35 31h184q29 0 29 -31v-580q0 -126 9 -183.5t40 -88.5q30 -30 65.5 -37.5t124.5 -7.5h236v897q0 31 31 31h188q31 0 31 -31v-1045q0 -10 -1.5 -16t-7 -9t-9 -4t-13.5 -3q-175 -35 -457 -35q-163 0 -243.5 16t-139.5 68t-80.5 142t-21.5 261zM252 1415 q0 135 143 135q140 0 140 -135q0 -137 -140 -137q-143 0 -143 137zM670 1415q0 135 141 135t141 -135q0 -137 -141 -137t-141 137z" />
<glyph unicode="&#xfd;" horiz-adv-x="1241" d="M123 532v570q0 31 31 31h186q31 0 31 -31v-535q0 -222 47 -293q49 -67 219 -67q137 0 223 12v883q0 31 31 31h186q31 0 31 -31v-1036q0 -118 -11.5 -191t-41.5 -133q-41 -87 -144.5 -124.5t-289.5 -37.5q-176 0 -347 23q-26 6 -26 32v121q0 31 28 31h330q152 0 203 45 q51 42 51 166v10q-114 -18 -262 -18q-280 0 -379 114q-96 116 -96 428zM506 1319l149 256q6 12 25 12h238q20 0 20 -20v-15q0 -7 -10 -24l-324 -277q-14 -12 -29 0l-63 39q-16 9 -6 29z" />
<glyph unicode="&#xfe;" horiz-adv-x="1208" d="M133 -377v1911q0 31 31 31h186q31 0 31 -31v-404q110 13 262 13q283 0 375 -117q94 -116 94 -461q0 -348 -98 -461q-99 -114 -406 -114q-114 0 -227 10v-377q0 -33 -31 -33h-186q-31 0 -31 33zM381 221q122 -16 229 -16q166 0 209 69q45 68 45 291q0 230 -45 295 q-47 68 -215 68h-223v-707z" />
<glyph unicode="&#xff;" horiz-adv-x="1241" d="M123 532v570q0 31 31 31h186q31 0 31 -31v-535q0 -222 47 -293q49 -67 219 -67q137 0 223 12v883q0 31 31 31h186q31 0 31 -31v-1036q0 -118 -11.5 -191t-41.5 -133q-41 -87 -144.5 -124.5t-289.5 -37.5q-176 0 -347 23q-26 6 -26 32v121q0 31 28 31h330q152 0 203 45 q51 42 51 166v10q-114 -18 -262 -18q-280 0 -379 114q-96 116 -96 428zM274 1415q0 135 144 135q139 0 139 -135q0 -137 -139 -137q-144 0 -144 137zM692 1415q0 135 142 135q141 0 141 -135q0 -137 -141 -137q-142 0 -142 137z" />
<glyph unicode="&#x152;" horiz-adv-x="2162" d="M106 780q0 245 29 390.5t101 240.5q74 95 194.5 133t319.5 33l712 -10h572q32 0 32 -31v-168q0 -31 -32 -31h-750v-458h684q31 0 31 -31v-162q0 -31 -31 -31h-684v-426h750q32 0 32 -30v-168q0 -31 -32 -31l-1284 -10q-201 -2 -321 35t-193 129q-72 95 -101 239t-29 387z M371 780q0 -333 71 -448q73 -113 308 -113h272v1129h-272q-234 0 -308 -117q-71 -115 -71 -451z" />
<glyph unicode="&#x153;" horiz-adv-x="1892" d="M96 565q0 346 97 463q95 115 401 115q276 0 375 -105q102 105 366 105q289 0 383 -111q94 -110 97 -444v-62q0 -32 -14 -43.5t-56 -11.5h-647q3 -162 53 -215q48 -51 201 -51h348q31 0 31 -31v-127q0 -29 -29 -35q-151 -22 -367 -22q-266 0 -366 106q-100 -106 -375 -106 q-308 0 -401 112q-97 117 -97 463zM344 565q0 -225 45 -293q46 -67 205 -67t205 67q45 68 45 293t-45 293q-46 70 -205 70t-205 -70q-45 -68 -45 -293zM1096 649h471q-3 164 -51 221q-46 58 -181 58q-142 0 -188 -58q-48 -57 -51 -221z" />
<glyph unicode="&#x178;" horiz-adv-x="1402" d="M10 1522q-23 45 23 45h221q38 0 55 -33l391 -772l392 772q17 33 55 33h223q46 0 23 -45l-562 -1033v-456q0 -33 -30 -33h-201q-31 0 -31 33v459zM350 1825q0 135 144 135q141 0 141 -135q0 -137 -141 -137q-144 0 -144 137zM768 1825q0 135 141 135q142 0 142 -135 q0 -137 -142 -137q-141 0 -141 137z" />
<glyph unicode="&#x2c6;" horiz-adv-x="1083" d="M252 1311l188 260q10 16 37 16h129q27 0 37 -16l188 -260q16 -16 -6 -31l-49 -29q-17 -10 -33 0l-200 152l-203 -152q-15 -12 -33 0l-49 29q-22 15 -6 31z" />
<glyph unicode="&#x2dc;" horiz-adv-x="1202" d="M246 1335q37 127 79 172t124 45q50 0 153 -41t131 -41q36 0 54.5 14t37.5 56q15 27 39 21l68 -19q28 -13 20 -45q-35 -128 -76 -171.5t-126 -43.5q-51 0 -154 41t-131 41q-35 0 -54 -14.5t-38 -55.5q-13 -29 -39 -20l-66 16q-31 12 -22 45z" />
<glyph unicode="&#x2000;" horiz-adv-x="1047" />
<glyph unicode="&#x2001;" horiz-adv-x="2095" />
<glyph unicode="&#x2002;" horiz-adv-x="1047" />
<glyph unicode="&#x2003;" horiz-adv-x="2095" />
<glyph unicode="&#x2004;" horiz-adv-x="698" />
<glyph unicode="&#x2005;" horiz-adv-x="523" />
<glyph unicode="&#x2006;" horiz-adv-x="349" />
<glyph unicode="&#x2007;" horiz-adv-x="349" />
<glyph unicode="&#x2008;" horiz-adv-x="261" />
<glyph unicode="&#x2009;" horiz-adv-x="419" />
<glyph unicode="&#x200a;" horiz-adv-x="116" />
<glyph unicode="&#x2010;" horiz-adv-x="909" d="M125 500v168q0 30 31 30h596q32 0 32 -30v-168q0 -31 -32 -31h-596q-31 0 -31 31z" />
<glyph unicode="&#x2011;" horiz-adv-x="909" d="M125 500v168q0 30 31 30h596q32 0 32 -30v-168q0 -31 -32 -31h-596q-31 0 -31 31z" />
<glyph unicode="&#x2012;" horiz-adv-x="909" d="M125 500v168q0 30 31 30h596q32 0 32 -30v-168q0 -31 -32 -31h-596q-31 0 -31 31z" />
<glyph unicode="&#x2013;" horiz-adv-x="1265" d="M125 500v168q0 30 31 30h954q31 0 31 -30v-168q0 -31 -31 -31h-954q-31 0 -31 31z" />
<glyph unicode="&#x2014;" horiz-adv-x="1892" d="M125 500v168q0 30 31 30h1581q30 0 30 -30v-168q0 -31 -30 -31h-1581q-31 0 -31 31z" />
<glyph unicode="&#x2018;" horiz-adv-x="563" d="M63 997v39q0 9 11 27l321 491q16 20 31 11l68 -37q15 -9 6 -29l-146 -504q-6 -18 -24 -18h-246q-21 0 -21 20z" />
<glyph unicode="&#x2019;" horiz-adv-x="548" d="M74 1047l147 503q7 17 25 17h243q21 0 21 -21v-37q0 -11 -10 -28l-322 -492q-10 -17 -28 -8l-70 37q-15 9 -6 29z" />
<glyph unicode="&#x201a;" horiz-adv-x="538" d="M4 -270l146 503q7 17 24 17h246q20 0 20 -21v-36q0 -12 -10 -29l-321 -492q-17 -17 -31 -8l-68 37q-15 9 -6 29z" />
<glyph unicode="&#x201c;" horiz-adv-x="1007" d="M63 997v39q0 9 11 27l321 491q14 20 29 11l70 -37q15 -9 6 -29l-146 -504q-6 -18 -26 -18h-244q-21 0 -21 20zM508 997v39q0 10 10 27l322 491q13 20 28 11l70 -37q15 -9 6 -29l-145 -504q-6 -18 -27 -18h-244q-20 0 -20 20z" />
<glyph unicode="&#x201d;" horiz-adv-x="1013" d="M74 1047l147 503q7 17 25 17h243q21 0 21 -21v-37q0 -11 -10 -28l-322 -492q-10 -17 -28 -8l-70 37q-15 9 -6 29zM537 1047l147 503q7 17 25 17h245q21 0 21 -21v-37q0 -11 -10 -28l-324 -492q-10 -17 -29 -8l-69 37q-15 9 -6 29z" />
<glyph unicode="&#x201e;" horiz-adv-x="989" d="M2 -270l148 503q7 17 24 17h246q20 0 20 -21v-36q0 -12 -10 -29l-324 -492q-13 -17 -28 -8l-70 37q-15 9 -6 29zM455 -270l145 503q7 17 27 17h243q21 0 21 -21v-36q0 -12 -10 -29l-322 -492q-10 -17 -29 -8l-69 37q-15 9 -6 29z" />
<glyph unicode="&#x2022;" horiz-adv-x="1146" d="M236 594q0 142 89 221.5t250 79.5q158 0 247 -80t89 -221q0 -143 -89 -223t-247 -80q-161 0 -250 80t-89 223z" />
<glyph unicode="&#x2026;" horiz-adv-x="1368" d="M90 131q0 68 39 104.5t111 36.5q147 0 147 -141t-147 -141q-72 0 -111 36.5t-39 104.5zM532 131q0 68 39 104.5t111 36.5q147 0 147 -141t-147 -141q-72 0 -111 36.5t-39 104.5zM981 131q0 68 38.5 104.5t110.5 36.5q148 0 148 -141t-148 -141q-72 0 -110.5 36.5 t-38.5 104.5z" />
<glyph unicode="&#x202f;" horiz-adv-x="419" />
<glyph unicode="&#x2039;" horiz-adv-x="667" d="M74 516v94q0 23 16 45l225 295q16 19 37 19h185q30 0 30 -31v-14q0 -23 -14 -37l-258 -324l258 -321q14 -14 14 -37v-15q0 -30 -30 -30h-185q-22 0 -37 18l-225 293q-16 29 -16 45z" />
<glyph unicode="&#x203a;" horiz-adv-x="665" d="M100 190v15q0 22 15 37l258 321l-258 324q-15 15 -15 37v14q0 31 31 31h184q21 0 37 -19l226 -295q14 -20 14 -45v-94q0 -25 -14 -45l-226 -293q-15 -18 -37 -18h-184q-31 0 -31 30z" />
<glyph unicode="&#x205f;" horiz-adv-x="523" />
<glyph unicode="&#x20ac;" horiz-adv-x="1349" d="M49 631l19 74q6 30 41 30h178v49v68h-148q-30 0 -24 31l20 73q9 31 39 31h119q21 335 158 463q139 127 477 127q168 0 305 -25q49 -9 37 -49l-37 -123q-8 -32 -33 -32h-272q-197 0 -275 -78q-79 -79 -94 -283h522q34 0 25 -31l-21 -73q-6 -31 -38 -31h-494v-68v-49h463 q28 0 22 -30l-18 -74q-9 -31 -41 -31h-422q15 -216 94 -301q77 -80 277 -80h291q30 0 30 -31v-129q0 -39 -39 -45q-150 -24 -282 -24q-342 0 -479 131q-137 134 -158 479h-219q-32 0 -23 31z" />
<glyph unicode="&#x2122;" horiz-adv-x="2035" d="M53 1425v119q0 23 21 23h704q21 0 21 -23v-119q0 -20 -21 -20h-260v-768q0 -21 -20 -21h-146q-18 0 -18 21v768h-260q-21 0 -21 20zM825 639l86 907q3 21 17 21h147q29 0 42 -10t24 -39l233 -613l236 613q11 30 23.5 39.5t41.5 9.5h146q16 0 16 -23l88 -905 q0 -23 -20 -23h-146q-17 0 -20 23l-53 596l-226 -569q-7 -17 -26 -17h-119q-18 0 -25 17l-225 571l-53 -598q0 -23 -21 -23h-143q-23 0 -23 23z" />
<glyph unicode="&#x25fc;" horiz-adv-x="1136" d="M0 0v1137h1137v-1137h-1137z" />
</font>
</defs>
</svg>
